<svg width="393" height="298" viewBox="0 0 393 298" fill="none" xmlns="http://www.w3.org/2000/svg">
<path d="M398 261.39H0V261.589H398V261.39Z" fill="#EBEBEB"/>
<path d="M358.12 274.198H331.757V274.397H358.12V274.198Z" fill="#EBEBEB"/>
<path d="M263.651 276.363H256.734V276.562H263.651V276.363Z" fill="#EBEBEB"/>
<path d="M330.961 266.811H315.686V267.01H330.961V266.811Z" fill="#EBEBEB"/>
<path d="M76.1374 268.148H41.7582V268.347H76.1374V268.148Z" fill="#EBEBEB"/>
<path d="M88.2684 268.148H83.2297V268.347H88.2684V268.148Z" fill="#EBEBEB"/>
<path d="M179.219 271.508H104.65V271.707H179.219V271.508Z" fill="#EBEBEB"/>
<path d="M188.652 225.889H34.9524C33.7483 225.887 32.5943 225.407 31.7436 224.555C30.8929 223.703 30.4152 222.548 30.4152 221.344V5.28539C30.4256 4.08823 30.908 2.94354 31.7576 2.09997C32.6071 1.2564 33.7552 0.78208 34.9524 0.780029H188.652C189.857 0.780029 191.014 1.25889 191.866 2.11128C192.718 2.96366 193.197 4.11974 193.197 5.32519V221.344C193.197 222.549 192.718 223.705 191.866 224.558C191.014 225.41 189.857 225.889 188.652 225.889ZM34.9524 0.93923C33.8011 0.941339 32.6976 1.40017 31.8843 2.215C31.071 3.02983 30.6142 4.13409 30.6142 5.28539V221.344C30.6142 222.495 31.071 223.599 31.8843 224.414C32.6976 225.229 33.8011 225.688 34.9524 225.69H188.652C189.804 225.688 190.908 225.229 191.723 224.415C192.537 223.6 192.996 222.496 192.998 221.344V5.28539C192.996 4.13336 192.537 3.02912 191.723 2.21451C190.908 1.39991 189.804 0.941334 188.652 0.93923H34.9524Z" fill="#EBEBEB"/>
<path d="M360.835 225.889H207.127C205.922 225.887 204.767 225.407 203.916 224.555C203.064 223.703 202.584 222.548 202.582 221.344V5.28539C202.595 4.0875 203.079 2.94282 203.929 2.09947C204.78 1.25612 205.929 0.782058 207.127 0.780029H360.835C362.031 0.784172 363.177 1.25942 364.024 2.10276C364.872 2.94611 365.354 4.0896 365.364 5.28539V221.344C365.364 222.546 364.887 223.7 364.038 224.552C363.189 225.404 362.037 225.885 360.835 225.889ZM207.127 0.93923C205.975 0.941334 204.871 1.39991 204.056 2.21451C203.242 3.02912 202.783 4.13336 202.781 5.28539V221.344C202.783 222.496 203.242 223.6 204.056 224.415C204.871 225.229 205.975 225.688 207.127 225.69H360.835C361.987 225.688 363.091 225.229 363.906 224.415C364.72 223.6 365.179 222.496 365.181 221.344V5.28539C365.179 4.13336 364.72 3.02912 363.906 2.21451C363.091 1.39991 361.987 0.941334 360.835 0.93923H207.127Z" fill="#EBEBEB"/>
<path d="M174.404 261.39H189.225V159.606H174.404V261.39Z" fill="#E6E6E6"/>
<path d="M179.625 261.39H174.404V242.048H185.094L179.625 261.39Z" fill="#F0F0F0"/>
<path d="M331.16 261.39H345.981V159.606H331.16V261.39Z" fill="#E6E6E6"/>
<path d="M174.412 256.105H335.713V159.598H174.412V256.105Z" fill="#F0F0F0"/>
<path d="M330.491 261.39H335.713V242.048H325.023L330.491 261.39Z" fill="#F0F0F0"/>
<path d="M282.532 167.59V247.421H330.348V167.59H282.532Z" fill="#E6E6E6"/>
<path d="M301.684 170.4H311.141C315.149 170.457 319.034 169.012 322.03 166.348H290.843C293.827 168.999 297.692 170.444 301.684 170.4Z" fill="#F0F0F0"/>
<path d="M231.15 167.59V247.421H278.966V167.59H231.15Z" fill="#E6E6E6"/>
<path d="M249.841 170.4H259.305C263.305 170.45 267.18 169.005 270.17 166.348H238.983C241.97 169.005 245.843 170.45 249.841 170.4Z" fill="#F0F0F0"/>
<path d="M179.769 167.598V247.429H227.584V167.598H179.769Z" fill="#E6E6E6"/>
<path d="M198.467 170.4H207.923C211.923 170.45 215.798 169.005 218.789 166.348H187.601C190.591 169.006 194.466 170.451 198.467 170.4Z" fill="#F0F0F0"/>
<path d="M59.3816 261.39H160.521L160.521 34.0369H59.3816L59.3816 261.39Z" fill="#F0F0F0"/>
<path d="M59.3816 261.39H158.388L158.388 34.0369H59.3816L59.3816 261.39Z" fill="#F5F5F5"/>
<path d="M152.354 256.232V39.1949L65.4153 39.1949L65.4153 256.232H152.354Z" fill="#F0F0F0"/>
<path d="M143.813 79.584C143.814 76.4714 143.202 73.3891 142.012 70.5132C140.821 67.6372 139.076 65.0239 136.875 62.8226C134.675 60.6213 132.062 58.8751 129.187 57.6837C126.311 56.4924 123.229 55.8792 120.116 55.8792H97.6692C91.3822 55.8792 85.3528 58.3766 80.9073 62.8222C76.4618 67.2677 73.9643 73.2971 73.9643 79.584H143.813Z" fill="#FAFAFA"/>
<path d="M143.821 242.74V190.889H73.9723V242.74H143.821Z" fill="#F5F5F5"/>
<path d="M143.821 94.1747H113.008V184.194H143.821V94.1747Z" fill="#F5F5F5"/>
<path d="M104.777 94.1747H73.9643V184.194H104.777V94.1747Z" fill="#F5F5F5"/>
<path d="M85.172 138.783H72.5156C71.9963 138.783 71.4982 138.576 71.131 138.209C70.7637 137.842 70.5574 137.344 70.5574 136.824C70.5595 136.306 70.7665 135.809 71.1333 135.442C71.5001 135.075 71.9969 134.868 72.5156 134.866H85.172C85.6907 134.868 86.1875 135.075 86.5543 135.442C86.9211 135.809 87.1281 136.306 87.1302 136.824C87.1302 137.344 86.9238 137.842 86.5566 138.209C86.1894 138.576 85.6913 138.783 85.172 138.783Z" fill="#E0E0E0"/>
<path d="M66.9834 256.232L66.9834 39.1949H65.4153L65.4153 256.232H66.9834Z" fill="#F0F0F0"/>
<path d="M224.504 134.651H331.757V22.5348L224.504 22.5348V134.651Z" fill="#E6E6E6"/>
<path d="M221.798 134.651H329.051V22.5348L221.798 22.5348V134.651Z" fill="#F5F5F5"/>
<path d="M215.533 140.478L331.757 140.478V134.651H215.533V140.478Z" fill="#E6E6E6"/>
<path d="M212.484 140.478H322.722V134.651H212.484V140.478Z" fill="#F5F5F5"/>
<path d="M324.203 129.422V27.7723L226.653 27.7723V129.422H324.203Z" fill="white"/>
<path d="M278.13 129.422V27.7723H272.726V129.422H278.13Z" fill="#F5F5F5"/>
<path d="M228.691 129.422V27.7723H226.645V129.422H228.691Z" fill="#E6E6E6"/>
<path d="M280.176 129.422V27.7723H278.13V129.422H280.176Z" fill="#E6E6E6"/>
<path d="M238.919 137.318C236.945 116.877 235.568 83.7153 236.635 72.6191C236.657 72.43 236.718 72.2475 236.813 72.0831C236.909 71.9187 237.038 71.7759 237.192 71.6639C237.398 71.5132 237.642 71.4233 237.896 71.4044C238.15 71.3855 238.404 71.4384 238.63 71.557C238.856 71.6756 239.044 71.8552 239.172 72.0754C239.301 72.2955 239.365 72.5473 239.357 72.8021C239.174 78.3025 238.959 92.0415 240.153 115.738C240.734 127.535 241.57 135.638 240.997 137.318H238.919Z" fill="#E6E6E6"/>
<path d="M231.564 90.2106C225.945 83.97 214.474 79.5363 202.789 79.5602C198.196 79.5602 216.751 86.8117 224.464 94.8115C230.458 101.02 237.2 111.472 239.516 117.275C238.004 105.056 237.208 96.4433 231.564 90.2106Z" fill="#E6E6E6"/>
<path d="M242.7 92.1131C247.365 85.6177 258.127 80.6188 269.764 80.0536C274.333 79.8308 256.933 88.0137 250.438 96.3398C245.399 102.827 240.225 113.581 238.8 119.472C238.474 107.237 238.004 98.6084 242.7 92.1131Z" fill="#E6E6E6"/>
<path d="M231.318 67.4371C226.542 62.1517 216.846 58.3946 206.944 58.4184C203.06 58.4184 218.765 64.5636 225.3 71.3296C230.378 76.5911 236.102 85.4426 238.036 90.354C236.786 80.0219 236.07 72.7146 231.318 67.4371Z" fill="#E6E6E6"/>
<path d="M240.742 75.2458C244.722 69.7454 253.805 65.5107 263.675 65.0331C267.544 64.85 252.81 71.7513 247.309 78.8278C243.043 84.3202 238.657 93.4264 237.455 98.4173C237.208 88.0534 236.794 80.7461 240.742 75.2458Z" fill="#E6E6E6"/>
<path d="M239.707 159.606C236.743 159.607 233.891 158.473 231.736 156.438C229.581 154.403 228.286 151.62 228.118 148.661L227.091 130.894H252.332L251.305 148.661C251.136 151.622 249.841 154.405 247.684 156.441C245.527 158.476 242.673 159.609 239.707 159.606Z" fill="#E6E6E6"/>
<path d="M253.964 134.93H225.459L224.639 127.535H254.776L253.964 134.93Z" fill="#E6E6E6"/>
<path d="M199 297.338C284.238 297.338 353.337 293.303 353.337 288.327C353.337 283.351 284.238 279.316 199 279.316C113.762 279.316 44.6636 283.351 44.6636 288.327C44.6636 293.303 113.762 297.338 199 297.338Z" fill="#F5F5F5"/>
<path d="M41.6308 47.3699C41.635 46.0454 42.163 44.7763 43.0996 43.8397C44.0361 42.9032 45.3052 42.3752 46.6297 42.371H269.685C271.009 42.3752 272.278 42.9032 273.215 43.8397C274.151 44.7763 274.679 46.0454 274.684 47.3699V63.457H41.6308V47.3699Z" fill="#263238"/>
<path d="M82.0437 57.1288C81.2093 57.1288 80.3936 56.8813 79.6999 56.4178C79.0061 55.9542 78.4653 55.2953 78.146 54.5244C77.8267 53.7535 77.7432 52.9053 77.906 52.0869C78.0687 51.2686 78.4705 50.5168 79.0605 49.9268C79.6506 49.3368 80.4023 48.935 81.2206 48.7722C82.039 48.6094 82.8873 48.693 83.6582 49.0123C84.429 49.3316 85.0879 49.8723 85.5515 50.5661C86.0151 51.2599 86.2625 52.0756 86.2625 52.91C86.2625 54.0289 85.818 55.1019 85.0268 55.8931C84.2357 56.6843 83.1626 57.1288 82.0437 57.1288ZM82.0437 49.5747C81.384 49.5747 80.7392 49.7703 80.1907 50.1368C79.6422 50.5033 79.2148 51.0242 78.9623 51.6336C78.7099 52.2431 78.6438 52.9137 78.7725 53.5606C78.9012 54.2076 79.2189 54.8019 79.6853 55.2683C80.1518 55.7348 80.746 56.0524 81.393 56.1811C82.04 56.3098 82.7106 56.2438 83.32 55.9913C83.9295 55.7389 84.4504 55.3114 84.8168 54.7629C85.1833 54.2144 85.3789 53.5696 85.3789 52.91C85.3768 52.026 85.0248 51.1789 84.3997 50.5539C83.7747 49.9289 82.9276 49.5768 82.0437 49.5747Z" fill="#F0F0F0"/>
<path d="M68.6471 57.1288C67.813 57.1272 66.9981 56.8784 66.3054 56.4139C65.6127 55.9494 65.0732 55.2899 64.7551 54.5189C64.437 53.7479 64.3546 52.8999 64.5183 52.082C64.6819 51.2642 65.0844 50.5132 65.6747 49.924C66.265 49.3348 67.0167 48.9338 67.8349 48.7716C68.653 48.6095 69.5009 48.6935 70.2713 49.0131C71.0417 49.3326 71.7002 49.8733 72.1634 50.5669C72.6266 51.2605 72.8738 52.0759 72.8738 52.91C72.8738 53.4646 72.7644 54.0139 72.5519 54.5263C72.3394 55.0386 72.0279 55.5041 71.6353 55.8959C71.2428 56.2878 70.7767 56.5984 70.264 56.8099C69.7512 57.0215 69.2017 57.1298 68.6471 57.1288ZM68.6471 49.5747C67.9878 49.5763 67.3437 49.7732 66.7963 50.1407C66.2488 50.5081 65.8226 51.0295 65.5714 51.6391C65.3202 52.2487 65.2552 52.919 65.3848 53.5655C65.5144 54.2119 65.8327 54.8055 66.2995 55.2711C66.7662 55.7368 67.3605 56.0536 68.0073 56.1817C68.654 56.3097 69.3242 56.2432 69.9332 55.9906C70.5422 55.7379 71.0626 55.3104 71.4287 54.7621C71.7948 54.2138 71.9903 53.5693 71.9903 52.91C71.9882 52.0247 71.635 51.1764 71.0083 50.5511C70.3815 49.9258 69.5324 49.5747 68.6471 49.5747Z" fill="#F0F0F0"/>
<path d="M55.2583 57.1288C54.4243 57.1272 53.6094 56.8784 52.9167 56.4139C52.2239 55.9494 51.6844 55.2899 51.3663 54.5189C51.0483 53.7479 50.9658 52.8999 51.1295 52.082C51.2932 51.2642 51.6956 50.5132 52.286 49.924C52.8763 49.3348 53.628 48.9338 54.4462 48.7716C55.2643 48.6095 56.1122 48.6935 56.8826 49.0131C57.653 49.3326 58.3114 49.8733 58.7746 50.5669C59.2379 51.2605 59.4851 52.0759 59.4851 52.91C59.4851 53.4646 59.3757 54.0139 59.1632 54.5263C58.9507 55.0386 58.6392 55.5041 58.2466 55.8959C57.854 56.2878 57.388 56.5984 56.8752 56.8099C56.3625 57.0215 55.813 57.1298 55.2583 57.1288ZM55.2583 49.5747C54.5987 49.5747 53.9538 49.7703 53.4054 50.1368C52.8569 50.5033 52.4294 51.0242 52.177 51.6336C51.9245 52.2431 51.8585 52.9137 51.9872 53.5606C52.1159 54.2076 52.4335 54.8019 52.9 55.2683C53.3664 55.7348 53.9607 56.0524 54.6077 56.1811C55.2546 56.3098 55.9252 56.2438 56.5347 55.9913C57.1441 55.7389 57.665 55.3114 58.0315 54.7629C58.398 54.2144 58.5936 53.5696 58.5936 52.91C58.5915 52.026 58.2394 51.1789 57.6144 50.5539C56.9894 49.9289 56.1422 49.5768 55.2583 49.5747Z" fill="#F0F0F0"/>
<path d="M269.685 216.95H46.6297C45.3052 216.946 44.0361 216.417 43.0996 215.481C42.163 214.544 41.635 213.275 41.6308 211.951V63.457H274.684V211.951C274.679 213.275 274.151 214.544 273.215 215.481C272.278 216.417 271.009 216.946 269.685 216.95Z" fill="#407BFF"/>
<path d="M273.267 67.7316H43.0477V199.334H273.267V67.7316Z" fill="white"/>
<path d="M145.055 79.0109H57.3598C55.6848 79.0109 54.327 80.3687 54.327 82.0436V93.7528C54.327 95.4277 55.6848 96.7855 57.3598 96.7855H145.055C146.73 96.7855 148.088 95.4277 148.088 93.7528V82.0436C148.088 80.3687 146.73 79.0109 145.055 79.0109Z" fill="#407BFF"/>
<path d="M258.955 79.8069C259.548 79.8069 260.117 80.0425 260.536 80.462C260.956 80.8815 261.191 81.4504 261.191 82.0436V93.7528C261.191 94.346 260.956 94.9149 260.536 95.3344C260.117 95.7539 259.548 95.9895 258.955 95.9895H171.259C170.666 95.9895 170.097 95.7539 169.678 95.3344C169.258 94.9149 169.023 94.346 169.023 93.7528V82.0436C169.023 81.4504 169.258 80.8815 169.678 80.462C170.097 80.0425 170.666 79.8069 171.259 79.8069H258.955ZM258.955 79.0109H171.259C170.456 79.013 169.686 79.3332 169.117 79.9015C168.549 80.4698 168.229 81.2399 168.227 82.0436V93.7528C168.227 94.5571 168.546 95.3285 169.115 95.8973C169.684 96.466 170.455 96.7855 171.259 96.7855H258.955C259.759 96.7855 260.53 96.466 261.099 95.8973C261.668 95.3285 261.987 94.5571 261.987 93.7528V82.0436C261.985 81.2399 261.665 80.4698 261.097 79.9015C260.529 79.3332 259.758 79.013 258.955 79.0109Z" fill="#407BFF"/>
<path d="M69.9127 104.746C72.8378 104.746 75.6972 105.613 78.1294 107.238C80.5615 108.863 82.4571 111.173 83.5765 113.875C84.6959 116.578 84.9888 119.552 84.4182 122.421C83.8475 125.29 82.4389 127.925 80.3705 129.993C78.3022 132.062 75.6669 133.47 72.798 134.041C69.9291 134.611 66.9553 134.319 64.2529 133.199C61.5504 132.08 59.2406 130.184 57.6155 127.752C55.9904 125.32 55.123 122.46 55.123 119.535C55.1272 115.614 56.6867 111.855 59.4594 109.082C62.2321 106.309 65.9915 104.75 69.9127 104.746ZM69.9127 103.95C66.8301 103.95 63.8168 104.864 61.2537 106.576C58.6907 108.289 56.693 110.723 55.5134 113.571C54.3337 116.419 54.0251 119.553 54.6264 122.576C55.2278 125.599 56.7122 128.376 58.8919 130.556C61.0716 132.736 63.8487 134.22 66.872 134.821C69.8954 135.423 73.0291 135.114 75.877 133.935C78.7249 132.755 81.1591 130.757 82.8717 128.194C84.5843 125.631 85.4983 122.618 85.4983 119.535C85.4983 115.402 83.8563 111.437 80.9334 108.515C78.0105 105.592 74.0462 103.95 69.9127 103.95Z" fill="#407BFF"/>
<path opacity="0.4" d="M81.192 125.664C80.0877 127.7 78.4543 129.4 76.4641 130.585C74.474 131.769 72.2009 132.395 69.8848 132.395C67.5688 132.395 65.2957 131.769 63.3055 130.585C61.3153 129.4 59.6819 127.7 58.5776 125.664C61.9242 123.427 65.8593 122.233 69.8848 122.233C73.9103 122.233 77.8454 123.427 81.192 125.664Z" fill="#407BFF"/>
<path opacity="0.4" d="M69.9127 120.864C73.0779 120.864 75.6439 118.299 75.6439 115.133C75.6439 111.968 73.0779 109.402 69.9127 109.402C66.7474 109.402 64.1815 111.968 64.1815 115.133C64.1815 118.299 66.7474 120.864 69.9127 120.864Z" fill="#407BFF"/>
<path opacity="0.4" d="M253.972 127.551H102.27C100.144 127.551 98.1053 126.706 96.6021 125.203C95.0988 123.7 94.2543 121.661 94.2543 119.535C94.2543 118.483 94.4617 117.441 94.8646 116.469C95.2676 115.497 95.8581 114.614 96.6026 113.87C97.347 113.126 98.2307 112.537 99.2032 112.135C100.176 111.733 101.218 111.526 102.27 111.527H253.972C255.024 111.526 256.066 111.733 257.039 112.135C258.011 112.537 258.895 113.126 259.639 113.87C260.384 114.614 260.974 115.497 261.377 116.469C261.78 117.441 261.987 118.483 261.987 119.535C261.987 121.661 261.143 123.7 259.64 125.203C258.136 126.706 256.098 127.551 253.972 127.551Z" fill="#407BFF"/>
<path d="M69.9127 147.244C72.8378 147.244 75.6972 148.111 78.1294 149.737C80.5615 151.362 82.4571 153.671 83.5765 156.374C84.6959 159.076 84.9888 162.05 84.4182 164.919C83.8475 167.788 82.4389 170.423 80.3705 172.492C78.3022 174.56 75.6669 175.969 72.798 176.539C69.9291 177.11 66.9553 176.817 64.2529 175.698C61.5504 174.578 59.2406 172.683 57.6155 170.25C55.9904 167.818 55.123 164.959 55.123 162.034C55.1251 158.112 56.684 154.351 59.4571 151.578C62.2302 148.805 65.9908 147.246 69.9127 147.244ZM69.9127 146.448C66.8301 146.448 63.8168 147.362 61.2537 149.075C58.6907 150.787 56.693 153.221 55.5134 156.069C54.3337 158.917 54.0251 162.051 54.6264 165.074C55.2278 168.098 56.7122 170.875 58.8919 173.054C61.0716 175.234 63.8487 176.719 66.872 177.32C69.8954 177.921 73.0291 177.613 75.877 176.433C78.7249 175.253 81.1591 173.256 82.8717 170.693C84.5843 168.13 85.4983 165.116 85.4983 162.034C85.4983 157.9 83.8563 153.936 80.9334 151.013C78.0105 148.09 74.0462 146.448 69.9127 146.448Z" fill="#407BFF"/>
<path opacity="0.4" d="M81.192 168.115C80.0877 170.151 78.4543 171.851 76.4641 173.035C74.474 174.22 72.2009 174.845 69.8848 174.845C67.5688 174.845 65.2957 174.22 63.3055 173.035C61.3153 171.851 59.6819 170.151 58.5776 168.115C61.9262 165.883 65.8605 164.692 69.8848 164.692C73.9092 164.692 77.8435 165.883 81.192 168.115Z" fill="#407BFF"/>
<path opacity="0.4" d="M69.9127 163.323C73.0779 163.323 75.6439 160.757 75.6439 157.592C75.6439 154.427 73.0779 151.861 69.9127 151.861C66.7474 151.861 64.1815 154.427 64.1815 157.592C64.1815 160.757 66.7474 163.323 69.9127 163.323Z" fill="#407BFF"/>
<path opacity="0.4" d="M102.27 153.978H253.972C256.098 153.978 258.136 154.823 259.64 156.326C261.143 157.829 261.987 159.868 261.987 161.994C261.987 164.12 261.143 166.159 259.64 167.662C258.136 169.165 256.098 170.01 253.972 170.01H102.27C100.144 170.01 98.1053 169.165 96.6021 167.662C95.0988 166.159 94.2543 164.12 94.2543 161.994C94.2543 159.87 95.098 157.833 96.5997 156.332C98.1015 154.83 100.138 153.986 102.262 153.986L102.27 153.978Z" fill="#407BFF"/>
<path opacity="0.1" d="M216.608 169.771C216.607 174.64 217.084 179.498 218.032 184.274C213.581 186.918 209.892 190.672 207.326 195.169C204.76 199.666 203.405 204.751 203.394 209.929C203.378 212.293 203.645 214.65 204.19 216.95H269.685C271.009 216.945 272.278 216.417 273.215 215.481C274.151 214.544 274.679 213.275 274.684 211.951V97.3268C258.214 101.01 243.49 110.191 232.934 123.358C222.378 136.526 216.62 152.895 216.608 169.771Z" fill="black"/>
<path d="M337.61 219.725C363.47 193.865 363.47 151.937 337.61 126.077C311.75 100.217 269.822 100.217 243.962 126.077C218.102 151.937 218.102 193.865 243.962 219.725C269.822 245.585 311.75 245.585 337.61 219.725Z" fill="#407BFF"/>
<path d="M333.782 215.506C357.357 191.93 357.357 153.707 333.782 130.132C310.206 106.556 271.983 106.556 248.408 130.132C224.832 153.707 224.832 191.93 248.408 215.506C271.983 239.081 310.206 239.081 333.782 215.506Z" fill="white"/>
<path d="M270.728 132.319L266.875 137.254C266.875 137.254 263.492 139.817 262.21 142.03C260.714 143.511 259.345 145.031 257.992 146.631C256.441 148.46 254.995 150.377 253.661 152.37C252.201 154.502 250.993 156.797 250.063 159.208C249.474 160.734 249.149 162.349 249.1 163.984C249.079 165.14 249.285 166.289 249.705 167.367C250.233 168.687 251.104 169.841 252.229 170.71L253.072 171.347L254.338 171.586C256.837 172.06 259.373 172.311 261.916 172.334L262.919 172.246L261.884 162.153C261.032 162.153 259.201 162.32 258.366 162.304C258.366 162.145 258.429 161.986 258.469 161.827C258.973 159.906 259.667 158.039 260.539 156.255C261.43 154.32 262.457 152.386 263.524 150.46C264.463 148.756 265.474 147.045 266.453 145.373L271.229 142.364L274.023 137.405L270.728 132.319ZM258.302 163.761C258.295 163.684 258.295 163.607 258.302 163.53C258.336 163.587 258.36 163.649 258.374 163.713C258.398 163.904 258.342 163.912 258.302 163.761Z" fill="#7F3E3B"/>
<path d="M297.855 142.985C297.975 142.373 293.788 140.271 290.906 141.983C288.415 143.463 288.096 145.485 289.004 147.897C289.004 148.064 289.067 148.231 289.091 148.398C289.147 148.788 289.195 149.194 289.219 149.56C289.402 152.1 288.733 154.464 285.876 155.809C285.876 155.968 285.485 156.135 285.358 156.247C284.3 157.178 283.625 158.468 283.464 159.869C283.464 160.903 284.443 161.723 285.581 162.71L287.173 163.785L289.354 163.578C296.048 161.612 299.177 155.499 299.033 155.045C297.314 152.211 297.338 147.244 297.855 142.985Z" fill="#7F3E3B"/>
<path d="M312.326 157.489L311.117 157.282C309.525 157.027 302.424 155.419 298.993 155.116C298.197 156.812 295.587 160.951 288.892 162.917L287.237 163.307L285.645 162.511C285.153 162.156 284.743 161.7 284.443 161.172C284.144 160.645 283.962 160.059 283.909 159.455C283.964 158.833 284.146 158.229 284.444 157.681C284.743 157.134 285.152 156.653 285.645 156.271C285.703 156.22 285.749 156.158 285.78 156.088C285.78 155.897 285.78 155.769 285.78 155.753C285.278 155.817 278.926 156.78 278.393 156.868C272.405 157.974 266.526 159.607 260.825 161.747L260.889 162.32L262.043 172.342L262.473 176.139C262.473 176.139 265.657 175.781 269.836 175.048C268.698 185.189 268.475 199.883 271.953 218.773L285.541 218.518L309.15 218.08C309.246 216.488 309.071 213.193 308.904 208.687L308.689 201.73C308.561 195.585 308.585 188.198 309.135 180.302C309.222 179.052 309.326 177.794 309.437 176.521C314.261 181.735 319.092 186.718 319.092 186.718L321.377 184.521C324.298 183.112 326.599 180.588 328.605 177.556L331.287 174.969C331.287 174.969 318.854 158.587 312.326 157.489Z" fill="#407BFF"/>
<path opacity="0.3" d="M305.791 172.429C305.973 174.087 306.502 175.687 307.344 177.126L309.174 180.262C309.262 179.012 309.365 177.755 309.477 176.481C308.219 175.104 306.962 173.743 305.791 172.429Z" fill="black"/>
<path opacity="0.3" d="M309.485 176.489C309.373 177.763 309.27 179.02 309.182 180.27C309.262 179.02 309.373 177.755 309.485 176.489Z" fill="black"/>
<path d="M289.004 147.897C289.004 148.064 289.059 148.231 289.091 148.398C289.091 148.231 289.036 148.064 289.004 147.897Z" fill="#7F3E3B"/>
<path opacity="0.2" d="M289.219 149.56C289.219 149.178 289.147 148.764 289.091 148.398C289.147 148.788 289.195 149.178 289.219 149.56Z" fill="black"/>
<path d="M294.17 146.01C294.011 146.122 293.859 146.241 293.692 146.353C292.3 147.285 290.678 147.819 289.004 147.897C289.004 148.064 289.059 148.231 289.091 148.398C289.147 148.788 289.195 149.194 289.219 149.56C289.219 149.56 289.219 149.608 289.219 149.632C291.284 149.128 293.064 147.826 294.17 146.01Z" fill="#7F3E3B"/>
<path d="M303.109 156.326C303.038 155.999 302.877 155.699 302.643 155.459C302.41 155.22 302.113 155.051 301.787 154.973L300.132 154.575C299.925 154.526 299.708 154.546 299.513 154.63C299.318 154.715 299.155 154.86 299.049 155.045L298.993 155.116C298.197 156.812 295.587 160.951 288.892 162.917L288.375 163.037L287.237 163.307L285.645 162.511C285.153 162.156 284.743 161.7 284.443 161.172C284.144 160.645 283.962 160.059 283.909 159.455C283.964 158.833 284.146 158.229 284.444 157.681C284.743 157.133 285.152 156.653 285.645 156.271C285.732 156.181 285.809 156.082 285.875 155.976C285.947 155.793 285.931 155.705 285.804 155.626C284.045 154.36 280.112 156.31 279.953 156.645C279.786 156.812 279.619 156.987 279.452 157.186C278.961 157.764 278.594 158.437 278.375 159.163C278.156 159.889 278.089 160.652 278.178 161.405C278.344 162.671 278.793 163.884 279.492 164.953C280.19 166.023 281.121 166.921 282.214 167.582C282.25 167.593 282.289 167.593 282.325 167.582C282.367 167.594 282.411 167.594 282.453 167.582C282.487 167.558 282.515 167.525 282.535 167.488C282.554 167.451 282.564 167.409 282.564 167.367C282.567 166.426 282.849 165.507 283.373 164.725C283.897 163.943 284.64 163.334 285.509 162.973L286.902 163.721C280.916 188.286 284.976 217.73 285.087 218.526H285.549C285.549 218.223 281.33 188.525 287.364 163.825L288.821 163.474C290.516 165.544 289.712 168.617 289.704 168.648C289.693 168.691 289.694 168.736 289.706 168.778C289.719 168.82 289.743 168.858 289.776 168.887C289.821 168.924 289.877 168.944 289.935 168.943C289.964 168.951 289.994 168.951 290.023 168.943C290.341 168.8 297.871 165.504 300.506 162.36C301.75 160.857 302.627 159.086 303.069 157.186C303.156 156.908 303.17 156.612 303.109 156.326Z" fill="white"/>
<path opacity="0.2" d="M294.17 146.01C294.011 146.122 293.859 146.241 293.692 146.353C292.3 147.285 290.678 147.819 289.004 147.897C289.004 148.064 289.059 148.231 289.091 148.398C289.147 148.788 289.195 149.194 289.219 149.56C289.219 149.56 289.219 149.608 289.219 149.632C291.284 149.128 293.064 147.826 294.17 146.01Z" fill="black"/>
<path d="M284.339 128.434C287.452 124.454 285.478 122.066 284.156 122.289C282.906 122.878 281.72 124.542 281.107 128.267C280.96 129.146 280.939 130.041 281.044 130.926C282.325 130.862 284.339 128.434 284.339 128.434Z" fill="#263238"/>
<path d="M297.386 137.214C306.006 122.051 288.98 120.283 285.509 123.682C284.339 124.769 283.352 126.037 282.588 127.44L281.864 128.864C281.564 129.538 281.298 130.226 281.068 130.926C280.192 133.443 279.735 136.086 279.714 138.751C279.709 139.967 279.947 141.173 280.415 142.296C280.883 143.419 281.572 144.437 282.44 145.29C283.308 146.143 284.339 146.813 285.47 147.26C286.601 147.708 287.811 147.924 289.028 147.897C290.702 147.819 292.323 147.285 293.716 146.352C293.883 146.241 294.034 146.122 294.194 146.01C295.331 145.2 296.301 144.178 297.051 143.001C298.818 140.144 298.357 138.703 297.386 137.214Z" fill="#7F3E3B"/>
<path d="M281.426 128.395C281.373 128.464 281.35 128.551 281.36 128.637C281.371 128.723 281.414 128.802 281.482 128.856C281.541 128.902 281.614 128.927 281.689 128.928C281.752 128.926 281.814 128.904 281.864 128.864C281.895 128.85 281.923 128.828 281.943 128.801C282.198 128.465 282.526 128.192 282.903 128.003C283.28 127.814 283.695 127.714 284.116 127.71C284.204 127.715 284.289 127.685 284.355 127.626C284.42 127.568 284.46 127.487 284.467 127.4C284.47 127.357 284.465 127.314 284.451 127.273C284.438 127.232 284.416 127.194 284.388 127.162C284.36 127.129 284.326 127.103 284.287 127.083C284.249 127.064 284.207 127.053 284.164 127.05C283.609 127.046 283.062 127.18 282.572 127.44C282.128 127.676 281.738 128.001 281.426 128.395Z" fill="#263238"/>
<path d="M290.039 137.931C290.007 137.901 289.966 137.885 289.923 137.885C289.88 137.885 289.839 137.901 289.808 137.931C289.263 138.387 288.621 138.713 287.932 138.884C287.242 139.055 286.523 139.067 285.828 138.918C285.786 138.911 285.742 138.92 285.707 138.944C285.671 138.967 285.646 139.004 285.637 139.045C285.629 139.088 285.638 139.133 285.662 139.169C285.685 139.206 285.722 139.233 285.764 139.244C286.144 139.32 286.531 139.354 286.918 139.348C288.058 139.337 289.156 138.919 290.015 138.17C290.032 138.156 290.047 138.138 290.058 138.119C290.068 138.099 290.075 138.077 290.077 138.055C290.079 138.033 290.077 138.01 290.071 137.989C290.064 137.968 290.053 137.948 290.039 137.931Z" fill="#263238"/>
<path d="M285.764 132.247C284.71 133.79 283.455 135.185 282.031 136.395C282.827 137.493 284.546 137.413 284.546 137.413L285.764 132.247Z" fill="#630F0F"/>
<path d="M282.946 132.438C283.304 132.51 283.742 132.128 283.83 131.579C283.917 131.029 283.774 130.536 283.416 130.464C283.058 130.393 282.66 130.775 282.532 131.324C282.405 131.873 282.58 132.367 282.946 132.438Z" fill="#263238"/>
<path d="M289.171 133.712C289.529 133.784 289.919 133.402 290.054 132.852C290.19 132.303 289.991 131.81 289.633 131.738C289.274 131.666 288.876 132.048 288.749 132.598C288.622 133.147 288.805 133.608 289.171 133.712Z" fill="#263238"/>
<path d="M302.838 125.036C306.205 122.154 298.532 116.28 298.532 116.28C298.532 116.28 299.392 118.381 297.608 118.962C295.825 119.543 283.28 114.863 283.464 120.172C283.498 120.92 283.737 121.645 284.156 122.266C284.529 122.8 284.986 123.27 285.509 123.659C288.423 125.871 293.724 126.548 296.59 126.548C296.135 127.657 295.817 128.817 295.642 130.003C295.423 131.252 295.464 132.534 295.764 133.767C296.064 135 296.616 136.158 297.386 137.167C298.978 139.937 301.103 139.857 302.918 137.748C305.831 134.994 308.641 129.414 302.838 125.036Z" fill="#263238"/>
<path d="M301.374 136.156C300.052 135.615 298.564 136.251 297.394 137.214C296.752 137.725 296.195 138.335 295.746 139.021C294.623 140.781 295.021 142.826 297.035 143.001H297.386H297.863C299.449 142.84 300.93 142.137 302.058 141.011C302.476 140.608 302.778 140.099 302.93 139.539C303.083 138.978 303.081 138.387 302.926 137.827C302.812 137.449 302.613 137.101 302.344 136.811C302.075 136.521 301.743 136.297 301.374 136.156Z" fill="#7F3E3B"/>
<path d="M271.993 218.733C271.993 218.733 271.778 220.595 271.444 223.724C283.634 227.846 296.822 227.969 309.087 224.074C309.166 220.293 309.222 218.032 309.222 218.032L285.581 218.478H285.119L271.993 218.733Z" fill="#263238"/>
<path d="M333.524 186.678C333.456 186 333.301 185.334 333.062 184.696C332.948 184.379 332.813 184.071 332.656 183.772L332.426 183.343L332.298 183.12C331.16 181.162 329.91 179.307 328.637 177.548L321.409 184.513C322.364 185.707 323.295 186.901 324.155 188.127C323.996 188.533 323.79 188.921 323.542 189.281C322.385 190.888 321.05 192.359 319.562 193.667C316.445 196.475 313.179 199.113 309.779 201.571L308.673 201.714L304.231 202.319L299.861 205.272L302.735 211.115L306.349 209.268C307.212 209.15 308.062 208.95 308.888 208.671C310.165 208.338 311.277 207.552 312.016 206.458C314.13 205.621 316.2 204.675 318.217 203.625C320.385 202.506 322.485 201.259 324.505 199.891C325.53 199.191 326.543 198.424 327.546 197.591C328.611 196.717 329.597 195.75 330.491 194.702C331.637 193.407 332.518 191.901 333.086 190.268C333.487 189.116 333.636 187.892 333.524 186.678ZM324.219 187.936C324.219 187.896 324.219 187.848 324.219 187.816C324.219 187.625 324.29 187.553 324.29 187.665C324.287 187.758 324.268 187.849 324.235 187.936H324.219Z" fill="#7F3E3B"/>
<path d="M254.787 210.211C256.72 198.299 248.631 187.076 236.72 185.142C224.808 183.209 213.585 191.298 211.651 203.209C209.717 215.121 217.806 226.345 229.718 228.278C241.63 230.212 252.853 222.123 254.787 210.211Z" fill="#263238"/>
<path d="M245.216 204.652H235.25V194.686C235.25 194.143 235.034 193.623 234.651 193.239C234.267 192.855 233.747 192.64 233.204 192.64C232.662 192.64 232.141 192.855 231.758 193.239C231.374 193.623 231.158 194.143 231.158 194.686V204.652H221.193C220.65 204.652 220.13 204.867 219.746 205.251C219.362 205.634 219.147 206.155 219.147 206.697C219.147 207.24 219.362 207.76 219.746 208.144C220.13 208.527 220.65 208.743 221.193 208.743H231.158V218.709C231.158 218.978 231.211 219.244 231.314 219.492C231.417 219.74 231.568 219.965 231.758 220.155C231.948 220.345 232.173 220.496 232.421 220.599C232.669 220.702 232.936 220.755 233.204 220.755C233.473 220.755 233.739 220.702 233.987 220.599C234.235 220.496 234.461 220.345 234.651 220.155C234.841 219.965 234.991 219.74 235.094 219.492C235.197 219.244 235.25 218.978 235.25 218.709V208.743H245.216C245.758 208.743 246.279 208.527 246.662 208.144C247.046 207.76 247.262 207.24 247.262 206.697C247.262 206.155 247.046 205.634 246.662 205.251C246.279 204.867 245.758 204.652 245.216 204.652Z" fill="white"/>
<path d="M290.357 129.541C290.757 129.622 291.131 129.799 291.447 130.057C291.763 130.315 292.012 130.646 292.172 131.021C292.199 131.079 292.242 131.127 292.295 131.161C292.349 131.195 292.411 131.213 292.474 131.213C292.519 131.224 292.565 131.224 292.61 131.213C292.649 131.195 292.685 131.169 292.714 131.137C292.743 131.105 292.766 131.068 292.781 131.027C292.796 130.986 292.802 130.943 292.8 130.9C292.798 130.856 292.787 130.814 292.769 130.775C292.562 130.3 292.242 129.883 291.836 129.559C291.431 129.236 290.954 129.017 290.444 128.92C290.358 128.908 290.27 128.932 290.201 128.985C290.131 129.038 290.086 129.116 290.074 129.203C290.063 129.289 290.086 129.377 290.139 129.446C290.192 129.516 290.27 129.561 290.357 129.573V129.541Z" fill="#263238"/>
</svg>
