<svg width="347" height="347" viewBox="0 0 347 347" fill="none" xmlns="http://www.w3.org/2000/svg">
<path d="M331.114 161.168C335.369 123.789 322.731 86.2573 296.206 59.5938C283.152 46.498 265.316 34.124 241.616 28.1556C175.152 11.4163 132.068 26.7676 110.533 67.4776C88.9986 108.188 27.2049 101.185 17.3501 171.418C7.49526 241.651 55.291 318.879 136.281 323.092C217.271 327.304 206.847 287.004 251.152 269.695C285.04 256.468 324.792 216.937 331.114 161.168Z" fill="#407BFF"/>
<path opacity="0.7" d="M331.114 161.168C335.369 123.789 322.731 86.2573 296.206 59.5938C283.152 46.498 265.316 34.124 241.616 28.1556C175.152 11.4163 132.068 26.7676 110.533 67.4776C88.9986 108.188 27.2049 101.185 17.3501 171.418C7.49526 241.651 55.291 318.879 136.281 323.092C217.271 327.304 206.847 287.004 251.152 269.695C285.04 256.468 324.792 216.937 331.114 161.168Z" fill="white"/>
<path d="M5.32996 318.865H335.521" stroke="#263238" stroke-linecap="round" stroke-linejoin="round"/>
<path d="M58.9901 147.919C56.1308 141.673 52.293 140.285 52.293 140.285" stroke="#263238" stroke-linecap="round" stroke-linejoin="round"/>
<path d="M64.1187 141.888L62.5433 147.794" stroke="#263238" stroke-linecap="round" stroke-linejoin="round"/>
<path d="M65.7913 147.884L73.5016 133.033" stroke="#263238" stroke-linecap="round" stroke-linejoin="round"/>
<path d="M60.7319 125.371L62.2726 147.725" stroke="#263238" stroke-linecap="round" stroke-linejoin="round"/>
<path d="M66.2771 155.99V152.777L70.677 147.919H53.0702L57.4702 152.777V155.99C57.4709 158.71 56.911 161.4 55.8256 163.893C54.7402 166.386 53.1526 168.629 51.1617 170.481V190.156H72.5855V170.481C70.5957 168.628 69.0087 166.385 67.9234 163.892C66.838 161.399 66.2776 158.709 66.2771 155.99Z" stroke="#263238" stroke-linecap="round" stroke-linejoin="round"/>
<path d="M55.8809 140.015C61.3288 135.108 57.484 131.256 52.5705 136.704C52.5341 136.743 52.4901 136.774 52.4411 136.796C52.3922 136.817 52.3394 136.828 52.286 136.828C52.2326 136.828 52.1797 136.817 52.1308 136.796C52.0818 136.774 52.0378 136.743 52.0014 136.704C47.0948 131.256 43.2431 135.108 48.691 140.015C48.7321 140.05 48.765 140.093 48.7876 140.142C48.8102 140.192 48.8219 140.245 48.8219 140.299C48.8219 140.353 48.8102 140.407 48.7876 140.456C48.765 140.505 48.7321 140.548 48.691 140.584C43.2431 145.49 47.0948 149.342 52.0014 143.894C52.0366 143.853 52.0803 143.82 52.1294 143.797C52.1785 143.775 52.2319 143.763 52.286 143.763C52.34 143.763 52.3934 143.775 52.4426 143.797C52.4917 143.82 52.5353 143.853 52.5705 143.894C57.484 149.342 61.3288 145.49 55.8809 140.584C55.8418 140.547 55.8106 140.503 55.7893 140.454C55.768 140.405 55.757 140.352 55.757 140.299C55.757 140.246 55.768 140.193 55.7893 140.144C55.8106 140.095 55.8418 140.051 55.8809 140.015Z" fill="#263238"/>
<path d="M54.0558 140.299C54.0558 139.949 53.952 139.607 53.7575 139.316C53.5631 139.025 53.2867 138.798 52.9633 138.664C52.6399 138.53 52.2841 138.495 51.9408 138.563C51.5975 138.632 51.2822 138.8 51.0347 139.048C50.7872 139.295 50.6186 139.611 50.5504 139.954C50.4821 140.297 50.5171 140.653 50.6511 140.976C50.785 141.3 51.0118 141.576 51.3029 141.77C51.5939 141.965 51.936 142.069 52.2861 142.069C52.7554 142.069 53.2055 141.882 53.5374 141.55C53.8693 141.219 54.0558 140.768 54.0558 140.299Z" fill="white" stroke="#263238" stroke-linecap="round" stroke-linejoin="round"/>
<path d="M63.9938 126.912C71.1628 125.357 69.7332 120.104 62.7654 122.394C62.7144 122.411 62.6604 122.416 62.607 122.411C62.5536 122.405 62.5019 122.389 62.4554 122.362C62.4089 122.335 62.3686 122.299 62.3371 122.255C62.3056 122.212 62.2837 122.162 62.2727 122.109C60.7181 114.947 55.4645 116.37 57.7547 123.338C57.7715 123.389 57.7773 123.443 57.7718 123.496C57.7662 123.55 57.7495 123.601 57.7227 123.648C57.6958 123.694 57.6594 123.734 57.6159 123.766C57.5724 123.797 57.5228 123.819 57.4702 123.83C50.3081 125.385 51.7308 130.639 58.6986 128.348C58.7501 128.332 58.8045 128.326 58.8583 128.331C58.9122 128.337 58.9643 128.353 59.0113 128.38C59.0584 128.407 59.0993 128.443 59.1315 128.487C59.1637 128.53 59.1864 128.58 59.1983 128.633C60.7459 135.795 65.9995 134.372 63.7093 127.405C63.6925 127.354 63.6867 127.3 63.6922 127.246C63.6978 127.193 63.7145 127.141 63.7414 127.095C63.7682 127.048 63.8046 127.008 63.8481 126.976C63.8916 126.945 63.9412 126.923 63.9938 126.912Z" fill="#263238"/>
<path d="M62.2657 126.252C62.4411 125.949 62.5224 125.6 62.4993 125.251C62.4762 124.901 62.3498 124.566 62.1362 124.288C61.9225 124.01 61.6311 123.802 61.299 123.69C60.9669 123.578 60.609 123.567 60.2707 123.659C59.9324 123.751 59.629 123.941 59.3988 124.205C59.1687 124.469 59.0222 124.796 58.9779 125.144C58.9337 125.491 58.9936 125.844 59.1502 126.158C59.3068 126.471 59.553 126.731 59.8576 126.905C60.2637 127.136 60.745 127.197 61.1962 127.075C61.6474 126.953 62.0319 126.657 62.2657 126.252Z" fill="white" stroke="#263238" stroke-linecap="round" stroke-linejoin="round"/>
<path d="M75.6461 135.927C82.6902 137.953 83.9186 132.651 76.701 131.367C76.6476 131.36 76.5965 131.34 76.5512 131.311C76.5059 131.282 76.4675 131.243 76.4385 131.198C76.4095 131.152 76.3907 131.101 76.3833 131.048C76.3759 130.994 76.3801 130.94 76.3956 130.888C78.4152 123.837 73.1199 122.609 71.836 129.834C71.8266 129.887 71.806 129.937 71.7757 129.981C71.7453 130.026 71.7059 130.064 71.6601 130.092C71.6142 130.12 71.5629 130.138 71.5095 130.145C71.4561 130.152 71.4018 130.147 71.3502 130.132C64.3061 128.112 63.0778 133.415 70.2954 134.692C70.349 134.7 70.4002 134.72 70.4455 134.75C70.4908 134.78 70.5291 134.819 70.558 134.865C70.5869 134.911 70.6057 134.963 70.6131 135.017C70.6204 135.071 70.6162 135.125 70.6007 135.177C68.5812 142.228 73.8833 143.45 75.1603 136.232C75.1699 136.179 75.1905 136.129 75.2207 136.084C75.251 136.039 75.2902 136.001 75.3359 135.972C75.3816 135.944 75.4328 135.925 75.4862 135.917C75.5396 135.909 75.5941 135.912 75.6461 135.927Z" fill="#263238"/>
<path d="M74.4385 134.532C74.7357 134.347 74.9712 134.077 75.1153 133.758C75.2593 133.439 75.3054 133.084 75.2478 132.739C75.1902 132.393 75.0314 132.073 74.7915 131.818C74.5516 131.563 74.2414 131.385 73.9002 131.306C73.559 131.227 73.2021 131.251 72.8746 131.375C72.5472 131.5 72.264 131.718 72.0608 132.003C71.8577 132.289 71.7437 132.628 71.7333 132.978C71.7229 133.328 71.8167 133.673 72.0026 133.97C72.2527 134.365 72.6488 134.647 73.1049 134.752C73.5611 134.857 74.0403 134.778 74.4385 134.532Z" fill="white" stroke="#263238" stroke-linecap="round" stroke-linejoin="round"/>
<path d="M66.2632 144.789C73.3143 146.809 74.5357 141.507 67.3181 140.23C67.265 140.22 67.2145 140.199 67.1697 140.169C67.125 140.139 67.0871 140.1 67.0583 140.054C67.0296 140.008 67.0107 139.957 67.0029 139.904C66.995 139.85 66.9984 139.796 67.0127 139.744C69.0392 132.693 63.7371 131.471 62.4532 138.689C62.4446 138.742 62.4248 138.792 62.3952 138.836C62.3656 138.881 62.3268 138.919 62.2815 138.947C62.2361 138.975 62.1852 138.993 62.1323 139C62.0793 139.007 62.0254 139.003 61.9743 138.987C54.9233 136.968 53.6949 142.27 60.9194 143.547C60.9719 143.557 61.0217 143.579 61.0656 143.609C61.1095 143.64 61.1467 143.679 61.1747 143.725C61.2027 143.77 61.221 143.821 61.2284 143.874C61.2359 143.927 61.2323 143.981 61.2178 144.033C59.1983 151.084 64.5005 152.305 65.7774 145.088C65.7869 145.035 65.8075 144.984 65.8378 144.94C65.8681 144.895 65.9075 144.858 65.9534 144.829C65.9993 144.801 66.0506 144.783 66.104 144.776C66.1574 144.769 66.2117 144.774 66.2632 144.789Z" fill="#263238"/>
<path d="M65.0556 143.387C65.3527 143.202 65.5883 142.933 65.7323 142.614C65.8764 142.294 65.9225 141.94 65.8649 141.594C65.8072 141.249 65.6484 140.928 65.4085 140.673C65.1686 140.418 64.8585 140.24 64.5172 140.161C64.176 140.082 63.8191 140.107 63.4917 140.231C63.1643 140.355 62.8811 140.574 62.6779 140.859C62.4747 141.144 62.3608 141.483 62.3504 141.833C62.34 142.183 62.4337 142.528 62.6196 142.825C62.8685 143.222 63.2647 143.505 63.7214 143.61C64.178 143.715 64.6579 143.635 65.0556 143.387Z" fill="white" stroke="#263238" stroke-linecap="round" stroke-linejoin="round"/>
<path d="M17.2806 196.166V318.754H21.0699V235.967H98.9297V318.754H102.726V196.166H17.2806Z" stroke="#263238" stroke-linecap="round" stroke-linejoin="round"/>
<path d="M105.544 190.239H14.463V196.166H105.544V190.239Z" stroke="#263238" stroke-linecap="round" stroke-linejoin="round"/>
<path d="M97.8541 203.571H22.6245V229.846H97.8541V203.571Z" stroke="#263238" stroke-linecap="round" stroke-linejoin="round"/>
<path d="M72.1137 213.648H48.358V219.769H72.1137V213.648Z" stroke="#263238" stroke-linecap="round" stroke-linejoin="round"/>
<path d="M94.8143 18.9046H31.5145V93.343H94.8143V18.9046Z" stroke="black" stroke-linecap="round" stroke-linejoin="round"/>
<path d="M92.1354 23.3739H34.1934V88.8806H92.1354V23.3739Z" stroke="black" stroke-linecap="round" stroke-linejoin="round"/>
<path d="M79.7614 37.358H46.5604V74.8965H79.7614V37.358Z" stroke="black" stroke-linecap="round" stroke-linejoin="round"/>
<path d="M161.987 134.9L174.833 139.834" stroke="#263238" stroke-linecap="round" stroke-linejoin="round"/>
<path d="M161.987 179.357L174.833 174.416" stroke="#263238" stroke-linecap="round" stroke-linejoin="round"/>
<path d="M174.833 158.114H165.443" stroke="#263238" stroke-linecap="round" stroke-linejoin="round"/>
<path d="M326.492 134.9L313.646 139.834" stroke="#263238" stroke-linecap="round" stroke-linejoin="round"/>
<path d="M326.492 179.357L313.646 174.416" stroke="#263238" stroke-linecap="round" stroke-linejoin="round"/>
<path d="M313.646 158.114H323.029" stroke="#263238" stroke-linecap="round" stroke-linejoin="round"/>
<path d="M288.517 24.7272H203.536C193.686 24.7272 185.701 32.7126 185.701 42.563V263.012C185.701 272.863 193.686 280.848 203.536 280.848H288.517C298.367 280.848 306.352 272.863 306.352 263.012V42.563C306.352 32.7126 298.367 24.7272 288.517 24.7272Z" fill="#407BFF" stroke="#263238" stroke-linecap="round" stroke-linejoin="round"/>
<path d="M302.147 42.5491V263.026C302.147 264.843 301.789 266.642 301.093 268.321C300.398 269.999 299.378 271.524 298.093 272.809C296.808 274.093 295.283 275.112 293.604 275.807C291.925 276.501 290.125 276.858 288.308 276.857H203.738C203.108 276.859 202.48 276.815 201.857 276.726C198.544 276.274 195.507 274.637 193.309 272.118C191.11 269.6 189.899 266.369 189.899 263.026V42.5491C189.899 38.879 191.357 35.3591 193.952 32.7639C196.548 30.1687 200.067 28.7108 203.738 28.7108H206.194C213.828 28.7108 228.971 28.8496 228.992 28.9259C232.296 28.9259 234.301 29.495 235.8 31.0079C238.188 33.3953 240.978 36.6571 244.621 37.0388C248.431 37.4344 251.457 34.3461 253.935 31.8962C256.711 29.1202 260.444 28.7247 264.206 28.7247H288.308C291.976 28.7247 295.494 30.1807 298.089 32.7729C300.684 35.3651 302.143 38.8814 302.147 42.5491Z" fill="#DBE1EF" stroke="#263238" stroke-linecap="round" stroke-linejoin="round"/>
<path d="M245.308 34.1587C246.654 34.1587 247.744 33.0681 247.744 31.7227C247.744 30.3774 246.654 29.2868 245.308 29.2868C243.963 29.2868 242.872 30.3774 242.872 31.7227C242.872 33.0681 243.963 34.1587 245.308 34.1587Z" fill="#7D7D7D"/>
<path d="M306.311 98.4023V66.5268C306.889 66.5268 307.444 66.7562 307.854 67.1647C308.264 67.5732 308.495 68.1274 308.497 68.706V96.2162C308.498 96.5035 308.442 96.7882 308.332 97.0538C308.223 97.3195 308.062 97.5608 307.859 97.764C307.655 97.9672 307.414 98.1282 307.148 98.2377C306.883 98.3473 306.598 98.4032 306.311 98.4023Z" fill="#407BFF" stroke="#263238" stroke-linecap="round" stroke-linejoin="round"/>
<path d="M306.311 125.878V109.971C306.891 109.971 307.447 110.202 307.857 110.612C308.267 111.021 308.497 111.578 308.497 112.157V123.692C308.497 124.271 308.267 124.827 307.857 125.237C307.447 125.647 306.891 125.878 306.311 125.878Z" fill="#407BFF" stroke="#263238" stroke-linecap="round" stroke-linejoin="round"/>
<path d="M186.686 207.444C186.686 207.444 186.957 208.832 187.22 208.922C187.484 209.012 190.114 208.852 190.184 208.179C190.253 207.506 188.837 207.103 188.837 207.103L186.686 207.444Z" fill="white" stroke="#263238" stroke-linejoin="round"/>
<path d="M290.786 39.9466H280.209C280.134 39.9466 280.062 39.9167 280.008 39.8633C279.955 39.8099 279.925 39.7376 279.925 39.6621V33.8672C279.924 33.8292 279.931 33.7915 279.945 33.7562C279.958 33.7208 279.979 33.6887 280.006 33.6615C280.032 33.6343 280.064 33.6127 280.099 33.598C280.134 33.5833 280.171 33.5757 280.209 33.5757H290.786C290.862 33.5775 290.934 33.609 290.988 33.6635C291.041 33.718 291.071 33.7911 291.071 33.8672V39.6621C291.069 39.737 291.038 39.8084 290.985 39.8613C290.932 39.9143 290.861 39.9449 290.786 39.9466ZM280.501 39.3776H290.501V34.1517H280.494L280.501 39.3776Z" fill="#696969"/>
<path d="M288.454 33.8672H280.209V39.6621H288.454V33.8672Z" fill="#696969"/>
<path d="M288.447 39.9119H280.209C280.143 39.9119 280.08 39.8856 280.033 39.8388C279.986 39.7919 279.96 39.7284 279.96 39.6621V33.8672C279.96 33.8003 279.986 33.736 280.032 33.688C280.079 33.6401 280.143 33.6122 280.209 33.6104H288.447C288.515 33.6104 288.581 33.6375 288.629 33.6856C288.677 33.7338 288.704 33.7991 288.704 33.8672V39.6621C288.704 39.6955 288.697 39.7286 288.684 39.7593C288.671 39.7901 288.652 39.818 288.628 39.8413C288.604 39.8646 288.576 39.8828 288.545 39.895C288.514 39.9071 288.481 39.9129 288.447 39.9119ZM280.459 39.4053H288.197V34.117H280.459V39.4053Z" fill="#696969"/>
<path d="M292.25 35.4842H290.758V38.0381H292.25V35.4842Z" fill="#696969"/>
<path d="M292.243 38.288H290.786C290.753 38.2889 290.719 38.2831 290.688 38.271C290.657 38.2589 290.629 38.2406 290.605 38.2173C290.581 38.194 290.562 38.1662 290.549 38.1354C290.536 38.1046 290.529 38.0715 290.529 38.0381V35.4842C290.529 35.4508 290.536 35.4178 290.549 35.387C290.562 35.3562 290.581 35.3284 290.605 35.3051C290.629 35.2818 290.657 35.2635 290.688 35.2514C290.719 35.2392 290.753 35.2335 290.786 35.2344H292.271C292.338 35.2344 292.401 35.2607 292.448 35.3076C292.495 35.3544 292.521 35.418 292.521 35.4842V38.0381C292.521 38.0734 292.514 38.1083 292.5 38.1406C292.486 38.1729 292.465 38.2018 292.438 38.2254C292.412 38.249 292.381 38.2668 292.348 38.2776C292.314 38.2884 292.279 38.2919 292.243 38.288ZM291.008 37.7883H291.994V35.7063H291.008V37.7883Z" fill="#696969"/>
<path d="M199.178 35.6647H197.242V38.9889H199.178V35.6647Z" fill="#696969"/>
<path d="M199.178 39.2873H197.235C197.154 39.2873 197.076 39.2552 197.019 39.1979C196.962 39.1406 196.929 39.063 196.929 38.982V35.6647C196.929 35.583 196.961 35.5046 197.018 35.4462C197.076 35.3879 197.153 35.3542 197.235 35.3524H199.178C199.26 35.3542 199.337 35.3879 199.394 35.4462C199.451 35.5046 199.483 35.583 199.483 35.6647V38.982C199.483 39.063 199.451 39.1406 199.394 39.1979C199.337 39.2552 199.259 39.2873 199.178 39.2873ZM197.547 38.6766H198.866V35.97H197.547V38.6766Z" fill="#696969"/>
<path d="M202.225 34.4987H200.288V38.9889H202.225V34.4987Z" fill="#696969"/>
<path d="M202.225 39.2873H200.288C200.207 39.2873 200.13 39.2552 200.072 39.1979C200.015 39.1406 199.983 39.063 199.983 38.982V34.4987C199.983 34.4171 200.015 34.3387 200.072 34.2803C200.129 34.2219 200.207 34.1882 200.288 34.1864H202.225C202.307 34.1864 202.387 34.2193 202.445 34.2779C202.504 34.3365 202.537 34.4159 202.537 34.4987V38.982C202.537 39.0227 202.529 39.0629 202.513 39.1005C202.497 39.138 202.474 39.1719 202.445 39.2004C202.416 39.2288 202.381 39.2512 202.344 39.2661C202.306 39.281 202.265 39.2883 202.225 39.2873ZM200.566 38.6766H201.954V34.8041H200.566V38.6766Z" fill="#696969"/>
<path d="M205.271 33.1177H203.335V38.982H205.271V33.1177Z" fill="#696969"/>
<path d="M205.271 39.2873H203.342C203.261 39.2873 203.183 39.2552 203.126 39.1979C203.069 39.1406 203.037 39.063 203.037 38.982V33.1177C203.037 33.0367 203.069 32.959 203.126 32.9018C203.183 32.8445 203.261 32.8123 203.342 32.8123H205.278C205.359 32.8123 205.437 32.8445 205.494 32.9018C205.551 32.959 205.584 33.0367 205.584 33.1177V38.982C205.585 39.0229 205.577 39.0637 205.562 39.1016C205.546 39.1396 205.523 39.174 205.494 39.2026C205.465 39.2313 205.43 39.2536 205.391 39.2681C205.353 39.2827 205.312 39.2893 205.271 39.2873ZM203.64 38.6766H204.966V33.423H203.64V38.6766Z" fill="#696969"/>
<path d="M247.092 245.634C253.753 245.634 259.153 240.234 259.153 233.573C259.153 226.911 253.753 221.511 247.092 221.511C240.43 221.511 235.03 226.911 235.03 233.573C235.03 240.234 240.43 245.634 247.092 245.634Z" fill="#407BFF"/>
<path d="M255.087 231.928C254.191 231.234 252.144 230.234 248.306 230.11H245.454C241.616 230.234 239.569 231.255 238.674 231.928C238.208 232.237 237.838 232.671 237.606 233.18C237.374 233.689 237.289 234.253 237.362 234.808C237.633 235.638 238.111 236.385 238.75 236.98C238.937 237.174 239.132 237.209 239.576 236.98C240.02 236.751 243.046 235.217 243.226 234.898C243.407 234.579 243.157 233.51 243.157 233.51C243.329 233.372 243.548 233.305 243.768 233.323L246.856 233.233L249.951 233.323C250.169 233.305 250.385 233.372 250.555 233.51C250.555 233.51 250.298 234.565 250.492 234.898C250.687 235.231 253.692 236.786 254.136 236.98C254.58 237.174 254.781 237.14 254.969 236.98C255.608 236.385 256.086 235.638 256.357 234.808C256.434 234.257 256.356 233.696 256.131 233.187C255.907 232.679 255.545 232.242 255.087 231.928Z" fill="white"/>
<path d="M247.05 152.458C253.712 152.458 259.112 147.058 259.112 140.396C259.112 133.735 253.712 128.334 247.05 128.334C240.389 128.334 234.988 133.735 234.988 140.396C234.988 147.058 240.389 152.458 247.05 152.458Z" fill="#696969"/>
<path d="M243.039 138.037C243.951 138.037 244.691 137.297 244.691 136.385C244.691 135.473 243.951 134.733 243.039 134.733C242.127 134.733 241.387 135.473 241.387 136.385C241.387 137.297 242.127 138.037 243.039 138.037Z" fill="white"/>
<path d="M247.05 138.037C247.962 138.037 248.702 137.297 248.702 136.385C248.702 135.473 247.962 134.733 247.05 134.733C246.138 134.733 245.398 135.473 245.398 136.385C245.398 137.297 246.138 138.037 247.05 138.037Z" fill="white"/>
<path d="M251.068 138.037C251.981 138.037 252.72 137.297 252.72 136.385C252.72 135.473 251.981 134.733 251.068 134.733C250.156 134.733 249.417 135.473 249.417 136.385C249.417 137.297 250.156 138.037 251.068 138.037Z" fill="white"/>
<path d="M244.691 140.396C244.691 140.07 244.594 139.75 244.412 139.479C244.231 139.207 243.973 138.995 243.671 138.87C243.369 138.745 243.037 138.712 242.717 138.776C242.396 138.84 242.102 138.997 241.871 139.228C241.64 139.459 241.483 139.754 241.419 140.074C241.355 140.394 241.388 140.726 241.513 141.028C241.638 141.33 241.85 141.588 242.121 141.77C242.393 141.951 242.712 142.048 243.039 142.048C243.477 142.048 243.897 141.874 244.207 141.564C244.517 141.254 244.691 140.834 244.691 140.396Z" fill="white"/>
<path d="M248.702 140.396C248.702 140.07 248.605 139.75 248.424 139.479C248.242 139.207 247.984 138.995 247.682 138.87C247.38 138.745 247.048 138.712 246.728 138.776C246.408 138.84 246.113 138.997 245.882 139.228C245.651 139.459 245.494 139.754 245.43 140.074C245.366 140.394 245.399 140.726 245.524 141.028C245.649 141.33 245.861 141.588 246.133 141.77C246.404 141.951 246.723 142.048 247.05 142.048C247.488 142.048 247.908 141.874 248.218 141.564C248.528 141.254 248.702 140.834 248.702 140.396Z" fill="white"/>
<path d="M252.72 140.396C252.72 140.07 252.623 139.75 252.442 139.479C252.26 139.207 252.002 138.995 251.701 138.87C251.399 138.745 251.067 138.712 250.746 138.776C250.426 138.84 250.132 138.997 249.901 139.228C249.67 139.459 249.512 139.754 249.448 140.074C249.385 140.394 249.417 140.726 249.542 141.028C249.667 141.33 249.879 141.588 250.151 141.77C250.422 141.951 250.742 142.048 251.068 142.048C251.506 142.046 251.925 141.871 252.234 141.562C252.544 141.253 252.718 140.834 252.72 140.396Z" fill="white"/>
<path d="M243.039 146.059C243.951 146.059 244.691 145.32 244.691 144.408C244.691 143.495 243.951 142.756 243.039 142.756C242.127 142.756 241.387 143.495 241.387 144.408C241.387 145.32 242.127 146.059 243.039 146.059Z" fill="white"/>
<path d="M247.05 146.059C247.962 146.059 248.702 145.32 248.702 144.408C248.702 143.495 247.962 142.756 247.05 142.756C246.138 142.756 245.398 143.495 245.398 144.408C245.398 145.32 246.138 146.059 247.05 146.059Z" fill="white"/>
<path d="M251.068 146.059C251.981 146.059 252.72 145.32 252.72 144.408C252.72 143.495 251.981 142.756 251.068 142.756C250.156 142.756 249.417 143.495 249.417 144.408C249.417 145.32 250.156 146.059 251.068 146.059Z" fill="white"/>
<path d="M279.717 152.458C286.378 152.458 291.778 147.058 291.778 140.396C291.778 133.735 286.378 128.334 279.717 128.334C273.055 128.334 267.655 133.735 267.655 140.396C267.655 147.058 273.055 152.458 279.717 152.458Z" fill="#696969"/>
<path d="M276.018 138.286H272.444V143.367H276.018L279.404 145.907V135.746L276.018 138.286Z" fill="white"/>
<path d="M284.54 140.736C284.542 141.877 284.174 142.987 283.492 143.901L284.061 144.241C284.816 143.21 285.218 141.962 285.206 140.684C285.195 139.406 284.772 138.166 283.999 137.148L283.43 137.488C284.151 138.417 284.542 139.56 284.54 140.736Z" fill="white"/>
<path d="M287.004 140.736C287.005 142.315 286.52 143.856 285.616 145.15L286.192 145.49C287.161 144.076 287.674 142.399 287.663 140.685C287.652 138.97 287.117 137.301 286.129 135.899L285.56 136.239C286.498 137.551 287.003 139.123 287.004 140.736Z" fill="white"/>
<path d="M281.896 140.736C281.9 141.401 281.652 142.044 281.202 142.534L281.778 142.874C282.304 142.266 282.588 141.486 282.577 140.683C282.565 139.879 282.259 139.108 281.715 138.515L281.139 138.856C281.63 139.358 281.902 140.034 281.896 140.736Z" fill="white"/>
<path d="M279.717 188.081C286.378 188.081 291.778 182.681 291.778 176.019C291.778 169.358 286.378 163.957 279.717 163.957C273.055 163.957 267.655 169.358 267.655 176.019C267.655 182.681 273.055 188.081 279.717 188.081Z" fill="#696969"/>
<path d="M285.047 176.019C285.045 177.075 284.731 178.106 284.143 178.983C283.556 179.86 282.721 180.543 281.746 180.946C280.77 181.348 279.697 181.453 278.662 181.245C277.627 181.038 276.677 180.528 275.931 179.781C275.186 179.034 274.679 178.082 274.474 177.047C274.27 176.011 274.377 174.938 274.782 173.964C275.187 172.989 275.872 172.156 276.751 171.571C277.629 170.986 278.661 170.674 279.717 170.675C280.418 170.675 281.112 170.814 281.76 171.082C282.407 171.351 282.995 171.745 283.49 172.241C283.986 172.738 284.378 173.327 284.645 173.975C284.912 174.624 285.048 175.318 285.047 176.019Z" stroke="white" stroke-miterlimit="10"/>
<path d="M281.424 174.784C281.424 174.451 281.325 174.126 281.14 173.85C280.956 173.574 280.693 173.359 280.386 173.232C280.078 173.105 279.74 173.072 279.414 173.137C279.088 173.203 278.789 173.363 278.555 173.599C278.32 173.834 278.161 174.134 278.096 174.461C278.032 174.787 278.067 175.125 278.195 175.431C278.323 175.738 278.539 176 278.817 176.184C279.094 176.367 279.419 176.465 279.751 176.463C279.972 176.463 280.19 176.42 280.393 176.335C280.597 176.251 280.781 176.127 280.937 175.971C281.092 175.815 281.215 175.63 281.299 175.426C281.382 175.222 281.425 175.004 281.424 174.784Z" fill="white"/>
<path d="M284.047 179.135C283.564 179.806 282.932 180.355 282.2 180.739C281.468 181.123 280.657 181.332 279.831 181.35C279.005 181.367 278.186 181.193 277.439 180.84C276.691 180.487 276.036 179.965 275.525 179.316C276.767 178.327 278.317 177.804 279.904 177.838C281.388 177.816 282.841 178.271 284.047 179.135Z" fill="white"/>
<path d="M247.05 188.081C253.712 188.081 259.112 182.681 259.112 176.019C259.112 169.358 253.712 163.957 247.05 163.957C240.389 163.957 234.988 169.358 234.988 176.019C234.988 182.681 240.389 188.081 247.05 188.081Z" fill="#696969"/>
<path d="M249.042 171.522H241.817C241.285 171.522 240.853 171.954 240.853 172.487V179.295C240.853 179.828 241.285 180.26 241.817 180.26H249.042C249.575 180.26 250.007 179.828 250.007 179.295V172.487C250.007 171.954 249.575 171.522 249.042 171.522Z" fill="white"/>
<path d="M250.631 173.916V177.865L253.754 179.836V171.945L250.631 173.916Z" fill="white"/>
<path d="M214.391 188.081C221.052 188.081 226.452 182.681 226.452 176.019C226.452 169.358 221.052 163.957 214.391 163.957C207.729 163.957 202.329 169.358 202.329 176.019C202.329 182.681 207.729 188.081 214.391 188.081Z" fill="#696969"/>
<path d="M214.391 169.891V182.14" stroke="white" stroke-miterlimit="10"/>
<path d="M220.518 176.019H208.262" stroke="white" stroke-miterlimit="10"/>
<path d="M214.391 152.458C221.052 152.458 226.452 147.058 226.452 140.396C226.452 133.735 221.052 128.334 214.391 128.334C207.729 128.334 202.329 133.735 202.329 140.396C202.329 147.058 207.729 152.458 214.391 152.458Z" fill="#696969"/>
<path d="M214.377 142.686C214.622 142.687 214.865 142.64 215.092 142.546C215.319 142.453 215.525 142.315 215.699 142.142C215.872 141.968 216.01 141.762 216.103 141.535C216.197 141.308 216.244 141.065 216.244 140.82V134.893C216.259 134.638 216.222 134.382 216.135 134.141C216.048 133.901 215.913 133.681 215.738 133.495C215.563 133.309 215.351 133.16 215.117 133.059C214.882 132.957 214.629 132.905 214.373 132.905C214.118 132.905 213.865 132.957 213.63 133.059C213.395 133.16 213.184 133.309 213.008 133.495C212.833 133.681 212.698 133.901 212.611 134.141C212.524 134.382 212.487 134.638 212.503 134.893V140.82C212.503 141.065 212.551 141.309 212.646 141.536C212.74 141.763 212.878 141.969 213.052 142.142C213.226 142.316 213.433 142.453 213.66 142.546C213.887 142.64 214.131 142.687 214.377 142.686Z" fill="white"/>
<path d="M217.694 140.729V137.953C217.694 137.861 217.657 137.773 217.592 137.708C217.527 137.643 217.439 137.606 217.347 137.606C217.255 137.606 217.167 137.643 217.102 137.708C217.037 137.773 217 137.861 217 137.953V140.729C217 141.425 216.724 142.092 216.232 142.584C215.74 143.076 215.072 143.353 214.377 143.353C213.681 143.353 213.014 143.076 212.522 142.584C212.03 142.092 211.753 141.425 211.753 140.729V137.953C211.753 137.861 211.717 137.773 211.652 137.708C211.587 137.643 211.498 137.606 211.406 137.606C211.314 137.606 211.226 137.643 211.161 137.708C211.096 137.773 211.059 137.861 211.059 137.953V140.729C211.06 141.547 211.363 142.335 211.91 142.942C212.457 143.55 213.21 143.933 214.023 144.019V147.086H212.08C211.987 147.086 211.899 147.123 211.834 147.188C211.769 147.253 211.733 147.341 211.733 147.433C211.733 147.525 211.769 147.614 211.834 147.679C211.899 147.744 211.987 147.78 212.08 147.78H216.639C216.731 147.78 216.819 147.744 216.884 147.679C216.95 147.614 216.986 147.525 216.986 147.433C216.986 147.341 216.95 147.253 216.884 147.188C216.819 147.123 216.731 147.086 216.639 147.086H214.703V144.019C215.521 143.94 216.28 143.559 216.833 142.951C217.386 142.343 217.693 141.551 217.694 140.729Z" fill="white"/>
<path d="M209.165 134.886L219.547 145.268" stroke="white" stroke-miterlimit="10"/>
<path d="M235.099 74.0429C234.746 74.0656 234.394 73.9705 234.1 73.7722C233.865 73.6002 233.692 73.3567 233.607 73.0782C233.515 72.7486 233.47 72.4073 233.476 72.0649V69.511C233.467 69.1589 233.514 68.8077 233.614 68.47C233.695 68.1894 233.869 67.9446 234.107 67.776C234.404 67.5908 234.75 67.5012 235.099 67.5193C235.418 67.5029 235.734 67.5801 236.009 67.7413C236.228 67.8971 236.393 68.1181 236.481 68.3729C236.582 68.6865 236.629 69.0151 236.619 69.3445V69.7331H236.05V69.3584C236.053 69.1252 236.03 68.8924 235.981 68.6644C235.948 68.4825 235.852 68.318 235.71 68.1994C235.531 68.0762 235.316 68.0175 235.099 68.0328C234.87 68.0174 234.642 68.0811 234.454 68.2133C234.302 68.3412 234.199 68.5177 234.163 68.7129C234.107 68.9611 234.081 69.2151 234.086 69.4694V72.2038C234.079 72.4704 234.109 72.7368 234.176 72.9949C234.222 73.1857 234.333 73.3548 234.489 73.4738C234.671 73.5885 234.884 73.6442 235.099 73.6334C235.318 73.6482 235.535 73.5842 235.71 73.4529C235.855 73.3283 235.951 73.1561 235.981 72.9672C236.031 72.7276 236.055 72.4832 236.05 72.2384V71.8151H236.654V72.1968C236.659 72.5341 236.617 72.8704 236.529 73.1962C236.458 73.474 236.294 73.7191 236.064 73.8902C235.769 74.0473 235.429 74.1011 235.099 74.0429Z" fill="#407BFF"/>
<path d="M237.216 73.9665L238.569 67.5401H239.208L240.596 73.9665H240.006L239.687 72.2454H238.153L237.834 73.9665H237.216ZM238.216 71.8082H239.604L238.91 68.3382L238.216 71.8082Z" fill="#407BFF"/>
<path d="M241.345 73.9665V67.5401H241.949V73.5154H243.774V73.9665H241.345Z" fill="#407BFF"/>
<path d="M244.378 73.9665V67.5401H244.982V73.5154H246.807V73.9665H244.378Z" fill="#407BFF"/>
<path d="M247.418 73.9665V67.5401H248.022V73.9665H247.418Z" fill="#407BFF"/>
<path d="M249.146 73.9665V67.5401H249.576L251.658 72.5299V67.5401H252.186V73.9665H251.755L249.673 68.9211V73.9665H249.146Z" fill="#407BFF"/>
<path d="M254.733 74.0498C254.397 74.0686 254.065 73.9812 253.782 73.7999C253.552 73.6249 253.382 73.3823 253.296 73.1059C253.194 72.7567 253.145 72.3941 253.15 72.0303V69.5249C253.145 69.1615 253.191 68.7992 253.289 68.4492C253.373 68.17 253.546 67.9261 253.782 67.7552C254.077 67.603 254.404 67.5237 254.736 67.5237C255.068 67.5237 255.395 67.603 255.69 67.7552C255.919 67.9034 256.092 68.123 256.183 68.3798C256.288 68.707 256.337 69.0495 256.329 69.393V69.6151H255.76V69.3306C255.766 69.0736 255.738 68.8169 255.677 68.5672C255.635 68.3872 255.532 68.2275 255.385 68.1161C255.206 68.0008 254.994 67.9472 254.781 67.9634C254.546 67.9462 254.313 68.0126 254.122 68.1508C253.966 68.2873 253.863 68.4738 253.83 68.6782C253.78 68.9295 253.757 69.1854 253.761 69.4416V72.0788C253.756 72.3473 253.784 72.6152 253.844 72.8769C253.885 73.0776 253.996 73.2572 254.157 73.3835C254.343 73.5147 254.568 73.5783 254.795 73.564C255.013 73.5764 255.229 73.5126 255.406 73.3835C255.561 73.2506 255.669 73.0701 255.711 72.87C255.777 72.6069 255.808 72.3361 255.801 72.0649V71.3085H254.851V70.8574H256.357V73.9665H255.968L255.899 73.2725C255.827 73.5036 255.69 73.7087 255.503 73.8624C255.276 74.0135 255.004 74.0798 254.733 74.0498Z" fill="#407BFF"/>
<path d="M257.314 73.9665V73.0921H257.925V73.9665H257.314Z" fill="#407BFF"/>
<path d="M258.751 73.9665V73.0921H259.362V73.9665H258.751Z" fill="#407BFF"/>
<path d="M260.188 73.9665V73.0921H260.798V73.9665H260.188Z" fill="#407BFF"/>
<path d="M216.695 91.2749V79.5949H220.921V80.4415H217.805V84.8276H220.345V85.6396H217.805V90.456H220.949V91.2749H216.695Z" fill="#407BFF"/>
<path d="M222.351 91.2749L222.635 79.5949H223.718L226.043 89.7342L228.395 79.5949H229.485L229.776 91.2749H228.867L228.638 81.9753L226.404 91.2749H225.71L223.468 81.9892L223.232 91.2749H222.351Z" fill="#407BFF"/>
<path d="M231.699 91.2749V79.5949H235.96V80.4415H232.844V84.8276H235.377V85.6396H232.844V90.456H235.96V91.2749H231.699Z" fill="#407BFF"/>
<path d="M237.452 91.2749V79.5949H240.124C240.721 79.5654 241.315 79.6872 241.852 79.9488C242.262 80.1746 242.58 80.535 242.754 80.969C242.946 81.4789 243.037 82.0207 243.025 82.5652C243.027 82.9768 242.978 83.3871 242.879 83.7866C242.799 84.1494 242.632 84.4874 242.393 84.7721C242.134 85.0561 241.787 85.2444 241.408 85.3065L243.198 91.2749H242.13L240.416 85.5355H238.583V91.2749H237.452ZM238.549 84.7305H240.034C240.429 84.7527 240.823 84.6663 241.172 84.4806C241.44 84.3246 241.644 84.0788 241.748 83.7866C241.875 83.4019 241.934 82.9979 241.922 82.5929C241.961 82.0286 241.831 81.4652 241.547 80.9759C241.36 80.7744 241.128 80.6206 240.869 80.5276C240.611 80.4346 240.334 80.4051 240.062 80.4415H238.549V84.7305Z" fill="#407BFF"/>
<path d="M247.467 91.4345C246.857 91.4695 246.251 91.309 245.739 90.9765C245.309 90.6493 244.997 90.1914 244.85 89.6717C244.668 89.0357 244.582 88.3761 244.593 87.7147V83.1551C244.581 82.4963 244.665 81.8393 244.843 81.2049C244.987 80.6896 245.303 80.2391 245.739 79.928C246.283 79.5977 246.914 79.4404 247.55 79.4769C248.13 79.4485 248.707 79.5832 249.215 79.8655C249.633 80.1321 249.947 80.5338 250.104 81.0037C250.298 81.5944 250.39 82.2141 250.374 82.8358V83.28H249.34V82.8705C249.353 82.4031 249.302 81.9361 249.188 81.4825C249.11 81.1557 248.924 80.8647 248.66 80.6567C248.327 80.4539 247.939 80.3593 247.55 80.386C247.123 80.3516 246.698 80.4751 246.356 80.733C246.075 80.9785 245.888 81.3149 245.829 81.6838C245.74 82.1411 245.698 82.6061 245.704 83.0718V87.8812C245.695 88.3714 245.746 88.8609 245.857 89.3386C245.93 89.7025 246.129 90.0291 246.419 90.2616C246.76 90.49 247.168 90.5997 247.578 90.5739C247.964 90.6185 248.353 90.5131 248.664 90.2794C248.976 90.0457 249.185 89.7015 249.25 89.3178C249.368 88.8366 249.422 88.3418 249.41 87.8465V86.4585H247.682V85.6327H250.423V91.2888H249.729L249.597 89.9632C249.477 90.3841 249.235 90.7605 248.903 91.0459C248.485 91.3411 247.976 91.4788 247.467 91.4345Z" fill="#407BFF"/>
<path d="M252.311 91.2749V79.5949H256.537V80.4415H253.421V84.8276H255.961V85.6396H253.421V90.456H256.565V91.2749H252.311Z" fill="#407BFF"/>
<path d="M258.064 91.2749V79.5949H258.862L262.582 88.6654V79.5949H263.533V91.2749H262.755L259.001 82.1002V91.2749H258.064Z" fill="#407BFF"/>
<path d="M268.28 91.4206C267.633 91.4637 266.991 91.2904 266.454 90.9279C266.022 90.5972 265.71 90.134 265.566 89.6093C265.399 89.0108 265.317 88.3916 265.323 87.7702V83.1273C265.312 82.4846 265.396 81.8438 265.573 81.2258C265.72 80.7061 266.038 80.2512 266.475 79.9349C267.015 79.6007 267.645 79.4408 268.28 79.4769C268.858 79.4435 269.433 79.5837 269.931 79.8794C270.337 80.1556 270.639 80.5582 270.792 81.0245C270.975 81.5961 271.062 82.1941 271.049 82.7942V83.4882H270.015V82.7942C270.021 82.3537 269.979 81.9139 269.89 81.4825C269.825 81.1495 269.649 80.8484 269.39 80.6289C269.065 80.4061 268.673 80.3009 268.28 80.3305C267.863 80.2977 267.447 80.4132 267.107 80.6567C266.827 80.8903 266.638 81.2144 266.572 81.5728C266.47 82.028 266.423 82.4942 266.434 82.9608V87.9367C266.422 88.4233 266.479 88.909 266.6 89.3803C266.685 89.7258 266.886 90.0319 267.169 90.2478C267.502 90.4537 267.889 90.553 268.28 90.5323C268.675 90.5613 269.068 90.4508 269.39 90.22C269.651 89.9878 269.827 89.6752 269.89 89.3317C269.979 88.8909 270.021 88.4419 270.015 87.9923V87.2289H271.049V87.9229C271.06 88.5373 270.98 89.1499 270.813 89.7411C270.676 90.2378 270.378 90.6749 269.966 90.9834C269.464 91.3032 268.874 91.4562 268.28 91.4206Z" fill="#407BFF"/>
<path d="M274.63 91.2749V87.3954L271.986 79.5949H273.054L275.136 86.0838L277.156 79.5949H278.294L275.719 87.3954V91.2749H274.63Z" fill="#407BFF"/>
<path d="M153.575 306.054C153.575 306.054 156.053 302.584 157.739 302.05C159.426 301.515 162.66 304.361 162.944 304.826C163.229 305.291 168.073 307.893 170.328 308.781C172.584 309.67 175.186 314.278 175.832 315.555C176.477 316.832 176.102 318.13 174.541 318.261C172.979 318.393 167.122 315.957 164.221 314.889C161.32 313.82 158.093 312.945 158.093 312.945C158.093 312.945 153.235 309.267 153.117 308.781C152.999 308.296 153.575 306.054 153.575 306.054Z" fill="white" stroke="#263238" stroke-linecap="round" stroke-linejoin="round"/>
<path d="M109.055 320.989C109.055 320.989 117.758 320.052 121.506 318.171C125.253 316.29 155.623 313.313 155.623 313.313L153.083 306.616C153.083 306.616 131.277 308.296 125.788 307.629C120.298 306.963 117.89 306.554 117.224 306.554C116.557 306.554 114.815 313.251 113.344 315.256C111.873 317.262 108.118 319.004 108.118 319.004C108.118 319.004 106.779 320.718 109.055 320.989Z" fill="white" stroke="#263238" stroke-linecap="round" stroke-linejoin="round"/>
<path d="M179.496 309.593C179.496 309.593 181.974 306.123 183.66 305.589C185.347 305.055 188.581 307.907 188.858 308.4C189.136 308.892 193.994 311.46 196.249 312.355C198.505 313.251 201.107 317.845 201.753 319.129C202.398 320.413 202.023 321.697 200.462 321.829C198.9 321.96 193.043 319.524 190.142 318.456C187.241 317.387 184.014 316.513 184.014 316.513C184.014 316.513 179.191 312.834 179.038 312.349C178.885 311.863 179.496 309.593 179.496 309.593Z" fill="#263238" stroke="#263238" stroke-linecap="round" stroke-linejoin="round"/>
<path d="M137.648 320.996C140.647 321.291 143.666 321.322 146.67 321.086C151.903 320.711 166.574 318.414 168.267 318.31C169.961 318.206 182.883 316.603 182.883 316.603C182.883 316.603 184.465 316.894 183.646 314.313C182.827 311.731 179.524 309.58 179.524 309.58C179.524 309.58 170.731 309.267 167.802 309.302C164.873 309.337 146.559 307.72 146.559 307.72C146.559 307.72 136.322 314.667 137.648 320.996Z" fill="#263238" stroke="#263238" stroke-linecap="round" stroke-linejoin="round"/>
<path d="M104.669 252.491C103.48 257.633 102.666 262.854 102.233 268.113C101.831 275.053 98.4855 312.821 99.4224 314.826C100.359 316.832 103.704 321.766 107.986 320.989C112.268 320.212 114.545 317.776 115.218 316.7C115.891 315.624 125.524 276.143 125.524 276.143C125.524 276.143 127.8 284.471 127.8 286.448C127.8 288.426 125.767 317.54 127.391 318.969C131.638 322.717 136.503 321.787 137.169 321.787C137.835 321.787 142.256 320.718 143.061 319.781C143.866 318.844 149.751 297.428 150.82 289.662C151.889 281.896 156.58 260.479 154.838 253.518C153.096 246.557 147.746 240.124 147.746 240.124C147.746 240.124 143.582 243.74 131.68 248.959C119.777 254.178 109.194 252.977 108.084 252.429C106.973 251.88 104.669 252.491 104.669 252.491Z" fill="#407BFF" stroke="#263238" stroke-linecap="round" stroke-linejoin="round"/>
<path d="M87.7215 192.967C87.7215 192.967 85.126 196.756 84.7304 198.845C84.3348 200.934 78.3456 217.493 78.3456 217.493C78.3456 217.493 84.2307 218.881 86.4237 218.992L90.907 219.186L92.9057 219.589C92.9057 219.589 93.3013 229.957 95.3972 232.15C97.493 234.343 101.581 236.939 101.976 238.528C102.372 240.117 104.87 251.991 104.669 252.491C104.468 252.991 103.774 256.176 103.774 256.176C103.774 256.176 111.248 262.762 120.721 262.762C130.194 262.762 138.272 262.762 143.255 255.683C148.238 248.605 149.64 244.711 148.738 241.72C147.836 238.729 142.957 235.641 142.492 235.141C142.027 234.641 137.308 229.062 137.308 229.062C137.308 229.062 137.905 206.326 137.009 200.441C136.114 194.556 130.93 192.467 128.633 192.065C126.336 191.662 117.57 191.572 117.57 191.572L92.7391 190.67L87.7215 192.967Z" fill="#263238" stroke="#263238" stroke-linecap="round" stroke-linejoin="round"/>
<path d="M80.3443 189.462C80.3443 189.462 78.8453 191.253 80.8371 194.251C82.8289 197.249 88.5197 205.424 88.832 206.118C89.1443 206.812 81.6491 223.17 81.6491 223.17C81.6491 223.17 75.7709 231.442 76.6661 235.037C77.5614 238.632 82.0516 241.415 83.1481 241.116C84.2446 240.818 88.9291 237.029 90.2269 234.537C91.5247 232.046 94.3909 205.021 94.3909 205.021C94.3909 205.021 95.5915 200.337 95.4874 198.942C95.2711 196.995 94.9397 195.062 94.495 193.154C94.2938 192.557 89.1096 179.968 89.1096 179.968L82.3292 187.144L80.3443 189.462Z" fill="white" stroke="#263238" stroke-linecap="round" stroke-linejoin="round"/>
<path d="M89.9146 198.248C89.9146 198.248 91.9063 200.844 92.2048 202.412C92.3818 203.376 92.315 204.368 92.0104 205.299" stroke="#263238" stroke-linecap="round" stroke-linejoin="round"/>
<path d="M87.2219 178.309L86.9235 196.756L91.7051 197.256L90.914 179.205L87.2219 178.309Z" fill="#263238" stroke="#263238" stroke-linecap="round" stroke-linejoin="round"/>
<path d="M82.4333 192.065C82.4333 192.065 88.1171 187.581 88.9152 186.513C89.3711 185.949 89.6165 185.245 89.6092 184.521L86.9165 176.241C86.9165 176.241 84.2238 178.323 83.8213 179.232C83.4188 180.142 80.1361 189.601 79.9349 190.302C79.7336 191.003 79.2409 191.898 80.4346 192.89" fill="white"/>
<path d="M82.4333 192.065C82.4333 192.065 88.1171 187.581 88.9152 186.513C89.3711 185.949 89.6165 185.245 89.6092 184.521L86.9165 176.241C86.9165 176.241 84.2238 178.323 83.8213 179.232C83.4188 180.142 80.1361 189.601 79.9349 190.302C79.7336 191.003 79.2409 191.898 80.4346 192.89" stroke="#263238" stroke-linecap="round" stroke-linejoin="round"/>
<path d="M82.1349 188.976C82.1349 188.976 87.6175 185.388 89.0194 183.591" stroke="#263238" stroke-linecap="round" stroke-linejoin="round"/>
<path d="M82.3362 185.485C82.3362 185.485 87.3191 182.598 88.3185 180.627" stroke="#263238" stroke-linecap="round" stroke-linejoin="round"/>
<path d="M83.3354 181.8L87.4231 178.906" stroke="#263238" stroke-linecap="round" stroke-linejoin="round"/>
<path d="M97.1599 196.992C97.1599 196.992 98.4855 205.271 101.726 210.317C104.967 215.362 112.032 222.08 112.032 222.08C112.032 222.08 117.189 211.878 118.153 202.398C119.118 192.918 119.111 191.6 119.111 191.6L116.335 191.239L97.1599 193.515V196.992Z" fill="#757575" stroke="#263238" stroke-linecap="round" stroke-linejoin="round"/>
<path d="M98.7909 199.046C98.7909 199.046 101.678 207.52 104.343 211.538C106.195 214.193 108.298 216.663 110.624 218.915C113.129 214.421 114.849 209.532 115.711 204.459C116.904 196.582 117.508 191.6 117.508 191.6C116.472 190.315 115.544 188.948 114.732 187.512C114.232 186.311 113.74 185.43 113.74 185.43C113.74 185.43 113.434 191.114 109.846 194.605C106.258 198.095 105.557 198.588 103.468 198.769C101.38 198.949 98.7909 199.046 98.7909 199.046Z" fill="white" stroke="#263238" stroke-linecap="round" stroke-linejoin="round"/>
<path d="M106.661 201.954L108.104 196.242C105.953 198.241 105.176 198.602 103.475 198.762C101.393 198.963 98.7909 199.06 98.7909 199.06C98.7909 199.06 100.276 203.425 102.115 207.388L106.661 201.954Z" fill="#263238" stroke="#263238" stroke-linecap="round" stroke-linejoin="round"/>
<path d="M83.6339 169.836C83.6339 169.836 80.9412 174.118 81.3368 176.415C81.7324 178.712 87.2219 181.696 87.2219 181.696L89.5121 175.117C89.5121 175.117 96.695 177.713 98.7909 177.81C100.887 177.907 105.266 177.511 106.362 177.713C107.459 177.914 114.142 181.696 113.642 182.793C113.143 183.889 112.948 186.082 113.247 186.686C113.654 187.324 114.119 187.923 114.635 188.477C114.635 188.477 118.022 187.089 119.819 185.187C121.617 183.285 122.713 181.599 122.81 179.302C122.907 177.005 117.952 169.836 117.952 169.836C117.952 169.836 117.057 163.548 115.662 161.758C114.267 159.967 103.593 154.38 100.602 153.777C97.6111 153.173 98.312 152.583 96.5146 153.478C94.7171 154.373 83.3286 161.653 82.7526 163.951C82.1765 166.248 83.6339 169.836 83.6339 169.836Z" fill="#263238" stroke="#263238" stroke-linecap="round" stroke-linejoin="round"/>
<path d="M88.5196 172.223C88.5196 172.223 96.1953 175.915 98.1871 176.116C99.3407 176.234 100.503 176.234 101.657 176.116L99.7624 170.627C100.318 171.861 101.131 172.962 102.145 173.857C103.16 174.752 104.354 175.421 105.648 175.818C109.936 177.012 113.42 178.011 113.42 178.011L113.92 175.318C113.92 175.318 116.814 175.214 117.314 178.011C117.813 180.808 117.314 184.292 116.911 184.687C116.509 185.083 114.718 186.388 114.718 186.388C114.718 186.388 115.516 189.677 115.218 190.371C114.919 191.065 107.16 201.26 106.661 201.954C106.161 202.648 103.274 203.051 101.976 202.752C100.679 202.454 94.2035 195.07 92.6073 193.48C91.0111 191.891 88.6168 185.402 87.7493 183.306C86.8818 181.21 86.8471 180.614 87.4509 178.92C88.0547 177.227 88.5196 172.223 88.5196 172.223Z" fill="white" stroke="#263238" stroke-linecap="round" stroke-linejoin="round"/>
<path d="M95.1959 182.293C95.1959 182.293 96.8962 186.686 97.6874 188.581C98.4785 190.475 98.888 193.439 99.8874 193.161C100.632 192.87 101.309 192.431 101.879 191.87" stroke="#263238" stroke-linecap="round" stroke-linejoin="round"/>
<path d="M101.976 196.756C101.976 196.756 104.967 196.756 105.564 196.152C106.161 195.548 105.467 194.66 103.573 194.861C101.678 195.063 100.186 195.555 101.976 196.756Z" fill="#263238" stroke="#263238" stroke-linecap="round" stroke-linejoin="round"/>
<path d="M103.691 182.758C103.989 183.452 103.843 184.146 103.364 184.375C102.886 184.604 102.254 184.201 101.976 183.521C101.699 182.841 101.817 182.133 102.296 181.904C102.774 181.675 103.406 182.071 103.691 182.758Z" fill="#263238"/>
<path d="M94.8143 184.854C94.9775 185.113 95.0353 185.425 94.976 185.726C94.9166 186.026 94.7446 186.293 94.495 186.471C94.0092 186.679 93.3777 186.297 93.107 185.617C92.8364 184.937 92.9544 184.229 93.4332 184C93.9121 183.771 94.5159 184.167 94.8143 184.854Z" fill="#263238"/>
<path d="M90.22 182.793C90.6817 182.177 91.2862 181.683 91.9814 181.353C92.6766 181.023 93.4416 180.867 94.2105 180.898L93.9121 179.704" stroke="#263238" stroke-linecap="round" stroke-linejoin="round"/>
<path d="M97.5902 178.511L98.2842 179.406C100.19 178.441 102.348 178.092 104.461 178.407" stroke="#263238" stroke-linecap="round" stroke-linejoin="round"/>
<path d="M182.522 292.66C182.522 292.66 202.787 299.35 208.103 299.746C213.419 300.141 225.224 303.091 225.224 303.091C225.224 303.091 248.237 305.645 249.84 306.054C251.443 306.463 265.975 310.974 270.112 311.564C274.248 312.154 280.147 313.14 280.147 313.14L278.967 321.01L231.539 320.815L180.183 323.765L166.56 315.68L152.59 312.14C152.59 312.14 150.619 298.364 151.202 294.624C151.785 290.883 154.748 288.135 163 288.524C171.251 288.912 182.522 292.66 182.522 292.66Z" fill="#263238" stroke="#263238" stroke-linecap="round" stroke-linejoin="round"/>
<path d="M153.971 274.13C153.971 274.13 163.839 268.363 172.806 272.208C181.772 276.052 185.104 288.607 185.36 293.347C185.617 298.087 184.208 314.229 184.208 314.229C187.784 313.852 191.377 313.681 194.972 313.716C199.969 313.848 221.233 315.513 222.899 315.381C224.564 315.249 227.757 315.256 227.757 315.256V321.662C227.757 321.662 215.716 325.132 203.037 328.838C190.357 332.544 179.441 336.909 176.387 337.548C175.167 337.794 173.899 337.609 172.8 337.024C171.702 336.439 170.84 335.491 170.363 334.341C169.593 332.551 158.961 310.003 156.532 303.216C154.103 296.428 152.68 291.945 152.68 290.918C152.68 289.891 153.971 274.13 153.971 274.13Z" fill="#263238" stroke="#263238" stroke-linecap="round" stroke-linejoin="round"/>
<path d="M221.476 314.993L224.655 314.902" stroke="#A6A6A6" stroke-linecap="round" stroke-linejoin="round"/>
<path d="M185.354 295.644L186.089 317.123C186.089 317.123 196.097 315.902 200.975 315.659C203.883 315.513 211.719 315.277 217.59 315.118" stroke="#A6A6A6" stroke-linecap="round" stroke-linejoin="round"/>
<path d="M161.494 314.056C159.391 308.945 157.977 303.577 157.288 298.094" stroke="#A6A6A6" stroke-linecap="round" stroke-linejoin="round"/>
<path d="M163.874 319.296C163.874 319.296 163.534 318.657 163 317.526" stroke="#A6A6A6" stroke-linecap="round" stroke-linejoin="round"/>
<path d="M227.764 315.263L238.014 316.651C238.014 316.651 249.035 321.648 249.292 325.618C249.548 329.588 246.474 331.642 241.734 329.588C236.994 327.533 232.892 322.419 231.74 322.03C230.432 321.762 229.099 321.634 227.764 321.648V315.263Z" fill="white" stroke="#263238" stroke-linecap="round" stroke-linejoin="round"/>
<path d="M75.3129 294.124L81.4617 289.641C81.4617 289.641 84.4043 276.573 87.8673 275.032C91.3304 273.492 98.8811 272.346 101.699 273.242C104.516 274.137 125.017 281.438 126.044 281.57C127.071 281.702 132.068 281.826 132.068 281.826C132.068 281.826 135.011 278.238 136.808 277.982C138.606 277.725 140.389 279.647 140.389 279.647L155.255 272.985C155.255 272.985 156.643 283.749 155.38 291.688C154.117 299.628 155.255 303.861 156.15 308.344C156.725 311.484 157.069 314.662 157.177 317.852L149.744 318.234C149.744 318.234 154.602 322.21 155.255 323.092C155.792 323.785 156.392 324.428 157.045 325.014C155.084 324.874 153.115 324.874 151.153 325.014C148.849 325.271 144.366 326.166 135.399 324.625C126.433 323.085 122.331 322.065 118.355 322.065C114.378 322.065 108.236 322.453 108.236 322.453C108.236 322.453 91.9619 318.477 90.685 318.352C89.408 318.227 84.5361 319.504 82.7387 319.74C80.9412 319.976 78.9009 319.865 78.9009 316.79C78.9009 313.716 79.0258 310.773 78.3873 308.337C77.7488 305.901 75.3129 294.124 75.3129 294.124Z" fill="#407BFF" stroke="#263238" stroke-linecap="round" stroke-linejoin="round"/>
<path d="M140.396 316.284C135.871 315.59 130.083 314.896 127.071 315.34C123.462 315.925 119.765 315.642 116.287 314.514" stroke="#263238" stroke-linecap="round" stroke-linejoin="round"/>
<path d="M146.781 317.415C146.781 317.415 145.442 317.144 143.422 316.79" stroke="#263238" stroke-linecap="round" stroke-linejoin="round"/>
<path d="M133.088 284.228C133.088 284.228 120.437 290.036 114.628 290.245L133.088 284.228Z" fill="#407BFF"/>
<path d="M133.088 284.228C133.088 284.228 120.437 290.036 114.628 290.245" stroke="#263238" stroke-linecap="round" stroke-linejoin="round"/>
<path d="M140.139 280.668C140.139 280.668 139.626 288.614 137.96 292.202" stroke="#263238" stroke-linecap="round" stroke-linejoin="round"/>
<path d="M143.422 295.845C143.383 296.778 143.269 297.707 143.082 298.621" stroke="#263238" stroke-linecap="round" stroke-linejoin="round"/>
<path d="M141.416 280.286C142.46 284.437 143.128 288.674 143.415 292.944" stroke="#263238" stroke-linecap="round" stroke-linejoin="round"/>
<path d="M97.854 309.351C97.854 309.351 78.1861 318.241 77.5892 318.949C76.9924 319.656 70.6006 321.079 68.942 321.44C67.2833 321.801 56.4986 320.746 56.9705 321.44C57.4424 322.134 65.7426 324.639 67.3805 324.639C69.0183 324.639 76.6246 323.251 77.3324 323.099C78.0403 322.946 97.0073 317.998 99.3739 317.172C100.816 316.667 102.21 316.033 103.538 315.277L97.854 309.351Z" fill="white" stroke="#263238" stroke-linecap="round" stroke-linejoin="round"/>
<path d="M89.2969 287.545L102.566 305.318L97.8539 309.351L105.648 316.464C105.648 316.464 113.976 312.793 116.314 311.724C118.653 310.655 120.222 309.711 119.868 308.053C119.514 306.394 105.765 277.246 105.765 277.246" fill="#407BFF"/>
<path d="M89.2969 287.545L102.566 305.318L97.8539 309.351L105.648 316.464C105.648 316.464 113.976 312.793 116.314 311.724C118.653 310.655 120.222 309.711 119.868 308.053C119.514 306.394 105.765 277.246 105.765 277.246" stroke="#263238" stroke-linecap="round" stroke-linejoin="round"/>
<path d="M99.8388 328.193C99.8388 328.193 105.53 328.193 108.375 326.416C111.22 324.639 113.705 320.607 113.115 317.29C112.525 313.973 114.42 313.973 108.257 313.383C103.786 312.931 99.2989 314.063 95.5776 316.582C93.0862 318.123 92.2603 319.899 97.3543 319.781C102.448 319.663 105.766 320.135 104.107 321.794C102.448 323.453 98.5479 327.36 99.8388 328.193Z" fill="#407BFF" stroke="#263238" stroke-linecap="round" stroke-linejoin="round"/>
<path d="M86.2156 319.656C86.2156 319.656 72.4675 327.984 71.6416 328.547C70.8158 329.109 67.0196 328.9 65 328.193C63.5599 327.622 61.9641 327.58 60.496 328.075C58.9829 328.502 57.4403 328.817 55.8809 329.018C54.5762 329.136 52.4109 328.664 52.7995 330.087C53.1882 331.51 55.8809 331.274 55.8809 331.274C55.8809 331.274 53.7434 335.778 54.3402 336.25C54.937 336.722 63.5773 336.486 66.5407 335.896C69.5041 335.306 76.3816 333.287 77.3255 332.933C78.2693 332.579 96.6395 329.615 101.615 327.381C106.591 325.146 110.86 320.392 110.86 317.901C110.86 315.409 111.22 314.229 105.766 315.18C100.311 316.131 94.155 315.513 86.2156 319.656Z" fill="white" stroke="#263238" stroke-linecap="round" stroke-linejoin="round"/>
<path d="M65.4303 335.986C64.9514 335.986 55.284 337.319 55.284 337.319C55.284 337.319 53.1257 334.806 52.7648 334.543C52.4039 334.279 51.9667 331.961 51.9667 331.961C51.9667 331.961 52.7995 331.267 53.1534 331.961L53.5074 332.655C53.5074 332.655 55.6379 332.093 56.5887 332.419C57.3868 332.683 58.4833 333.009 58.4833 333.009C58.4833 333.009 58.8373 331.704 59.6701 331.94C61.1397 332.644 62.565 333.437 63.9382 334.314C63.9382 334.314 66.7142 331.739 68.0536 331.267C68.951 330.987 69.9005 330.916 70.8296 331.059" fill="white"/>
<path d="M65.4303 335.986C64.9514 335.986 55.284 337.319 55.284 337.319C55.284 337.319 53.1257 334.806 52.7648 334.543C52.4039 334.279 51.9667 331.961 51.9667 331.961C51.9667 331.961 52.7995 331.267 53.1534 331.961L53.5074 332.655C53.5074 332.655 55.6379 332.093 56.5887 332.419C57.3868 332.683 58.4833 333.009 58.4833 333.009C58.4833 333.009 58.8373 331.704 59.6701 331.94C61.1397 332.644 62.565 333.437 63.9382 334.314C63.9382 334.314 66.7142 331.739 68.0536 331.267C68.951 330.987 69.9005 330.916 70.8296 331.059" stroke="#263238" stroke-linecap="round" stroke-linejoin="round"/>
<path d="M58.4834 333.051C59.693 334.103 61.0288 335 62.46 335.723" stroke="#263238" stroke-linecap="round" stroke-linejoin="round"/>
<path d="M55.8114 332.468C56.3342 334.214 57.5233 335.685 59.1218 336.562" stroke="#263238" stroke-linecap="round" stroke-linejoin="round"/>
<path d="M53.5073 332.697C53.5073 332.697 54.4997 335.882 56.8663 336.986" stroke="#263238" stroke-linecap="round" stroke-linejoin="round"/>
<path d="M100.2 305.561C100.2 305.561 104.225 309.469 106.355 311.245C108.486 313.022 111.81 315.409 111.81 315.409C111.81 315.409 107.188 317.186 106.48 317.422C105.772 317.658 102.566 316.353 100.082 314.458C98.4186 313.113 96.9782 311.513 95.8136 309.718L100.2 305.561Z" fill="#407BFF" stroke="#263238" stroke-linecap="round" stroke-linejoin="round"/>
<path d="M81.4617 310.267L82.4819 314.75L89.5329 311.724L81.4617 310.267Z" fill="#407BFF" stroke="#263238" stroke-linecap="round" stroke-linejoin="round"/>
<path d="M64.882 299.163C65.9274 299.422 67.0093 299.502 68.0814 299.399C69.3861 299.163 69.858 297.497 67.8454 294.777C67.1045 293.702 65.9854 292.946 64.7118 292.661C63.4382 292.375 62.1037 292.581 60.9748 293.236C59.3161 294.298 58.0114 295.248 55.8808 295.366C53.7503 295.484 49.9541 292.521 46.8588 294.777C43.7636 297.032 43.7775 297.74 43.1876 298.802C42.5977 299.864 38.8154 300.696 36.782 305.915C34.7485 311.134 36.664 314.937 36.782 315.631C36.8999 316.325 32.4028 317.172 30.8621 321.912C29.3215 326.652 32.7568 330.802 37.7327 331.746C42.7087 332.69 51.9528 329.969 53.4935 326.888C55.0342 323.807 53.8474 322.502 53.1395 321.336C53.0229 321.109 52.9561 320.86 52.9437 320.605C52.9313 320.35 52.9734 320.095 53.0674 319.858C53.1614 319.621 53.305 319.406 53.4886 319.229C53.6722 319.052 53.8915 318.916 54.132 318.831C54.6108 318.831 53.896 317.408 54.3749 313.501C54.8537 309.593 56.2695 305.436 59.3508 304.139C62.4322 302.841 64.9028 303.188 65.5136 302.237C66.1243 301.286 64.882 299.163 64.882 299.163Z" fill="#A6A6A6" stroke="#263238" stroke-linecap="round" stroke-linejoin="round"/>
<path d="M50.9674 312.571C50.9674 312.571 50.7106 308.601 47.4974 308.469C44.2842 308.337 41.8552 310.648 43.9094 315.409C45.9636 320.17 48.6494 321.69 46.4703 324.889C44.2911 328.089 33.659 332.197 34.4294 325.66C35.1997 319.122 41.7302 320.024 40.5782 321.947C39.4262 323.869 37.5038 322.072 37.5038 322.072" stroke="#263238" stroke-linecap="round" stroke-linejoin="round"/>
<path d="M36.782 315.631C36.782 315.631 41.0917 312.161 44.416 319.49" stroke="#263238" stroke-linecap="round" stroke-linejoin="round"/>
<path d="M43.5345 302.064C43.5345 302.064 45.2001 300.016 51.4808 299.891C57.7615 299.766 56.1792 303.826 55.048 304.61" stroke="#263238" stroke-linecap="round" stroke-linejoin="round"/>
<path d="M59.8089 297.837C59.8089 297.837 54.6802 295.401 51.7376 296.449C48.7951 297.497 47.3793 299.01 45.8456 299.142" stroke="#263238" stroke-linecap="round" stroke-linejoin="round"/>
<path d="M78.8661 309.94L89.5259 311.717L77.3184 299.281C77.3184 299.281 70.6838 300.342 69.3791 299.163C68.0744 297.983 61.2038 298.802 61.2038 298.802C61.2038 298.802 63.4523 301.175 61.4397 301.647C59.4271 302.119 56.9357 302.48 55.041 304.611C53.1464 306.741 53.2644 308.282 52.7925 310.058C52.3206 311.835 50.419 313.258 50.183 314.916C49.9471 316.575 50.0651 318.123 53.653 320.371C57.241 322.62 65.1457 322.738 67.2832 322.384C70.8242 321.584 74.2765 320.433 77.5891 318.949C81.0244 317.408 80.7884 314.327 80.5525 313.501C80.0551 312.284 79.4922 311.096 78.8661 309.94Z" fill="white" stroke="#263238" stroke-linecap="round" stroke-linejoin="round"/>
<path d="M78.8661 309.94L74.8756 304.659L82.8913 310.641L78.8661 309.94Z" fill="#263238" stroke="#263238" stroke-linecap="round" stroke-linejoin="round"/>
<path d="M68.4353 312.904C68.4353 312.904 69.0321 315.277 68.1993 316.7" stroke="#263238" stroke-linecap="round" stroke-linejoin="round"/>
<path d="M72.8214 312.432C73.1849 313.417 73.2666 314.484 73.0574 315.513" stroke="#263238" stroke-linecap="round" stroke-linejoin="round"/>
<path d="M63.1054 308.879C63.2306 309.405 63.2427 309.951 63.141 310.483C63.0393 311.014 62.8261 311.517 62.5155 311.96" stroke="#263238" stroke-linecap="round" stroke-linejoin="round"/>
<path d="M62.7515 316.7C62.7515 316.7 63.9382 319.066 62.8694 320.253" stroke="#263238" stroke-linecap="round" stroke-linejoin="round"/>
<path d="M58.4834 310.419C58.4185 309.034 58.8852 307.676 59.7881 306.623" stroke="#263238" stroke-linecap="round" stroke-linejoin="round"/>
<path d="M58.9899 316.582C58.8006 317.271 58.7773 317.995 58.9221 318.695C59.0668 319.395 59.3755 320.05 59.8227 320.607" stroke="#263238" stroke-linecap="round" stroke-linejoin="round"/>
<path d="M62.6334 300.821C62.6334 300.821 58.4694 297.74 59.4341 296.553C60.3987 295.366 65.4788 296.435 66.0687 297.858C66.4203 298.761 66.5023 299.747 66.3047 300.696" fill="white"/>
<path d="M62.6334 300.821C62.6334 300.821 58.4694 297.74 59.4341 296.553C60.3987 295.366 65.4788 296.435 66.0687 297.858C66.4203 298.761 66.5023 299.747 66.3047 300.696" stroke="#263238" stroke-linecap="round" stroke-linejoin="round"/>
<path d="M75.181 291.688L70.316 294.638L84.2793 310.523L89.7897 309.115L75.181 291.688Z" fill="#407BFF" stroke="#263238" stroke-linecap="round" stroke-linejoin="round"/>
<path d="M280.119 313.126C280.119 313.126 286.615 313.32 289.96 313.521C293.305 313.723 297.032 314.306 298.816 317.852C300.599 321.398 299.01 324.938 296.255 325.729C293.5 326.52 288.78 323.362 285.845 322.384C283.598 321.71 281.293 321.245 278.96 320.996L280.119 313.126Z" fill="white" stroke="#263238" stroke-linecap="round" stroke-linejoin="round"/>
<path d="M130.895 222.378L132.283 245.211C132.283 245.211 127.425 252.089 124.406 256.28C121.388 260.472 112.039 270.341 111.144 271.139C110.021 271.899 108.817 272.534 107.556 273.033C107.556 273.033 101.47 272.534 100.276 272.235C99.0824 271.937 97.3821 272.43 96.3896 272.534C95.3972 272.638 93.9953 271.84 94.0925 272.929C94.1897 274.019 95.189 274.317 96.584 274.623C97.9789 274.928 99.36 274.428 99.8805 274.727C100.402 275.094 100.9 275.492 101.373 275.921C101.373 275.921 96.119 279.446 95.8206 279.946C95.5221 280.445 93.2944 283.298 93.6969 284.2C94.0994 285.102 94.8906 284.596 95.2931 283.902C95.6968 283.289 96.1619 282.719 96.6811 282.201C96.6811 282.201 95.883 284.283 95.5846 285.192C95.2862 286.102 95.1821 286.893 95.7789 286.99C96.3758 287.087 96.9795 286.192 96.9795 286.192C96.9795 286.192 97.3751 287.49 98.2773 287.191C99.1795 286.893 98.9227 286.421 100.221 284.929C100.915 284.117 103.163 283.201 103.163 283.201C103.163 283.201 101.268 286.289 101.366 286.671C101.463 287.052 101.768 287.767 102.365 287.469C102.962 287.17 105.252 283.679 105.655 283.305C106.057 282.93 109.444 282.909 110.242 282.111C111.04 281.313 114.926 276.129 114.926 276.129C114.926 276.129 134.171 261.471 137.134 258.682C140.098 255.892 145.31 246.19 145.31 245.718C145.31 245.246 142.818 213.794 142.818 213.794L130.895 222.378Z" fill="white" stroke="#263238" stroke-linecap="round" stroke-linejoin="round"/>
<path d="M96.6949 282.201C96.6949 282.201 100.581 278.731 102.774 277.912" stroke="#263238" stroke-linecap="round" stroke-linejoin="round"/>
<path d="M96.9934 286.192C97.5728 285.03 98.3316 283.967 99.242 283.041C100.735 281.987 102.28 281.01 103.871 280.112" stroke="#263238" stroke-linecap="round" stroke-linejoin="round"/>
<path d="M103.177 283.201L104.745 281.986" stroke="#263238" stroke-linecap="round" stroke-linejoin="round"/>
<path d="M127.904 200.941L130.396 224.669L147.128 211.906C147.128 211.906 142.478 202.801 141.146 199.345C138.946 193.661 129.778 189.976 123.893 191.669" fill="#263238"/>
<path d="M127.904 200.941L130.396 224.669L147.128 211.906C147.128 211.906 142.478 202.801 141.146 199.345C138.946 193.661 129.778 189.976 123.893 191.669" stroke="#263238" stroke-linecap="round" stroke-linejoin="round"/>
</svg>
