<svg width="310" height="313" viewBox="0 0 310 313" fill="none" xmlns="http://www.w3.org/2000/svg">
<path opacity="0.7" d="M45.7591 288.178C105.984 320.838 203.629 320.845 263.854 288.178C324.079 255.51 324.079 202.541 263.854 169.874C203.629 137.206 105.984 137.206 45.7591 169.874C-14.4659 202.541 -14.4732 255.51 45.7591 288.178Z" fill="#F0F0F0"/>
<path d="M82.7847 214.893C105.777 214.893 124.417 206.01 124.417 195.051C124.417 184.093 105.777 175.21 82.7847 175.21C59.792 175.21 41.1528 184.093 41.1528 195.051C41.1528 206.01 59.792 214.893 82.7847 214.893Z" fill="#E0E0E0"/>
<path d="M30.4656 193.759L35.1449 191.088C35.1449 191.088 37.3933 178.721 35.7143 168.093C33.3491 153.142 23.1729 147.988 19.4791 149.47C15.7853 150.952 14.9166 155.383 21.5888 164.019C25.56 169.1 30.597 179.889 30.4656 193.759Z" fill="#407BFF"/>
<g opacity="0.1">
<path d="M30.4656 193.759L35.1449 191.088C35.1449 191.088 37.3933 178.721 35.7143 168.093C33.3491 153.142 23.1729 147.988 19.4791 149.47C15.7853 150.952 14.9166 155.383 21.5888 164.019C25.56 169.1 30.597 179.889 30.4656 193.759Z" fill="black"/>
</g>
<path d="M32.1665 187.824H32.13C32.0428 187.81 31.9645 187.763 31.9115 187.692C31.8584 187.621 31.8347 187.533 31.8453 187.445C33.7652 173.48 28.1369 158.15 21.8151 151.945C21.7551 151.882 21.7217 151.799 21.722 151.712C21.7223 151.625 21.7562 151.541 21.8167 151.479C21.8772 151.417 21.9595 151.38 22.0463 151.377C22.1331 151.374 22.2177 151.405 22.2823 151.463C28.7209 157.756 34.4587 173.363 32.5023 187.54C32.49 187.62 32.4493 187.693 32.3876 187.745C32.3259 187.797 32.2474 187.825 32.1665 187.824Z" fill="white"/>
<path d="M17.4862 201.264C16.7562 201.687 15.2232 200.76 14.6392 200.366C13.6386 199.683 12.8294 198.756 12.2886 197.672C11.6891 196.44 11.4851 195.053 11.7046 193.701C11.8215 192.987 11.9898 192.281 12.2083 191.591L12.7996 189.54C13.0357 188.878 13.1375 188.176 13.0989 187.474C12.9164 186.072 11.6389 185.087 10.5439 184.24C9.2883 183.306 7.9889 182.05 7.9962 180.378C8.08038 179.072 8.59362 177.83 9.4562 176.845C10.2592 175.823 11.2155 174.925 11.9455 173.845C12.5176 173.093 12.8186 172.169 12.7996 171.224C12.7182 170.644 12.5222 170.086 12.2229 169.582C11.5389 168.537 10.9408 167.438 10.4344 166.297C10.0183 165.114 10.0767 163.647 11.0038 162.8C11.4167 162.489 11.888 162.264 12.3896 162.138C12.8912 162.013 13.413 161.99 13.9238 162.07C14.8829 162.184 15.8052 162.508 16.6248 163.019C19.3039 164.479 20.8369 167.676 23.6766 168.859C24.8076 169.207 25.9581 169.487 27.1222 169.699C27.7002 169.806 28.2495 170.033 28.7347 170.364C29.22 170.696 29.6305 171.126 29.94 171.626C30.9839 173.714 29.0494 176.276 29.7867 178.495C30.4364 180.451 32.3344 181.196 33.4367 182.963C33.8698 183.743 34.0436 184.64 33.9331 185.525C33.8445 187.024 33.4808 188.494 32.86 189.861C32.163 191.217 31.3676 192.52 30.4802 193.759C30.4218 193.803 17.5957 201.22 17.4862 201.264Z" fill="#407BFF"/>
<path d="M25.0782 197.212C25.0344 197.211 24.9913 197.202 24.9513 197.184C24.9113 197.166 24.8753 197.14 24.8454 197.108C24.8154 197.076 24.7922 197.039 24.777 196.998C24.7619 196.957 24.755 196.913 24.757 196.869C25.3045 183.62 19.063 168.998 14.537 164.749C14.5054 164.719 14.4799 164.684 14.462 164.644C14.4442 164.605 14.4343 164.562 14.4329 164.519C14.4316 164.475 14.4388 164.432 14.4541 164.391C14.4695 164.351 14.4927 164.314 14.5224 164.282C14.5521 164.25 14.5878 164.225 14.6273 164.207C14.6669 164.189 14.7096 164.179 14.753 164.178C14.7964 164.177 14.8396 164.184 14.8802 164.199C14.9208 164.214 14.958 164.238 14.9896 164.267C19.6178 168.596 25.9907 183.466 25.4286 196.891C25.4277 196.935 25.4178 196.979 25.3995 197.02C25.3812 197.06 25.3549 197.097 25.3221 197.127C25.2894 197.157 25.2509 197.18 25.2089 197.194C25.167 197.209 25.1225 197.215 25.0782 197.212Z" fill="white"/>
<path d="M23.0999 181.568H22.9977C19.8588 180.703 16.6352 180.182 13.3836 180.014C13.304 180.002 13.2312 179.962 13.1787 179.901C13.1261 179.84 13.0972 179.762 13.0972 179.681C13.0972 179.601 13.1261 179.523 13.1787 179.462C13.2312 179.401 13.304 179.361 13.3836 179.349C16.6918 179.519 19.9717 180.048 23.1656 180.926C23.2423 180.949 23.3082 181 23.3512 181.067C23.3942 181.135 23.4115 181.216 23.4001 181.295C23.3886 181.375 23.3491 181.447 23.2887 181.5C23.2282 181.553 23.1509 181.582 23.0707 181.583L23.0999 181.568Z" fill="white"/>
<path d="M258.992 261.16C261.511 255.685 270.672 246.166 279.615 241.669C288.557 237.172 299.865 236.077 305.216 241.158C310.194 245.889 305.997 253.342 296.456 255.189C286.915 257.036 273.198 258.54 265.971 265.971L254.357 273.826L258.992 261.16Z" fill="#407BFF"/>
<path opacity="0.1" d="M258.992 261.16C261.511 255.685 270.672 246.166 279.615 241.669C288.557 237.172 299.865 236.077 305.216 241.158C310.194 245.889 305.997 253.342 296.456 255.189C286.915 257.036 273.198 258.54 265.971 265.971L254.357 273.826L258.992 261.16Z" fill="black"/>
<path d="M255.152 268.46C255.243 268.493 255.341 268.496 255.433 268.469C255.525 268.441 255.606 268.384 255.663 268.307C267.905 251.305 289.973 243.064 300.573 243.859C300.69 243.867 300.805 243.829 300.894 243.752C300.983 243.676 301.038 243.567 301.047 243.45C301.051 243.393 301.044 243.335 301.025 243.28C301.007 243.226 300.978 243.175 300.94 243.132C300.902 243.088 300.856 243.053 300.804 243.027C300.752 243.002 300.696 242.987 300.639 242.983C289.849 242.166 267.372 250.531 254.948 267.803C254.914 267.85 254.89 267.903 254.877 267.96C254.864 268.016 254.862 268.074 254.871 268.131C254.881 268.188 254.902 268.243 254.932 268.292C254.963 268.341 255.003 268.383 255.05 268.416C255.081 268.438 255.116 268.452 255.152 268.46Z" fill="white"/>
<path d="M252.451 281.695C254.743 279.023 260.832 275.673 268.832 274.271C277.687 272.716 287.17 274.49 290.791 271.782C295.134 268.526 293.36 262.752 286.068 260.438C278.775 258.123 262.299 261.971 253.846 275.264L252.451 281.695Z" fill="#407BFF"/>
<path d="M252.59 277.87C252.67 277.899 252.757 277.904 252.84 277.885C252.923 277.865 252.998 277.822 253.057 277.76C266.132 264.387 280.921 264.38 286.915 266.241C286.97 266.258 287.028 266.264 287.085 266.258C287.142 266.253 287.198 266.236 287.249 266.209C287.3 266.182 287.345 266.145 287.381 266.1C287.418 266.056 287.445 266.004 287.462 265.949C287.48 265.894 287.487 265.837 287.482 265.779C287.478 265.722 287.462 265.666 287.435 265.615C287.409 265.564 287.372 265.519 287.328 265.482C287.284 265.446 287.232 265.418 287.177 265.402C280.549 263.343 265.774 263.496 252.422 277.147C252.381 277.188 252.349 277.236 252.327 277.289C252.305 277.343 252.293 277.4 252.293 277.457C252.293 277.515 252.305 277.572 252.327 277.625C252.349 277.679 252.381 277.727 252.422 277.768C252.469 277.814 252.527 277.849 252.59 277.87Z" fill="white"/>
<path d="M119.905 213.068L128.475 218.01L125.621 219.66H137.038V213.068L134.184 214.718L125.621 209.768L119.905 213.068Z" fill="#407BFF"/>
<path d="M142.024 223.244C141.901 223.244 141.78 223.212 141.674 223.149L139.542 221.915C139.387 221.817 139.275 221.664 139.228 221.487C139.18 221.31 139.201 221.122 139.287 220.959C139.384 220.801 139.538 220.686 139.717 220.637C139.896 220.588 140.086 220.61 140.25 220.696L142.382 221.93C142.501 222.017 142.59 222.139 142.638 222.278C142.687 222.417 142.692 222.568 142.653 222.71C142.615 222.852 142.534 222.979 142.422 223.074C142.309 223.17 142.171 223.229 142.024 223.244Z" fill="#407BFF"/>
<path d="M231.836 275.096C231.713 275.096 231.592 275.064 231.486 275.001L227.376 272.629C227.258 272.514 227.182 272.363 227.161 272.2C227.14 272.037 227.174 271.871 227.258 271.73C227.343 271.589 227.472 271.481 227.626 271.422C227.78 271.364 227.949 271.36 228.106 271.409L232.208 273.782C232.327 273.869 232.416 273.989 232.465 274.128C232.514 274.267 232.52 274.417 232.482 274.559C232.444 274.701 232.364 274.828 232.253 274.924C232.142 275.02 232.004 275.08 231.858 275.096H231.836ZM221.857 269.329C221.735 269.33 221.614 269.299 221.507 269.241L217.397 266.869C217.292 266.835 217.196 266.779 217.116 266.703C217.036 266.627 216.974 266.535 216.935 266.432C216.896 266.329 216.881 266.218 216.891 266.108C216.9 265.999 216.935 265.893 216.992 265.798C217.048 265.704 217.125 265.623 217.217 265.563C217.309 265.502 217.414 265.464 217.523 265.449C217.632 265.435 217.743 265.446 217.848 265.48C217.952 265.515 218.048 265.573 218.127 265.65L222.237 268.022C222.353 268.11 222.44 268.231 222.487 268.369C222.533 268.507 222.538 268.656 222.499 268.797C222.461 268.937 222.381 269.063 222.271 269.158C222.16 269.253 222.024 269.312 221.879 269.329H221.857ZM211.878 263.569C211.755 263.57 211.634 263.537 211.527 263.474L207.418 261.08C207.263 260.982 207.15 260.829 207.103 260.652C207.056 260.475 207.077 260.286 207.162 260.124C207.26 259.967 207.415 259.853 207.594 259.806C207.772 259.758 207.963 259.781 208.126 259.868L212.236 262.241C212.352 262.329 212.439 262.45 212.486 262.588C212.532 262.726 212.537 262.874 212.498 263.015C212.46 263.155 212.38 263.281 212.27 263.376C212.159 263.471 212.023 263.531 211.878 263.547V263.569ZM201.899 257.81C201.776 257.81 201.655 257.777 201.548 257.715L197.439 255.342C197.284 255.244 197.171 255.091 197.124 254.914C197.077 254.737 197.098 254.548 197.183 254.386C197.28 254.228 197.434 254.113 197.613 254.064C197.792 254.015 197.983 254.036 198.147 254.123L202.249 256.496C202.368 256.582 202.457 256.703 202.506 256.842C202.555 256.98 202.561 257.13 202.523 257.272C202.485 257.414 202.405 257.541 202.294 257.637C202.182 257.733 202.045 257.793 201.899 257.81ZM191.92 252.05C191.797 252.05 191.675 252.017 191.569 251.955L187.459 249.582C187.341 249.468 187.266 249.317 187.244 249.154C187.223 248.991 187.257 248.825 187.342 248.684C187.426 248.543 187.556 248.435 187.71 248.376C187.864 248.318 188.033 248.314 188.189 248.363L192.299 250.736C192.456 250.834 192.57 250.988 192.617 251.167C192.665 251.346 192.642 251.536 192.555 251.699C192.489 251.808 192.395 251.898 192.284 251.959C192.172 252.021 192.047 252.052 191.92 252.05ZM181.941 246.29C181.818 246.289 181.697 246.256 181.59 246.195L177.48 243.823C177.375 243.789 177.279 243.733 177.199 243.657C177.119 243.581 177.058 243.488 177.019 243.385C176.98 243.282 176.965 243.172 176.974 243.062C176.984 242.953 177.019 242.847 177.075 242.752C177.132 242.658 177.209 242.577 177.301 242.517C177.393 242.456 177.498 242.417 177.607 242.403C177.716 242.389 177.827 242.4 177.932 242.434C178.036 242.469 178.131 242.527 178.21 242.604L182.32 244.976C182.475 245.074 182.587 245.227 182.635 245.404C182.682 245.582 182.661 245.77 182.576 245.932C182.51 246.042 182.417 246.133 182.306 246.196C182.195 246.259 182.069 246.291 181.941 246.29ZM171.961 240.523C171.839 240.524 171.719 240.494 171.611 240.436L167.501 238.063C167.383 237.948 167.308 237.797 167.286 237.634C167.265 237.471 167.299 237.306 167.384 237.165C167.468 237.024 167.598 236.915 167.752 236.857C167.906 236.799 168.074 236.794 168.231 236.844L172.341 239.216C172.457 239.305 172.544 239.425 172.591 239.563C172.638 239.701 172.642 239.85 172.604 239.991C172.565 240.131 172.486 240.257 172.375 240.352C172.265 240.447 172.128 240.506 171.983 240.523H171.961ZM161.982 234.8C161.859 234.8 161.738 234.768 161.632 234.705L157.522 232.333C157.367 232.234 157.255 232.082 157.208 231.904C157.16 231.727 157.181 231.539 157.267 231.376C157.364 231.218 157.517 231.103 157.696 231.054C157.875 231.005 158.066 231.027 158.23 231.113L162.34 233.486C162.459 233.573 162.548 233.695 162.597 233.834C162.645 233.973 162.65 234.123 162.612 234.266C162.573 234.408 162.492 234.535 162.38 234.63C162.268 234.726 162.129 234.785 161.982 234.8ZM152.003 229.04C151.88 229.041 151.759 229.008 151.653 228.945L147.543 226.573C147.425 226.458 147.349 226.307 147.328 226.144C147.307 225.981 147.341 225.816 147.426 225.674C147.51 225.533 147.64 225.425 147.794 225.367C147.947 225.309 148.116 225.304 148.273 225.354L152.383 227.726C152.54 227.825 152.653 227.979 152.701 228.158C152.748 228.337 152.726 228.527 152.638 228.69C152.568 228.792 152.473 228.874 152.361 228.929C152.25 228.984 152.127 229.01 152.003 229.004V229.04Z" fill="#407BFF"/>
<path d="M239.837 279.71C239.715 279.71 239.594 279.68 239.486 279.622L237.355 278.388C237.2 278.29 237.088 278.137 237.04 277.96C236.993 277.783 237.014 277.594 237.099 277.432C237.197 277.274 237.35 277.159 237.529 277.11C237.708 277.061 237.899 277.082 238.063 277.169L240.187 278.403C240.303 278.49 240.39 278.611 240.437 278.748C240.485 278.885 240.49 279.034 240.452 279.174C240.414 279.314 240.336 279.44 240.226 279.536C240.117 279.631 239.981 279.692 239.837 279.71Z" fill="#407BFF"/>
<path d="M286.389 95.6036L285.732 95.224L265.336 83.544C260.617 80.4218 255.065 78.7961 249.407 78.8793C242.275 78.8793 235.077 81.4635 226.602 86.1793C196.986 102.59 171.684 149.908 171.684 180.977V189.54C171.684 227.193 221.207 273.154 221.207 273.154L241.742 285.017C241.752 285.031 241.765 285.041 241.781 285.048C241.796 285.054 241.813 285.056 241.83 285.053C241.144 284.243 263.65 251.407 284.9 187.357C308.362 116.43 286.827 96.0124 286.389 95.6036ZM251.729 208.184C234.939 217.871 220.901 212.798 216.922 197.168C209.235 196.11 203.68 190.197 201.965 180.488C199.811 149.098 216.47 124.139 240.326 114.007C250.546 110.291 259.072 112.941 263.642 120.621C277.658 118.212 287.688 127.818 287.688 145.908C287.688 168.83 271.57 196.73 251.729 208.184Z" fill="#455A64"/>
<path d="M287.688 145.908C287.688 168.83 271.592 196.73 251.729 208.184C234.939 217.871 220.901 212.798 216.922 197.168C221.967 197.898 227.923 196.548 234.325 192.847C252.517 182.357 267.248 156.821 267.248 135.841C267.248 129.607 265.949 124.475 263.642 120.621C277.658 118.212 287.688 127.818 287.688 145.908Z" fill="#263238"/>
<path d="M223.711 194.978L235.121 201.57V179.466L223.711 172.874V194.978Z" fill="#407BFF"/>
<path opacity="0.2" d="M223.711 194.978L235.121 201.57V179.466L223.711 172.874V194.978Z" fill="black"/>
<path d="M278.162 154.617L251.714 142.221L225.266 185.16L235.121 179.466V201.57L247.619 194.358V179.897L255.802 175.174V189.628L268.314 182.401V160.296L278.162 154.617Z" fill="#407BFF"/>
<path d="M240.297 135.629L251.714 142.221L225.266 185.16L213.849 178.568L240.297 135.629Z" fill="#407BFF"/>
<path opacity="0.1" d="M240.297 135.629L251.714 142.221L225.266 185.16L213.849 178.568L240.297 135.629Z" fill="black"/>
<path d="M240.297 135.629L251.714 142.221L278.162 154.617L266.745 148.025L240.297 135.629Z" fill="#407BFF"/>
<path opacity="0.4" d="M240.297 135.629L251.714 142.221L278.162 154.617L266.745 148.025L240.297 135.629Z" fill="white"/>
<path d="M247.619 194.358L255.802 189.628V175.174L247.619 179.897V194.358Z" fill="#407BFF"/>
<path opacity="0.2" d="M247.619 194.358L255.802 189.628V175.174L247.619 179.897V194.358Z" fill="black"/>
<path d="M286.389 95.6036L285.732 95.224C275.833 89.6614 262.606 90.406 248.071 98.7864C226.171 111.452 207.191 138.053 198.22 165.946C194.657 177.006 193.153 182.861 193.153 193.555V202.147C193.153 231.165 225.507 270.198 240.64 284.133C240.978 284.447 241.348 284.726 241.742 284.966C241.752 284.979 241.765 284.99 241.781 284.997C241.796 285.003 241.813 285.005 241.83 285.002C242.713 285.548 243.701 285.902 244.73 286.043C245.759 286.183 246.805 286.106 247.803 285.818C248.8 285.529 249.725 285.034 250.52 284.365C251.314 283.697 251.96 282.869 252.415 281.936C265.453 255.24 303.471 174.758 303.471 143.55V134.987C303.471 115.642 296.93 101.94 286.389 95.6036ZM216.922 197.169C216.718 196.373 216.528 195.541 216.382 194.687C215.954 192.292 215.748 189.863 215.769 187.43C215.769 164.508 231.829 136.615 251.729 125.161C253.827 123.946 256.025 122.911 258.299 122.066C260.035 121.42 261.826 120.932 263.649 120.606C277.665 118.197 287.696 127.804 287.696 145.893C287.696 168.815 271.599 196.716 251.736 208.17C234.96 217.871 220.901 212.798 216.922 197.169Z" fill="#37474F"/>
<path d="M104.838 65.1333H89.508C86.1818 65.1333 82.9919 63.812 80.6399 61.4601C78.2879 59.1081 76.9666 55.9181 76.9666 52.5919V49.0514C76.9666 45.3574 78.4341 41.8147 81.0461 39.2026C83.6582 36.5905 87.201 35.123 90.895 35.123C94.589 35.123 98.1318 36.5905 100.744 39.2026C103.356 41.8147 104.823 45.3574 104.823 49.0514L104.838 65.1333Z" fill="#263238"/>
<path d="M79.1931 42.1165L75.93 40.3864C76.0331 40.1688 76.1793 39.9743 76.3596 39.8148C76.54 39.6552 76.7509 39.5339 76.9795 39.4582C77.208 39.3825 77.4496 39.3539 77.6895 39.3741C77.9295 39.3944 78.1629 39.4631 78.3755 39.5761C78.8119 39.8135 79.1403 40.2098 79.2925 40.6827C79.4447 41.1557 79.4091 41.6691 79.1931 42.1165Z" fill="#263238"/>
<path d="M79.4632 42.4815L76.0322 43.7663C75.9366 43.5455 75.8866 43.3076 75.8854 43.067C75.8842 42.8264 75.9318 42.588 76.0253 42.3663C76.1187 42.1446 76.2562 41.9441 76.4292 41.777C76.6023 41.6098 76.8075 41.4795 77.0323 41.3938C77.4998 41.2311 78.0118 41.2531 78.4636 41.4552C78.9154 41.6574 79.273 42.0245 79.4632 42.4815Z" fill="#263238"/>
<path d="M109.919 82.9088L114.138 90.6395L108.276 95.6692L102.414 86.5807L109.919 82.9088Z" fill="#9A4A4D"/>
<path d="M98.122 66.3232C100.312 66.513 102.619 67.4547 104.203 70.7032L110.773 84.1936C110.773 84.1936 109.663 88.632 103.882 89.2233L101.589 85.7047L98.122 66.3232Z" fill="#407BFF"/>
<path opacity="0.1" d="M98.122 66.3232C100.312 66.513 102.619 67.4547 104.203 70.7032L110.773 84.1936C110.773 84.1936 109.663 88.632 103.882 89.2233L101.589 85.7047L98.122 66.3232Z" fill="black"/>
<path d="M59.14 172.458C58.0377 171.889 57.3442 173.283 56.3441 174.407C55.6141 175.188 54.5556 176.436 54.395 177.327C54.1541 178.656 55.3513 180.736 56.6726 181.89C57.9939 183.043 59.5269 183.861 60.0087 186.379C60.4905 188.898 61.4687 190.394 64.0821 191.526C66.9437 192.759 70.7762 192.365 72.0756 191.526C73.6159 190.525 72.207 189.438 70.0535 186.35C67.2357 182.32 65.0384 179.437 65.0384 175.677L59.14 172.458Z" fill="#263238"/>
<path d="M61.3957 169.151L59.0816 172.545C58.5924 173.25 58.4009 174.119 58.5485 174.963C58.6961 175.808 59.171 176.56 59.87 177.057L59.943 177.108C60.6453 177.53 61.4732 177.692 62.2827 177.566C63.0922 177.441 63.8322 177.036 64.3741 176.422L67.9803 172.48L61.3957 169.151Z" fill="#B16668"/>
<path d="M102.984 104.801C103.13 109.123 103.889 124.876 100.735 133.147C98.9861 137.843 96.7858 142.359 94.1654 146.63C93.2237 148.244 66.1626 174.589 66.1626 174.589C66.1626 174.589 61.5636 174.254 60.8336 169.801C60.8336 169.801 71.9223 150.945 74.324 147.083C76.7257 143.221 85.2302 137.286 85.2302 137.286L84.4564 101.042L102.984 104.801Z" fill="#37474F"/>
<path d="M97.9166 195.057L103.64 193.756L101.744 185.42L96.0213 186.722L97.9166 195.057Z" fill="#B16668"/>
<path d="M93.45 118C95.4098 116.19 97.165 114.17 98.6841 111.977C103.064 105.933 102.385 100.568 102.385 100.568H100.589L76.9301 101.049C74.5795 104.896 74.0685 110.729 74.8642 116.379C76.5067 128.169 86.2741 148.572 86.2741 148.572C86.1354 150.186 85.4565 156.96 87.0041 162.968C89.435 172.458 96.0488 188.518 96.0488 188.518C96.0488 188.518 100.188 189.109 102.247 186.715C102.247 186.715 98.5965 154.15 97.5964 145.835C96.5087 136.768 93.45 118 93.45 118Z" fill="#37474F"/>
<path d="M102.998 190.927L102.809 190.109C103.415 190.226 105.984 194.489 108.532 196.344C111.32 198.373 113.744 199.57 114.992 200.49C116.657 201.709 114.262 204.22 110.138 204.439C108.101 204.549 104.393 203.928 103.247 202.848C102.1 201.767 101.276 199.928 100.37 199.198C99.4652 198.468 97.6256 197.738 97.0051 196.738C96.6693 196.19 96.6109 194.825 96.6547 193.657C96.6985 192.489 96.7204 191.409 97.0927 191.423C97.0927 191.547 97.2314 192.051 97.2314 192.051C98.309 192.596 99.5068 192.86 100.713 192.818C101.677 192.759 103.473 192.533 102.998 190.927Z" fill="#263238"/>
<path d="M96.8518 140.272C96.8518 140.272 94.0924 120.672 93.45 118C93.45 118 98.3118 116.146 99.8083 114.452C99.8083 114.452 98.7425 116.825 95.2604 118.934L96.8518 140.272Z" fill="#263238"/>
<path d="M82.2372 139.513C82.2372 139.513 85.0842 146.981 86.2668 148.594C86.2668 148.594 85.9675 154.15 86.0113 155.274L84.471 156.61C84.471 156.61 84.398 151.945 85.201 149.12C83.795 146.062 82.7985 142.832 82.2372 139.513Z" fill="#263238"/>
<path d="M101.655 87.2597C102.028 90.6907 102.984 104.78 102.984 104.78C91.6615 110.824 77.6163 106.816 75.4701 104.327C76.5904 100.22 78.7852 96.4855 81.8284 93.5085L78.1784 83.2885C78.1784 83.2885 77.7404 82.2373 77.7477 82.23C77.974 81.8504 83.449 76.9156 80.7553 69.09C80.6601 68.8059 80.6309 68.5038 80.6699 68.2068C80.7089 67.9097 80.8152 67.6254 80.9806 67.3756C81.146 67.1257 81.3661 66.9169 81.6244 66.7649C81.8826 66.6129 82.1721 66.5218 82.4708 66.4985L85.7193 66.2357L94.5377 65.9729C96.6401 66.097 98.1439 66.2941 98.1439 66.2941C99.4944 67.5643 101.626 71.0318 103.006 74.565C103.874 76.8718 104.838 80.5145 101.655 87.2597Z" fill="#407BFF"/>
<path opacity="0.1" d="M80.5217 86.9895L81.8138 81.989L83.4125 93.5376L80.1786 95.3334L81.8284 93.5303L80.1567 88.8656L80.5217 86.9895Z" fill="black"/>
<path d="M99.8594 41.1893C101.319 42.058 103.152 45.7591 102.969 53.5117C102.816 60.0817 100.684 61.7169 99.6185 62.1841C98.5527 62.6513 96.4868 62.3666 94.5085 62.0308V65.9801C94.5085 65.9801 97.4942 71.5062 96.8226 73.7108C95.3626 73.959 93.5303 72.9808 90.9388 71.2215C89.0111 69.7817 87.2614 68.1178 85.7266 66.2648L85.7704 57.1909C85.7704 57.1909 84.5878 58.337 82.5876 56.585C80.9378 55.125 80.3976 52.7087 81.6678 51.3947C82.0014 51.0841 82.4041 50.8573 82.8426 50.7329C83.2811 50.6085 83.7429 50.5901 84.19 50.6792C84.637 50.7683 85.0564 50.9624 85.4137 51.2455C85.771 51.5285 86.0559 51.8924 86.2449 52.3072C86.2449 52.3072 89.4496 52.4313 93.7055 50.1172C95.3611 49.2179 96.7812 47.9407 97.8504 46.3894C98.9197 44.8382 99.608 43.0566 99.8594 41.1893Z" fill="#B16668"/>
<path d="M95.64 51.862C95.6427 52.0256 95.5971 52.1863 95.509 52.3242C95.4208 52.462 95.294 52.5708 95.1443 52.6369C94.9946 52.7031 94.8288 52.7236 94.6675 52.696C94.5063 52.6684 94.3567 52.5939 94.2376 52.4818C94.1184 52.3696 94.035 52.2249 93.9976 52.0655C93.9603 51.9062 93.9708 51.7395 94.0278 51.5861C94.0847 51.4327 94.1856 51.2995 94.3179 51.2031C94.4501 51.1068 94.6078 51.0516 94.7713 51.0444C94.9947 51.0385 95.2113 51.1211 95.3741 51.2742C95.5368 51.4274 95.6324 51.6386 95.64 51.862Z" fill="#263238"/>
<g style="mix-blend-mode:multiply" opacity="0.5">
<path d="M95.8517 57.4099L97.7716 58.0231C97.7364 58.1512 97.6759 58.2709 97.5936 58.3752C97.5113 58.4794 97.4089 58.5661 97.2925 58.6301C97.1761 58.6941 97.0481 58.7341 96.9159 58.7477C96.7838 58.7613 96.6503 58.7482 96.5233 58.7093C96.2646 58.6223 96.0498 58.4381 95.9244 58.1956C95.7991 57.9531 95.773 57.6713 95.8517 57.4099Z" fill="#9A4A4D"/>
</g>
<path d="M102.407 49.3215L100.75 48.1681C100.819 48.0551 100.911 47.9575 101.02 47.8814C101.129 47.8052 101.252 47.7522 101.382 47.7255C101.512 47.6988 101.646 47.6991 101.776 47.7262C101.906 47.7534 102.029 47.8069 102.137 47.8834C102.36 48.0411 102.513 48.2793 102.563 48.5477C102.614 48.8162 102.558 49.0937 102.407 49.3215Z" fill="#263238"/>
<path d="M102.02 51.2634C102.029 51.3739 102.016 51.4851 101.981 51.5904C101.947 51.6957 101.891 51.793 101.819 51.8767C101.746 51.9603 101.657 52.0286 101.558 52.0775C101.458 52.1263 101.35 52.1548 101.239 52.1613C101.068 52.1771 100.896 52.1413 100.745 52.0585C100.594 51.9756 100.472 51.8495 100.393 51.6964C100.315 51.5433 100.284 51.3702 100.305 51.1994C100.325 51.0286 100.397 50.868 100.51 50.7382C100.623 50.6084 100.772 50.5154 100.938 50.4711C101.104 50.4269 101.28 50.4334 101.443 50.4899C101.605 50.5464 101.747 50.6503 101.85 50.7882C101.953 50.926 102.012 51.0915 102.02 51.2634Z" fill="#263238"/>
<g style="mix-blend-mode:multiply" opacity="0.5">
<path d="M98.122 50.7961L98.2534 55.7674L100.874 54.9571L98.122 50.7961Z" fill="#9A4A4D"/>
</g>
<g style="mix-blend-mode:multiply" opacity="0.5">
<path d="M94.4793 62.0309C92.3623 61.7535 88.0115 60.5051 87.3326 58.7823C87.6061 59.6508 88.1385 60.4149 88.8583 60.9723C90.1577 62.0819 94.4793 63.3376 94.4793 63.3376V62.0309Z" fill="#9A4A4D"/>
</g>
<path d="M68.4694 99.6915C68.5205 98.9615 69.8564 91.3914 70.7689 87.1501L79.6895 89.8803L78.2295 95.8298L70.82 103.006C70.0745 102.867 69.4124 102.443 68.9737 101.825C68.535 101.206 68.3542 100.441 68.4694 99.6915Z" fill="#B16668"/>
<path d="M82.4489 66.5277C79.0252 66.827 74.5138 67.338 72.3676 77.0835C70.3528 86.2158 69.8564 89.4059 69.8564 89.4059C69.8564 89.4059 72.4917 92.742 79.3099 92.377L81.8138 81.9891C86.3763 75.9812 84.909 71.6815 82.4489 66.5277Z" fill="#407BFF"/>
<path d="M111.291 92.6252C112.518 90.3476 112.824 90.2454 113.547 89.7052C114.27 89.165 118.752 88.5372 120.606 88.3839C122.796 88.2014 123.563 88.6029 122.957 90.479C121.657 94.494 117.715 103.02 116.832 104.203C116.255 104.933 116.138 105.663 113.686 105.926C111.393 106.152 108.517 106.276 107.67 106.327C106.824 106.378 105.656 106.59 106.415 104.101C107.381 101.285 108.499 98.524 109.766 95.8299C110.707 93.8151 111.291 92.6252 111.291 92.6252Z" fill="#263238"/>
<path d="M78.2587 95.8298C78.2587 95.8298 98.0855 97.9249 100.648 97.1292C103.21 96.3335 106.67 93.7639 108.524 92.7054C110.379 91.6469 111.707 91.552 111.707 91.9754C111.707 92.3988 110.123 94.8443 109.766 95.8444C109.408 96.8445 111.474 96.8445 114.189 96.224C116.905 95.6035 117.993 94.034 118.701 94.9392C119.409 95.8444 117.197 100.378 112.686 102.064C108.174 103.75 104.823 102.633 101.1 102.794C97.3774 102.955 76.0176 104.619 70.8419 102.991C70.7112 102.167 70.8087 101.323 71.1241 100.551C71.4394 99.7789 71.9604 99.1079 72.6304 98.6111C74.3039 97.3206 76.217 96.3753 78.2587 95.8298Z" fill="#B16668"/>
<path d="M204.987 25.1659L210.425 22.0269C210.395 21.8067 210.381 21.5848 210.381 21.3626V19.7858C210.463 18.2631 210.903 16.7812 211.664 15.4597C212.424 14.1383 213.486 13.0145 214.761 12.1792C215.142 11.9229 215.57 11.7462 216.02 11.6596C216.471 11.5731 216.934 11.5785 217.382 11.6755C217.784 7.68969 220.543 3.1856 223.901 1.2511C227.551 -0.844005 230.471 0.849596 230.471 5.0471V7.3977C230.457 8.54344 230.27 9.68051 229.916 10.7703L234.435 8.1642C235.778 7.3904 236.866 8.0182 236.866 9.5731C236.82 10.4179 236.577 11.2401 236.154 11.9731C235.732 12.7062 235.143 13.3294 234.435 13.7925L204.987 30.7942C203.644 31.568 202.556 30.9402 202.556 29.3853C202.601 28.5405 202.845 27.7183 203.267 26.9853C203.69 26.2522 204.279 25.6289 204.987 25.1659Z" fill="#F0F0F0"/>
<path d="M178.948 61.6732L183.05 59.3007C183.026 59.1339 183.014 58.9656 183.014 58.797V57.6144C183.077 56.464 183.41 55.3445 183.985 54.3464C184.561 53.3484 185.364 52.4998 186.328 51.8693C186.615 51.6753 186.938 51.5416 187.278 51.4763C187.618 51.4111 187.968 51.4156 188.306 51.4897C188.509 49.9005 189.054 48.374 189.903 47.0155C190.753 45.657 191.886 44.4987 193.226 43.6203C195.964 42.0362 198.19 43.321 198.19 46.4819V48.2631C198.179 49.1265 198.036 49.983 197.767 50.8035L201.176 48.8398C202.191 48.2558 203.016 48.7303 203.016 49.8983C202.981 50.537 202.796 51.1585 202.476 51.7127C202.157 52.2668 201.711 52.7381 201.176 53.0884L178.948 65.9145C177.933 66.5058 177.108 66.0313 177.108 64.856C177.143 64.2182 177.327 63.5975 177.647 63.0444C177.966 62.4914 178.412 62.0216 178.948 61.6732Z" fill="#F0F0F0"/>
</svg>
