<svg width="393" height="406" viewBox="0 0 393 406" fill="none" xmlns="http://www.w3.org/2000/svg">
<path d="M325.214 83.636C305.011 37.5712 256.518 20.2269 218.257 51.156C203.316 63.2223 193.994 82.4261 175.7 90.132C158.534 97.3588 136.789 95.2313 118.227 99.1452C78.6985 107.428 25.48 138.852 29.54 187.272C31.3183 208.481 45.6257 232.037 52.6982 251.882C60.8182 274.716 65.6902 303.282 87.1839 316.932C124.032 340.366 168.481 321.211 201.676 302.316C219.54 292.158 229.373 285.913 248.609 289.397C266.417 292.645 282.454 304.013 299.855 290.525C312.92 280.4 314 259.881 324.97 247.83C337.329 234.254 349.858 233.271 356.281 212.866C364.068 188.108 352.594 172.639 344.84 150.52C337.085 128.402 334.73 105.308 325.214 83.636Z" fill="#407BFF"/>
<g opacity="0.7">
<path d="M325.214 83.636C305.011 37.5712 256.518 20.2269 218.257 51.156C203.316 63.2223 193.994 82.4261 175.7 90.132C158.534 97.3588 136.789 95.2313 118.227 99.1452C78.6985 107.428 25.48 138.852 29.54 187.272C31.3183 208.481 45.6257 232.037 52.6982 251.882C60.8182 274.716 65.6902 303.282 87.1839 316.932C124.032 340.366 168.481 321.211 201.676 302.316C219.54 292.158 229.373 285.913 248.609 289.397C266.417 292.645 282.454 304.013 299.855 290.525C312.92 280.4 314 259.881 324.97 247.83C337.329 234.254 349.858 233.271 356.281 212.866C364.068 188.108 352.594 172.639 344.84 150.52C337.085 128.402 334.73 105.308 325.214 83.636Z" fill="white"/>
</g>
<path d="M171.486 355.396C240.808 355.396 297.005 351.895 297.005 347.577C297.005 343.258 240.808 339.757 171.486 339.757C102.164 339.757 45.9668 343.258 45.9668 347.577C45.9668 351.895 102.164 355.396 171.486 355.396Z" fill="#407BFF"/>
<path opacity="0.8" d="M171.486 355.396C240.808 355.396 297.005 351.895 297.005 347.577C297.005 343.258 240.808 339.757 171.486 339.757C102.164 339.757 45.9668 343.258 45.9668 347.577C45.9668 351.895 102.164 355.396 171.486 355.396Z" fill="white"/>
<path d="M265.808 50.2303H139.598C130.885 50.2303 123.821 57.294 123.821 66.0075V332.457C123.821 341.171 130.885 348.234 139.598 348.234H265.808C274.521 348.234 281.585 341.171 281.585 332.457V66.0075C281.585 57.294 274.521 50.2303 265.808 50.2303Z" fill="#263238"/>
<path d="M274.569 82.954H130.829V315.511H274.569V82.954Z" fill="white" stroke="#263238" stroke-width="1.33739" stroke-miterlimit="10"/>
<path d="M224.734 177.123C236.901 164.956 236.901 145.228 224.734 133.061C212.566 120.894 192.839 120.894 180.672 133.061C168.505 145.228 168.505 164.956 180.672 177.123C192.839 189.29 212.566 189.29 224.734 177.123Z" fill="#407BFF"/>
<path d="M243.608 300.887H161.807C161.623 300.888 161.44 300.852 161.27 300.783C161.099 300.713 160.944 300.61 160.814 300.48C160.683 300.351 160.58 300.196 160.509 300.026C160.438 299.856 160.402 299.674 160.402 299.49C160.401 299.305 160.436 299.122 160.507 298.951C160.577 298.78 160.68 298.625 160.811 298.494C160.942 298.364 161.097 298.26 161.268 298.19C161.439 298.12 161.622 298.084 161.807 298.085H243.608C243.792 298.085 243.974 298.122 244.144 298.192C244.314 298.263 244.468 298.367 244.598 298.497C244.728 298.628 244.831 298.783 244.9 298.953C244.97 299.123 245.005 299.306 245.004 299.49C245.004 299.86 244.857 300.216 244.595 300.478C244.333 300.739 243.978 300.887 243.608 300.887Z" fill="#407BFF"/>
<path d="M246.271 203.763H159.135C157.337 203.763 155.879 205.221 155.879 207.019V217.291C155.879 219.09 157.337 220.547 159.135 220.547H246.271C248.069 220.547 249.527 219.09 249.527 217.291V207.019C249.527 205.221 248.069 203.763 246.271 203.763Z" fill="#407BFF"/>
<path d="M246.271 235.155H159.135C157.337 235.155 155.879 236.613 155.879 238.411V248.683C155.879 250.482 157.337 251.939 159.135 251.939H246.271C248.069 251.939 249.527 250.482 249.527 248.683V238.411C249.527 236.613 248.069 235.155 246.271 235.155Z" fill="#407BFF"/>
<path d="M218.216 170.634L209.049 165.356V160.995C210.376 159.389 211.338 157.513 211.866 155.498C212.182 155.61 212.514 155.668 212.849 155.669C213.986 155.669 214.708 152.144 214.83 149.627C216.154 146.826 214.351 145.186 214.351 145.186C214.351 145.186 215.098 144.439 215.594 141.442C216.089 138.446 213.848 139.697 212.102 136.952C210.356 134.207 209.106 131.219 203.373 131.219C201.793 131.167 200.235 131.592 198.899 132.437C197.564 133.283 196.514 134.511 195.886 135.961C194.459 135.966 193.037 136.133 191.648 136.457C189.894 136.952 189.398 142.693 190.893 144.942C191.561 146.171 191.918 147.546 191.932 148.945C191.534 148.458 191.12 148.328 190.893 149.432C190.397 151.925 192.395 155.417 192.395 155.417L193.426 155.124C193.945 157.278 194.948 159.286 196.357 160.995V165.356L187.19 170.634C186.119 171.252 185.23 172.141 184.611 173.211C183.993 174.281 183.667 175.496 183.666 176.732V179.752C189.118 183.964 195.813 186.249 202.703 186.249C209.593 186.249 216.288 183.964 221.74 179.752V176.732C221.741 175.495 221.416 174.28 220.797 173.21C220.178 172.139 219.288 171.251 218.216 170.634Z" fill="#263238"/>
<path d="M167.742 247.766C167.532 247.763 167.331 247.678 167.182 247.53C167.102 247.459 167.038 247.371 166.995 247.273C166.952 247.175 166.93 247.069 166.93 246.962C166.933 246.815 166.975 246.672 167.052 246.548L168.514 244.209L165.664 244.298C165.556 244.305 165.449 244.289 165.348 244.251C165.247 244.213 165.156 244.155 165.079 244.079C164.947 243.93 164.873 243.738 164.873 243.539C164.873 243.34 164.947 243.148 165.079 242.999C165.154 242.921 165.245 242.86 165.346 242.82C165.447 242.781 165.556 242.765 165.664 242.772L168.473 242.877L167.028 240.547C166.949 240.42 166.907 240.274 166.906 240.125C166.905 240.018 166.927 239.911 166.971 239.813C167.014 239.715 167.078 239.628 167.158 239.556C167.307 239.408 167.508 239.324 167.718 239.321C167.856 239.322 167.992 239.362 168.108 239.437C168.225 239.511 168.317 239.618 168.376 239.743L169.764 242.252L171.137 239.759C171.202 239.626 171.302 239.514 171.426 239.433C171.551 239.353 171.695 239.309 171.843 239.305C171.946 239.305 172.047 239.327 172.141 239.369C172.234 239.411 172.318 239.472 172.387 239.548C172.536 239.703 172.618 239.91 172.614 240.125C172.614 240.264 172.578 240.401 172.509 240.523L171.039 242.877L173.889 242.772C173.997 242.765 174.106 242.781 174.207 242.82C174.308 242.86 174.399 242.921 174.474 242.999C174.612 243.143 174.688 243.336 174.685 243.535C174.684 243.736 174.609 243.93 174.474 244.079C174.397 244.155 174.306 244.213 174.205 244.251C174.104 244.289 173.997 244.305 173.889 244.298L171.023 244.209L172.452 246.523C172.532 246.652 172.574 246.802 172.574 246.954C172.574 247.169 172.488 247.375 172.336 247.528C172.184 247.68 171.977 247.766 171.762 247.766C171.623 247.764 171.487 247.721 171.372 247.643C171.256 247.565 171.166 247.456 171.112 247.327L169.756 244.891L168.408 247.327C168.348 247.454 168.255 247.563 168.137 247.64C168.02 247.718 167.883 247.761 167.742 247.766Z" fill="#263238"/>
<path d="M180.913 247.766C180.703 247.763 180.502 247.678 180.353 247.53C180.273 247.459 180.209 247.371 180.166 247.273C180.122 247.175 180.1 247.069 180.101 246.962C180.104 246.815 180.146 246.672 180.223 246.548L181.684 244.209L178.842 244.298C178.734 244.303 178.626 244.286 178.524 244.249C178.422 244.211 178.329 244.153 178.25 244.079C178.142 243.968 178.07 243.827 178.044 243.674C178.017 243.522 178.037 243.365 178.101 243.224C178.165 243.083 178.27 242.964 178.402 242.884C178.534 242.803 178.688 242.764 178.842 242.772L181.644 242.877L180.198 240.547C180.12 240.42 180.078 240.274 180.077 240.125C180.076 240.018 180.098 239.911 180.141 239.813C180.185 239.715 180.249 239.628 180.328 239.556C180.478 239.408 180.678 239.324 180.889 239.321C181.027 239.322 181.162 239.362 181.279 239.437C181.395 239.511 181.488 239.618 181.546 239.743L182.935 242.252L184.307 239.759C184.372 239.626 184.473 239.514 184.597 239.433C184.722 239.353 184.866 239.309 185.014 239.305C185.116 239.304 185.218 239.326 185.312 239.368C185.406 239.41 185.49 239.471 185.558 239.548C185.633 239.624 185.692 239.714 185.733 239.813C185.773 239.912 185.794 240.018 185.793 240.125C185.79 240.265 185.751 240.402 185.679 240.523L184.21 242.877L187.068 242.788C187.175 242.781 187.282 242.797 187.382 242.837C187.482 242.876 187.571 242.937 187.645 243.015C187.783 243.159 187.859 243.352 187.856 243.551C187.855 243.753 187.78 243.946 187.645 244.095C187.57 244.171 187.479 244.229 187.38 244.267C187.281 244.305 187.174 244.321 187.068 244.315L184.194 244.225L185.623 246.539C185.703 246.669 185.745 246.818 185.744 246.97C185.744 247.185 185.659 247.392 185.507 247.544C185.354 247.696 185.148 247.782 184.932 247.782C184.793 247.78 184.658 247.738 184.542 247.66C184.427 247.582 184.337 247.472 184.283 247.343L182.927 244.907L181.579 247.343C181.517 247.468 181.422 247.573 181.305 247.647C181.187 247.722 181.052 247.763 180.913 247.766Z" fill="#263238"/>
<path d="M194.092 247.766C193.879 247.765 193.675 247.68 193.523 247.53C193.444 247.459 193.38 247.371 193.336 247.273C193.293 247.175 193.271 247.069 193.272 246.962C193.274 246.815 193.316 246.672 193.393 246.548L194.855 244.209L192.013 244.298C191.86 244.304 191.709 244.265 191.578 244.185C191.448 244.104 191.344 243.987 191.281 243.848C191.217 243.708 191.196 243.553 191.221 243.402C191.246 243.251 191.315 243.111 191.42 242.999C191.497 242.921 191.59 242.86 191.692 242.821C191.794 242.782 191.904 242.765 192.013 242.772L194.814 242.877L193.369 240.547C193.291 240.42 193.248 240.274 193.247 240.125C193.25 240.018 193.273 239.913 193.317 239.815C193.36 239.718 193.422 239.63 193.499 239.556C193.65 239.406 193.854 239.322 194.067 239.321C194.204 239.323 194.338 239.364 194.453 239.439C194.568 239.513 194.659 239.619 194.717 239.743L196.106 242.252L197.478 239.759C197.543 239.626 197.643 239.514 197.768 239.433C197.892 239.353 198.036 239.309 198.184 239.305C198.287 239.304 198.389 239.326 198.483 239.368C198.576 239.41 198.66 239.471 198.728 239.548C198.804 239.624 198.863 239.714 198.904 239.813C198.944 239.912 198.964 240.018 198.964 240.125C198.961 240.265 198.922 240.402 198.85 240.523L197.38 242.877L200.239 242.772C200.344 242.761 200.45 242.773 200.55 242.807C200.65 242.841 200.741 242.896 200.818 242.969C200.895 243.041 200.956 243.129 200.996 243.227C201.036 243.324 201.055 243.43 201.051 243.535C201.052 243.735 200.98 243.929 200.848 244.079C200.771 244.155 200.68 244.214 200.579 244.251C200.478 244.289 200.37 244.305 200.263 244.298L197.397 244.209L198.818 246.523C198.898 246.652 198.94 246.802 198.939 246.954C198.937 247.06 198.913 247.165 198.87 247.263C198.827 247.36 198.765 247.448 198.688 247.522C198.617 247.598 198.532 247.659 198.437 247.701C198.342 247.743 198.239 247.765 198.136 247.766C197.998 247.763 197.863 247.72 197.749 247.642C197.635 247.565 197.546 247.455 197.494 247.327L196.13 244.891L194.782 247.327C194.721 247.459 194.624 247.57 194.501 247.648C194.379 247.726 194.237 247.767 194.092 247.766Z" fill="#263238"/>
<path d="M207.262 247.766C207.049 247.765 206.845 247.68 206.694 247.53C206.541 247.38 206.453 247.176 206.45 246.962C206.448 246.816 206.487 246.672 206.564 246.548L208.026 244.209L205.184 244.298C205.075 244.303 204.967 244.286 204.865 244.249C204.763 244.211 204.67 244.153 204.591 244.079C204.459 243.93 204.385 243.738 204.385 243.539C204.385 243.34 204.459 243.148 204.591 242.999C204.669 242.923 204.762 242.864 204.864 242.825C204.966 242.786 205.075 242.768 205.184 242.772L207.993 242.877L206.556 240.547C206.477 240.42 206.435 240.274 206.434 240.125C206.437 240.018 206.46 239.913 206.503 239.815C206.547 239.718 206.609 239.63 206.686 239.556C206.837 239.406 207.041 239.322 207.254 239.321C207.393 239.322 207.528 239.362 207.644 239.437C207.761 239.511 207.854 239.618 207.912 239.743L209.292 242.252L210.665 239.759C210.73 239.626 210.83 239.514 210.955 239.433C211.079 239.353 211.223 239.309 211.371 239.305C211.474 239.304 211.576 239.326 211.669 239.368C211.763 239.41 211.847 239.471 211.915 239.548C211.99 239.624 212.05 239.714 212.09 239.813C212.131 239.912 212.151 240.018 212.151 240.125C212.148 240.265 212.109 240.402 212.037 240.523L210.567 242.877L213.425 242.772C213.531 242.761 213.637 242.773 213.737 242.807C213.837 242.841 213.928 242.896 214.005 242.969C214.082 243.041 214.143 243.129 214.183 243.227C214.223 243.324 214.241 243.43 214.237 243.535C214.239 243.735 214.167 243.929 214.034 244.079C213.958 244.155 213.866 244.213 213.766 244.251C213.665 244.289 213.557 244.305 213.45 244.298L210.583 244.209L212.004 246.523C212.085 246.652 212.127 246.802 212.126 246.954C212.127 247.061 212.105 247.167 212.062 247.265C212.018 247.363 211.954 247.451 211.875 247.522C211.804 247.598 211.719 247.659 211.624 247.701C211.529 247.743 211.426 247.765 211.322 247.766C211.184 247.763 211.05 247.72 210.936 247.642C210.822 247.565 210.733 247.455 210.681 247.327L209.317 244.891L207.969 247.327C207.907 247.461 207.807 247.574 207.681 247.652C207.556 247.73 207.41 247.77 207.262 247.766Z" fill="#263238"/>
<path d="M220.433 247.766C220.22 247.765 220.016 247.68 219.865 247.53C219.739 247.403 219.659 247.237 219.637 247.06C219.615 246.882 219.652 246.702 219.743 246.548L221.196 244.209L218.354 244.298C218.246 244.303 218.138 244.286 218.036 244.249C217.934 244.211 217.841 244.153 217.762 244.079C217.629 243.93 217.556 243.738 217.556 243.539C217.556 243.34 217.629 243.148 217.762 242.999C217.84 242.923 217.933 242.864 218.035 242.825C218.137 242.786 218.245 242.768 218.354 242.772L221.164 242.877L219.719 240.547C219.64 240.42 219.598 240.274 219.597 240.125C219.6 239.911 219.687 239.706 219.84 239.556C219.992 239.406 220.196 239.322 220.409 239.321C220.547 239.322 220.682 239.362 220.799 239.437C220.915 239.511 221.008 239.618 221.066 239.743L222.447 242.252L223.819 239.759C223.884 239.626 223.984 239.514 224.109 239.433C224.233 239.353 224.378 239.309 224.526 239.305C224.63 239.304 224.732 239.325 224.828 239.367C224.923 239.409 225.008 239.471 225.078 239.548C225.227 239.703 225.308 239.91 225.305 240.125C225.302 240.265 225.263 240.402 225.191 240.523L223.722 242.877L226.58 242.772C226.685 242.761 226.791 242.773 226.891 242.807C226.991 242.841 227.083 242.896 227.16 242.969C227.237 243.041 227.297 243.129 227.337 243.227C227.377 243.324 227.396 243.43 227.392 243.535C227.394 243.735 227.321 243.929 227.189 244.079C227.112 244.155 227.021 244.214 226.92 244.251C226.819 244.289 226.712 244.305 226.604 244.298L223.738 244.209L225.159 246.523C225.239 246.652 225.281 246.802 225.281 246.954C225.281 247.061 225.259 247.167 225.216 247.265C225.173 247.363 225.109 247.451 225.029 247.522C224.958 247.598 224.873 247.659 224.778 247.701C224.683 247.743 224.581 247.765 224.477 247.766C224.339 247.763 224.204 247.72 224.09 247.642C223.976 247.565 223.888 247.455 223.835 247.327L222.471 244.891L221.123 247.327C221.062 247.459 220.965 247.57 220.843 247.648C220.72 247.726 220.578 247.767 220.433 247.766Z" fill="#263238"/>
<path d="M233.604 247.766C233.394 247.763 233.193 247.678 233.043 247.53C232.964 247.459 232.9 247.371 232.856 247.273C232.813 247.175 232.791 247.069 232.792 246.962C232.794 246.815 232.836 246.672 232.914 246.548L234.367 244.209L231.525 244.298C231.42 244.306 231.315 244.292 231.217 244.257C231.118 244.222 231.027 244.167 230.951 244.096C230.875 244.024 230.814 243.937 230.773 243.84C230.732 243.744 230.712 243.64 230.713 243.535C230.713 243.436 230.732 243.337 230.769 243.245C230.807 243.153 230.862 243.07 230.932 242.999C231.007 242.921 231.098 242.86 231.199 242.82C231.3 242.781 231.409 242.765 231.517 242.772L234.326 242.877L232.881 240.547C232.802 240.42 232.76 240.274 232.759 240.125C232.762 239.911 232.85 239.706 233.003 239.556C233.154 239.406 233.358 239.322 233.571 239.321C233.71 239.322 233.845 239.362 233.961 239.437C234.078 239.511 234.171 239.618 234.229 239.743L235.609 242.252L236.99 239.759C237.054 239.627 237.153 239.516 237.276 239.436C237.399 239.355 237.541 239.31 237.688 239.305C237.792 239.304 237.895 239.325 237.99 239.367C238.085 239.409 238.171 239.471 238.24 239.548C238.389 239.703 238.471 239.91 238.468 240.125C238.467 240.264 238.431 240.401 238.362 240.523L236.892 242.877L239.742 242.772C239.851 242.765 239.959 242.781 240.06 242.82C240.161 242.86 240.252 242.921 240.327 242.999C240.466 243.143 240.541 243.336 240.538 243.535C240.538 243.736 240.462 243.93 240.327 244.079C240.251 244.155 240.159 244.214 240.058 244.251C239.957 244.289 239.85 244.305 239.742 244.298L236.876 244.209L238.297 246.523C238.377 246.652 238.419 246.802 238.419 246.954C238.416 247.168 238.328 247.372 238.175 247.522C238.027 247.673 237.826 247.76 237.615 247.766C237.477 247.763 237.343 247.72 237.229 247.642C237.115 247.565 237.026 247.455 236.974 247.327L235.609 244.891L234.261 247.327C234.203 247.454 234.111 247.562 233.995 247.639C233.878 247.717 233.743 247.76 233.604 247.766Z" fill="#263238"/>
<g style="mix-blend-mode:multiply">
<path d="M274.569 83.2625H130.829V92.2675H274.569V83.2625Z" fill="#407BFF"/>
</g>
<path d="M218.33 66.6733H187.068C186.504 66.6733 185.963 66.4492 185.564 66.0502C185.165 65.6513 184.941 65.1101 184.941 64.5459C184.941 63.9817 185.165 63.4405 185.564 63.0416C185.963 62.6426 186.504 62.4185 187.068 62.4185H218.33C218.894 62.4185 219.435 62.6426 219.834 63.0416C220.233 63.4405 220.457 63.9817 220.457 64.5459C220.457 65.1101 220.233 65.6513 219.834 66.0502C219.435 66.4492 218.894 66.6733 218.33 66.6733Z" fill="#407BFF" stroke="#263238" stroke-width="1.33739" stroke-linecap="round" stroke-linejoin="round"/>
<path d="M211.225 328.649C211.227 326.962 210.728 325.312 209.791 323.909C208.855 322.506 207.524 321.412 205.965 320.765C204.407 320.119 202.692 319.949 201.038 320.278C199.383 320.607 197.863 321.419 196.67 322.612C195.477 323.805 194.665 325.325 194.336 326.979C194.008 328.634 194.177 330.349 194.824 331.907C195.47 333.466 196.564 334.797 197.967 335.733C199.371 336.669 201.02 337.168 202.707 337.167C204.966 337.165 207.131 336.266 208.728 334.67C210.325 333.073 211.223 330.907 211.225 328.649Z" fill="#407BFF"/>
<path d="M207.027 324.329H198.387V332.969H207.027V324.329Z" fill="#407BFF" stroke="#263238" stroke-width="1.33739" stroke-linecap="round" stroke-linejoin="round"/>
<path d="M305.62 230.608C305.62 230.608 294.301 201.847 304.378 198.428C314.869 194.864 314.406 213.856 314 223.113C313.147 242.894 310.963 246.572 309.331 241.741L305.62 230.608ZM302.218 253.044C305.328 257.104 306.205 252.897 300.594 233.905C297.963 224.973 292.246 206.906 283.477 213.686C275.056 220.182 295.097 243.73 295.097 243.73L302.218 253.044ZM296.209 269.527C299.173 272.158 299.23 268.837 292.19 255.122C288.885 248.699 281.893 235.699 276.169 242.13C270.672 248.334 289.404 263.413 289.404 263.413L296.209 269.527ZM289.713 289.129C292.677 291.768 292.734 288.439 285.694 274.732C282.389 268.309 275.397 255.301 269.673 261.74C264.208 267.96 282.884 283.039 282.884 283.039L289.713 289.129ZM308.47 249.227C303.728 251.079 307.496 253.092 327.3 253.035C336.59 253.035 355.558 252.613 351.514 242.293C347.641 232.378 319.432 245.005 319.432 245.005L308.47 249.227ZM303.07 262.414C298.052 263.283 301.349 266.011 320.772 269.893C329.874 271.72 348.542 275.089 346.634 264.209C344.807 253.718 314.649 260.49 314.649 260.49L303.07 262.414ZM297.029 278.516C292.758 279.133 295.486 281.512 311.816 285.247C319.473 287.001 335.185 290.29 333.821 281.009C332.522 272.077 306.862 277.127 306.862 277.127L297.029 278.516ZM292.441 293.432C288.259 294.496 291.223 296.575 307.869 298.556C315.664 299.482 331.637 301.09 329.306 292.003C327.057 283.282 302.08 291.005 302.08 291.005L292.441 293.432ZM316.915 233.044C314.479 238.501 319.538 237.672 336.736 222.667C344.791 215.627 360.95 200.897 348.153 193.565C335.867 186.516 322.656 220.523 322.656 220.523L316.915 233.044ZM293.075 312.864C290.501 314.366 293.026 314.95 304.832 312.596C310.37 311.499 321.633 309.063 317.824 304.256C314.138 299.628 299.035 309.372 299.035 309.372L293.075 312.864Z" fill="#407BFF"/>
<path opacity="0.3" d="M305.62 230.608C305.62 230.608 294.301 201.847 304.378 198.428C314.869 194.864 314.406 213.856 314 223.113C313.147 242.894 310.963 246.572 309.331 241.741L305.62 230.608ZM302.218 253.044C305.328 257.104 306.205 252.897 300.594 233.905C297.963 224.973 292.246 206.906 283.477 213.686C275.056 220.182 295.097 243.73 295.097 243.73L302.218 253.044ZM296.209 269.527C299.173 272.158 299.23 268.837 292.19 255.122C288.885 248.699 281.893 235.699 276.169 242.13C270.672 248.334 289.404 263.413 289.404 263.413L296.209 269.527ZM289.713 289.129C292.677 291.768 292.734 288.439 285.694 274.732C282.389 268.309 275.397 255.301 269.673 261.74C264.208 267.96 282.884 283.039 282.884 283.039L289.713 289.129ZM308.47 249.227C303.728 251.079 307.496 253.092 327.3 253.035C336.59 253.035 355.558 252.613 351.514 242.293C347.641 232.378 319.432 245.005 319.432 245.005L308.47 249.227ZM303.07 262.414C298.052 263.283 301.349 266.011 320.772 269.893C329.874 271.72 348.542 275.089 346.634 264.209C344.807 253.718 314.649 260.49 314.649 260.49L303.07 262.414ZM297.029 278.516C292.758 279.133 295.486 281.512 311.816 285.247C319.473 287.001 335.185 290.29 333.821 281.009C332.522 272.077 306.862 277.127 306.862 277.127L297.029 278.516ZM292.441 293.432C288.259 294.496 291.223 296.575 307.869 298.556C315.664 299.482 331.637 301.09 329.306 292.003C327.057 283.282 302.08 291.005 302.08 291.005L292.441 293.432ZM316.915 233.044C314.479 238.501 319.538 237.672 336.736 222.667C344.791 215.627 360.95 200.897 348.153 193.565C335.867 186.516 322.656 220.523 322.656 220.523L316.915 233.044ZM293.075 312.864C290.501 314.366 293.026 314.95 304.832 312.596C310.37 311.499 321.633 309.063 317.824 304.256C314.138 299.628 299.035 309.372 299.035 309.372L293.075 312.864Z" fill="white"/>
<path d="M310.614 243.998L308.641 211.169L310.614 243.998ZM304.369 254.83L291.897 226.597L304.369 254.83ZM336.557 246.621L306.667 250.908L336.557 246.621ZM297.906 270.047L281.723 249.284L297.906 270.047ZM300.748 263.681L323.045 264.801L300.748 263.681ZM295.47 279.604L312.522 281.293L295.47 279.604ZM291.353 289.722L282.884 276.981L291.353 289.722ZM290.379 294.22L310.427 294.407L290.379 294.22ZM286.319 331.832C286.453 331.822 286.578 331.759 286.666 331.657C286.754 331.555 286.799 331.422 286.79 331.288C285.515 312.141 292.92 280.782 304.8 255.041C312.392 238.59 342.152 206.256 342.469 205.931C342.564 205.835 342.618 205.706 342.618 205.57C342.618 205.435 342.564 205.305 342.469 205.209C342.422 205.162 342.366 205.124 342.305 205.099C342.243 205.073 342.178 205.06 342.111 205.06C342.045 205.06 341.979 205.073 341.918 205.099C341.856 205.124 341.801 205.162 341.754 205.209C341.454 205.533 311.572 237.989 303.915 254.586C291.816 280.952 284.508 311.743 285.807 331.353C285.817 331.482 285.875 331.603 285.97 331.692C286.065 331.78 286.189 331.83 286.319 331.832ZM310.606 244.501C310.74 244.493 310.866 244.432 310.955 244.332C311.045 244.231 311.091 244.1 311.085 243.965L309.144 211.12C309.141 211.053 309.125 210.988 309.096 210.927C309.067 210.867 309.027 210.813 308.977 210.768C308.927 210.723 308.868 210.689 308.805 210.667C308.742 210.646 308.675 210.637 308.608 210.641C308.474 210.649 308.348 210.71 308.259 210.811C308.169 210.911 308.122 211.043 308.129 211.177L310.102 244.006C310.108 244.135 310.164 244.257 310.258 244.346C310.352 244.436 310.476 244.485 310.606 244.485V244.501ZM304.548 255.293C304.67 255.238 304.765 255.137 304.814 255.013C304.862 254.888 304.86 254.75 304.808 254.627L292.328 226.394C292.274 226.271 292.173 226.175 292.048 226.126C291.924 226.077 291.784 226.08 291.662 226.134C291.539 226.188 291.443 226.288 291.394 226.413C291.345 226.538 291.348 226.677 291.402 226.8L303.874 255.033C303.913 255.124 303.978 255.201 304.06 255.256C304.142 255.31 304.238 255.34 304.337 255.342C304.421 255.346 304.505 255.329 304.581 255.293H304.548ZM306.708 251.395L336.582 247.124C336.654 247.123 336.725 247.106 336.79 247.075C336.855 247.044 336.913 247 336.96 246.945C337.007 246.89 337.042 246.826 337.062 246.757C337.082 246.687 337.088 246.615 337.078 246.543C337.068 246.472 337.043 246.403 337.005 246.342C336.967 246.281 336.916 246.228 336.856 246.188C336.796 246.148 336.729 246.121 336.657 246.108C336.586 246.096 336.513 246.099 336.444 246.117L306.57 250.388C306.437 250.397 306.312 250.458 306.224 250.559C306.135 250.659 306.09 250.791 306.099 250.924C306.108 251.058 306.169 251.182 306.269 251.271C306.37 251.359 306.501 251.404 306.635 251.395H306.708ZM298.19 270.453C298.296 270.37 298.365 270.248 298.382 270.114C298.399 269.98 298.362 269.845 298.28 269.738L282.088 248.935C282.005 248.827 281.883 248.757 281.748 248.739C281.613 248.722 281.477 248.759 281.37 248.842C281.262 248.924 281.192 249.047 281.174 249.181C281.157 249.316 281.193 249.452 281.276 249.56L297.5 270.396C297.547 270.457 297.607 270.506 297.676 270.54C297.745 270.573 297.821 270.591 297.898 270.591C298.019 270.585 298.134 270.536 298.223 270.453H298.19ZM323.492 264.826C323.497 264.691 323.448 264.561 323.357 264.462C323.266 264.363 323.139 264.304 323.005 264.298L300.748 263.169C300.623 263.178 300.505 263.232 300.418 263.322C300.33 263.411 300.278 263.53 300.272 263.655C300.266 263.78 300.306 263.903 300.385 264.001C300.464 264.098 300.576 264.164 300.699 264.184L322.997 265.313C323.131 265.317 323.262 265.269 323.361 265.178C323.459 265.086 323.518 264.96 323.525 264.826H323.492ZM312.993 281.342C313.001 281.275 312.995 281.207 312.976 281.143C312.958 281.078 312.926 281.018 312.884 280.966C312.841 280.913 312.789 280.87 312.73 280.839C312.67 280.807 312.605 280.788 312.538 280.782L295.486 279.101C295.42 279.094 295.353 279.1 295.29 279.12C295.226 279.139 295.167 279.171 295.115 279.213C295.064 279.255 295.022 279.307 294.99 279.366C294.959 279.425 294.94 279.489 294.934 279.555C294.923 279.689 294.964 279.821 295.049 279.924C295.134 280.027 295.256 280.093 295.389 280.108L312.441 281.797H312.49C312.62 281.806 312.75 281.763 312.85 281.678C312.95 281.593 313.013 281.473 313.025 281.342H312.993ZM291.597 290.144C291.71 290.069 291.788 289.953 291.816 289.821C291.843 289.688 291.817 289.551 291.743 289.437L283.314 276.697C283.237 276.587 283.121 276.512 282.989 276.486C282.857 276.46 282.721 276.487 282.608 276.559C282.495 276.634 282.416 276.75 282.389 276.882C282.362 277.015 282.388 277.152 282.462 277.266L290.89 290.006C290.939 290.076 291.003 290.133 291.078 290.172C291.153 290.212 291.236 290.233 291.321 290.233C291.431 290.239 291.539 290.208 291.629 290.144H291.597ZM310.939 294.407C310.937 294.273 310.883 294.146 310.789 294.05C310.696 293.955 310.569 293.899 310.435 293.895L290.387 293.709C290.253 293.709 290.125 293.762 290.031 293.856C289.936 293.95 289.883 294.078 289.883 294.212C289.881 294.279 289.893 294.346 289.917 294.408C289.941 294.471 289.978 294.528 290.025 294.576C290.073 294.624 290.129 294.661 290.191 294.687C290.253 294.712 290.32 294.725 290.387 294.724L310.435 294.91C310.504 294.914 310.572 294.903 310.637 294.879C310.701 294.856 310.76 294.819 310.81 294.772C310.86 294.725 310.9 294.669 310.928 294.606C310.955 294.543 310.97 294.475 310.971 294.407H310.939ZM284.037 324.386C284.078 324.297 287.496 314.877 297.776 312.628C297.908 312.599 298.024 312.519 298.097 312.404C298.17 312.29 298.195 312.152 298.166 312.019C298.133 311.889 298.051 311.777 297.938 311.706C297.824 311.635 297.688 311.61 297.557 311.638C286.717 314.009 283.119 323.956 283.079 324.053C283.037 324.181 283.047 324.321 283.106 324.442C283.165 324.563 283.269 324.657 283.396 324.703H283.558C283.666 324.712 283.774 324.686 283.866 324.629C283.958 324.572 284.03 324.487 284.069 324.386H284.037ZM286.319 331.832C286.453 331.822 286.578 331.759 286.666 331.657C286.754 331.555 286.799 331.422 286.79 331.288C285.515 312.141 292.92 280.782 304.8 255.041C312.392 238.59 342.152 206.256 342.469 205.931C342.564 205.835 342.618 205.706 342.618 205.57C342.618 205.435 342.564 205.305 342.469 205.209C342.422 205.162 342.366 205.124 342.305 205.099C342.243 205.073 342.178 205.06 342.111 205.06C342.045 205.06 341.979 205.073 341.918 205.099C341.856 205.124 341.801 205.162 341.754 205.209C341.454 205.533 311.572 237.989 303.915 254.586C291.816 280.952 284.508 311.743 285.807 331.353C285.817 331.482 285.875 331.603 285.97 331.692C286.065 331.78 286.189 331.83 286.319 331.832ZM310.606 244.501C310.74 244.493 310.866 244.432 310.955 244.332C311.045 244.231 311.091 244.1 311.085 243.965L309.144 211.12C309.141 211.053 309.125 210.988 309.096 210.927C309.067 210.867 309.027 210.813 308.977 210.768C308.927 210.723 308.868 210.689 308.805 210.667C308.742 210.646 308.675 210.637 308.608 210.641C308.474 210.649 308.348 210.71 308.259 210.811C308.169 210.911 308.122 211.043 308.129 211.177L310.102 244.006C310.108 244.135 310.164 244.257 310.258 244.346C310.352 244.436 310.476 244.485 310.606 244.485V244.501ZM304.548 255.293C304.67 255.238 304.765 255.137 304.814 255.013C304.862 254.888 304.86 254.75 304.808 254.627L292.328 226.394C292.274 226.271 292.173 226.175 292.048 226.126C291.924 226.077 291.784 226.08 291.662 226.134C291.539 226.188 291.443 226.288 291.394 226.413C291.345 226.538 291.348 226.677 291.402 226.8L303.874 255.033C303.913 255.124 303.978 255.201 304.06 255.256C304.142 255.31 304.238 255.34 304.337 255.342C304.421 255.346 304.505 255.329 304.581 255.293H304.548ZM306.708 251.395L336.582 247.124C336.654 247.123 336.725 247.106 336.79 247.075C336.855 247.044 336.913 247 336.96 246.945C337.007 246.89 337.042 246.826 337.062 246.757C337.082 246.687 337.088 246.615 337.078 246.543C337.068 246.472 337.043 246.403 337.005 246.342C336.967 246.281 336.916 246.228 336.856 246.188C336.796 246.148 336.729 246.121 336.657 246.108C336.586 246.096 336.513 246.099 336.444 246.117L306.57 250.388C306.437 250.397 306.312 250.458 306.224 250.559C306.135 250.659 306.09 250.791 306.099 250.924C306.108 251.058 306.169 251.182 306.269 251.271C306.37 251.359 306.501 251.404 306.635 251.395H306.708ZM298.19 270.453C298.296 270.37 298.365 270.248 298.382 270.114C298.399 269.98 298.362 269.845 298.28 269.738L282.088 248.935C282.047 248.882 281.996 248.837 281.938 248.803C281.879 248.77 281.815 248.748 281.748 248.739C281.682 248.731 281.614 248.735 281.549 248.753C281.484 248.77 281.423 248.8 281.37 248.842C281.316 248.883 281.272 248.934 281.238 248.992C281.204 249.05 281.183 249.115 281.174 249.181C281.165 249.248 281.17 249.316 281.188 249.381C281.205 249.446 281.235 249.507 281.276 249.56L297.5 270.396C297.547 270.457 297.607 270.506 297.676 270.54C297.745 270.573 297.821 270.591 297.898 270.591C298.019 270.585 298.134 270.536 298.223 270.453H298.19ZM323.492 264.826C323.497 264.691 323.448 264.561 323.357 264.462C323.266 264.363 323.139 264.304 323.005 264.298L300.748 263.169C300.623 263.178 300.505 263.232 300.418 263.322C300.33 263.411 300.278 263.53 300.272 263.655C300.266 263.78 300.306 263.903 300.385 264.001C300.464 264.098 300.576 264.164 300.699 264.184L322.997 265.313C323.131 265.317 323.262 265.269 323.361 265.178C323.459 265.086 323.518 264.96 323.525 264.826H323.492ZM312.993 281.342C313.001 281.275 312.995 281.207 312.976 281.143C312.958 281.078 312.926 281.018 312.884 280.966C312.841 280.913 312.789 280.87 312.73 280.839C312.67 280.807 312.605 280.788 312.538 280.782L295.486 279.101C295.42 279.094 295.353 279.1 295.29 279.12C295.226 279.139 295.167 279.171 295.115 279.213C295.064 279.255 295.022 279.307 294.99 279.366C294.959 279.425 294.94 279.489 294.934 279.555C294.923 279.689 294.964 279.821 295.049 279.924C295.134 280.027 295.256 280.093 295.389 280.108L312.441 281.797H312.49C312.62 281.806 312.75 281.763 312.85 281.678C312.95 281.593 313.013 281.473 313.025 281.342H312.993ZM291.597 290.144C291.71 290.069 291.788 289.953 291.816 289.821C291.843 289.688 291.817 289.551 291.743 289.437L283.314 276.697C283.237 276.587 283.121 276.512 282.989 276.486C282.857 276.46 282.721 276.487 282.608 276.559C282.495 276.634 282.416 276.75 282.389 276.882C282.362 277.015 282.388 277.152 282.462 277.266L290.89 290.006C290.939 290.076 291.003 290.133 291.078 290.172C291.153 290.212 291.236 290.233 291.321 290.233C291.431 290.239 291.539 290.208 291.629 290.144H291.597ZM310.939 294.407C310.937 294.273 310.883 294.146 310.789 294.05C310.696 293.955 310.569 293.899 310.435 293.895L290.387 293.709C290.253 293.709 290.125 293.762 290.031 293.856C289.936 293.95 289.883 294.078 289.883 294.212C289.881 294.279 289.893 294.346 289.917 294.408C289.941 294.471 289.978 294.528 290.025 294.576C290.073 294.624 290.129 294.661 290.191 294.687C290.253 294.712 290.32 294.725 290.387 294.724L310.435 294.91C310.504 294.914 310.572 294.903 310.637 294.879C310.701 294.856 310.76 294.819 310.81 294.772C310.86 294.725 310.9 294.669 310.928 294.606C310.955 294.543 310.97 294.475 310.971 294.407H310.939ZM284.037 324.386C284.078 324.297 287.496 314.877 297.776 312.628C297.908 312.599 298.024 312.519 298.097 312.404C298.17 312.29 298.195 312.152 298.166 312.019C298.133 311.889 298.051 311.777 297.938 311.706C297.824 311.635 297.688 311.61 297.557 311.638C286.717 314.009 283.119 323.956 283.079 324.053C283.037 324.181 283.047 324.321 283.106 324.442C283.165 324.563 283.269 324.657 283.396 324.703H283.558C283.666 324.712 283.774 324.686 283.866 324.629C283.958 324.572 284.03 324.487 284.069 324.386H284.037Z" fill="#407BFF"/>
<path opacity="0.2" d="M310.614 243.998L308.641 211.169L310.614 243.998ZM304.369 254.83L291.897 226.597L304.369 254.83ZM336.557 246.621L306.667 250.908L336.557 246.621ZM297.906 270.047L281.723 249.284L297.906 270.047ZM300.748 263.681L323.045 264.801L300.748 263.681ZM295.47 279.604L312.522 281.293L295.47 279.604ZM291.353 289.722L282.884 276.981L291.353 289.722ZM290.379 294.22L310.427 294.407L290.379 294.22ZM286.319 331.832C286.453 331.822 286.578 331.759 286.666 331.657C286.754 331.555 286.799 331.422 286.79 331.288C285.515 312.141 292.92 280.782 304.8 255.041C312.392 238.59 342.152 206.256 342.469 205.931C342.564 205.835 342.618 205.706 342.618 205.57C342.618 205.435 342.564 205.305 342.469 205.209C342.422 205.162 342.366 205.124 342.305 205.099C342.243 205.073 342.178 205.06 342.111 205.06C342.045 205.06 341.979 205.073 341.918 205.099C341.856 205.124 341.801 205.162 341.754 205.209C341.454 205.533 311.572 237.989 303.915 254.586C291.816 280.952 284.508 311.743 285.807 331.353C285.817 331.482 285.875 331.603 285.97 331.692C286.065 331.78 286.189 331.83 286.319 331.832ZM310.606 244.501C310.74 244.493 310.866 244.432 310.955 244.332C311.045 244.231 311.091 244.1 311.085 243.965L309.144 211.12C309.141 211.053 309.125 210.988 309.096 210.927C309.067 210.867 309.027 210.813 308.977 210.768C308.927 210.723 308.868 210.689 308.805 210.667C308.742 210.646 308.675 210.637 308.608 210.641C308.474 210.649 308.348 210.71 308.259 210.811C308.169 210.911 308.122 211.043 308.129 211.177L310.102 244.006C310.108 244.135 310.164 244.257 310.258 244.346C310.352 244.436 310.476 244.485 310.606 244.485V244.501ZM304.548 255.293C304.67 255.238 304.765 255.137 304.814 255.013C304.862 254.888 304.86 254.75 304.808 254.627L292.328 226.394C292.274 226.271 292.173 226.175 292.048 226.126C291.924 226.077 291.784 226.08 291.662 226.134C291.539 226.188 291.443 226.288 291.394 226.413C291.345 226.538 291.348 226.677 291.402 226.8L303.874 255.033C303.913 255.124 303.978 255.201 304.06 255.256C304.142 255.31 304.238 255.34 304.337 255.342C304.421 255.346 304.505 255.329 304.581 255.293H304.548ZM306.708 251.395L336.582 247.124C336.654 247.123 336.725 247.106 336.79 247.075C336.855 247.044 336.913 247 336.96 246.945C337.007 246.89 337.042 246.826 337.062 246.757C337.082 246.687 337.088 246.615 337.078 246.543C337.068 246.472 337.043 246.403 337.005 246.342C336.967 246.281 336.916 246.228 336.856 246.188C336.796 246.148 336.729 246.121 336.657 246.108C336.586 246.096 336.513 246.099 336.444 246.117L306.57 250.388C306.437 250.397 306.312 250.458 306.224 250.559C306.135 250.659 306.09 250.791 306.099 250.924C306.108 251.058 306.169 251.182 306.269 251.271C306.37 251.359 306.501 251.404 306.635 251.395H306.708ZM298.19 270.453C298.296 270.37 298.365 270.248 298.382 270.114C298.399 269.98 298.362 269.845 298.28 269.738L282.088 248.935C282.005 248.827 281.883 248.757 281.748 248.739C281.613 248.722 281.477 248.759 281.37 248.842C281.262 248.924 281.192 249.047 281.174 249.181C281.157 249.316 281.193 249.452 281.276 249.56L297.5 270.396C297.547 270.457 297.607 270.506 297.676 270.54C297.745 270.573 297.821 270.591 297.898 270.591C298.019 270.585 298.134 270.536 298.223 270.453H298.19ZM323.492 264.826C323.497 264.691 323.448 264.561 323.357 264.462C323.266 264.363 323.139 264.304 323.005 264.298L300.748 263.169C300.623 263.178 300.505 263.232 300.418 263.322C300.33 263.411 300.278 263.53 300.272 263.655C300.266 263.78 300.306 263.903 300.385 264.001C300.464 264.098 300.576 264.164 300.699 264.184L322.997 265.313C323.131 265.317 323.262 265.269 323.361 265.178C323.459 265.086 323.518 264.96 323.525 264.826H323.492ZM312.993 281.342C313.001 281.275 312.995 281.207 312.976 281.143C312.958 281.078 312.926 281.018 312.884 280.966C312.841 280.913 312.789 280.87 312.73 280.839C312.67 280.807 312.605 280.788 312.538 280.782L295.486 279.101C295.42 279.094 295.353 279.1 295.29 279.12C295.226 279.139 295.167 279.171 295.115 279.213C295.064 279.255 295.022 279.307 294.99 279.366C294.959 279.425 294.94 279.489 294.934 279.555C294.923 279.689 294.964 279.821 295.049 279.924C295.134 280.027 295.256 280.093 295.389 280.108L312.441 281.797H312.49C312.62 281.806 312.75 281.763 312.85 281.678C312.95 281.593 313.013 281.473 313.025 281.342H312.993ZM291.597 290.144C291.71 290.069 291.788 289.953 291.816 289.821C291.843 289.688 291.817 289.551 291.743 289.437L283.314 276.697C283.237 276.587 283.121 276.512 282.989 276.486C282.857 276.46 282.721 276.487 282.608 276.559C282.495 276.634 282.416 276.75 282.389 276.882C282.362 277.015 282.388 277.152 282.462 277.266L290.89 290.006C290.939 290.076 291.003 290.133 291.078 290.172C291.153 290.212 291.236 290.233 291.321 290.233C291.431 290.239 291.539 290.208 291.629 290.144H291.597ZM310.939 294.407C310.937 294.273 310.883 294.146 310.789 294.05C310.696 293.955 310.569 293.899 310.435 293.895L290.387 293.709C290.253 293.709 290.125 293.762 290.031 293.856C289.936 293.95 289.883 294.078 289.883 294.212C289.881 294.279 289.893 294.346 289.917 294.408C289.941 294.471 289.978 294.528 290.025 294.576C290.073 294.624 290.129 294.661 290.191 294.687C290.253 294.712 290.32 294.725 290.387 294.724L310.435 294.91C310.504 294.914 310.572 294.903 310.637 294.879C310.701 294.856 310.76 294.819 310.81 294.772C310.86 294.725 310.9 294.669 310.928 294.606C310.955 294.543 310.97 294.475 310.971 294.407H310.939ZM284.037 324.386C284.078 324.297 287.496 314.877 297.776 312.628C297.908 312.599 298.024 312.519 298.097 312.404C298.17 312.29 298.195 312.152 298.166 312.019C298.133 311.889 298.051 311.777 297.938 311.706C297.824 311.635 297.688 311.61 297.557 311.638C286.717 314.009 283.119 323.956 283.079 324.053C283.037 324.181 283.047 324.321 283.106 324.442C283.165 324.563 283.269 324.657 283.396 324.703H283.558C283.666 324.712 283.774 324.686 283.866 324.629C283.958 324.572 284.03 324.487 284.069 324.386H284.037ZM286.319 331.832C286.453 331.822 286.578 331.759 286.666 331.657C286.754 331.555 286.799 331.422 286.79 331.288C285.515 312.141 292.92 280.782 304.8 255.041C312.392 238.59 342.152 206.256 342.469 205.931C342.564 205.835 342.618 205.706 342.618 205.57C342.618 205.435 342.564 205.305 342.469 205.209C342.422 205.162 342.366 205.124 342.305 205.099C342.243 205.073 342.178 205.06 342.111 205.06C342.045 205.06 341.979 205.073 341.918 205.099C341.856 205.124 341.801 205.162 341.754 205.209C341.454 205.533 311.572 237.989 303.915 254.586C291.816 280.952 284.508 311.743 285.807 331.353C285.817 331.482 285.875 331.603 285.97 331.692C286.065 331.78 286.189 331.83 286.319 331.832ZM310.606 244.501C310.74 244.493 310.866 244.432 310.955 244.332C311.045 244.231 311.091 244.1 311.085 243.965L309.144 211.12C309.141 211.053 309.125 210.988 309.096 210.927C309.067 210.867 309.027 210.813 308.977 210.768C308.927 210.723 308.868 210.689 308.805 210.667C308.742 210.646 308.675 210.637 308.608 210.641C308.474 210.649 308.348 210.71 308.259 210.811C308.169 210.911 308.122 211.043 308.129 211.177L310.102 244.006C310.108 244.135 310.164 244.257 310.258 244.346C310.352 244.436 310.476 244.485 310.606 244.485V244.501ZM304.548 255.293C304.67 255.238 304.765 255.137 304.814 255.013C304.862 254.888 304.86 254.75 304.808 254.627L292.328 226.394C292.274 226.271 292.173 226.175 292.048 226.126C291.924 226.077 291.784 226.08 291.662 226.134C291.539 226.188 291.443 226.288 291.394 226.413C291.345 226.538 291.348 226.677 291.402 226.8L303.874 255.033C303.913 255.124 303.978 255.201 304.06 255.256C304.142 255.31 304.238 255.34 304.337 255.342C304.421 255.346 304.505 255.329 304.581 255.293H304.548ZM306.708 251.395L336.582 247.124C336.654 247.123 336.725 247.106 336.79 247.075C336.855 247.044 336.913 247 336.96 246.945C337.007 246.89 337.042 246.826 337.062 246.757C337.082 246.687 337.088 246.615 337.078 246.543C337.068 246.472 337.043 246.403 337.005 246.342C336.967 246.281 336.916 246.228 336.856 246.188C336.796 246.148 336.729 246.121 336.657 246.108C336.586 246.096 336.513 246.099 336.444 246.117L306.57 250.388C306.437 250.397 306.312 250.458 306.224 250.559C306.135 250.659 306.09 250.791 306.099 250.924C306.108 251.058 306.169 251.182 306.269 251.271C306.37 251.359 306.501 251.404 306.635 251.395H306.708ZM298.19 270.453C298.296 270.37 298.365 270.248 298.382 270.114C298.399 269.98 298.362 269.845 298.28 269.738L282.088 248.935C282.047 248.882 281.996 248.837 281.938 248.803C281.879 248.77 281.815 248.748 281.748 248.739C281.682 248.731 281.614 248.735 281.549 248.753C281.484 248.77 281.423 248.8 281.37 248.842C281.316 248.883 281.272 248.934 281.238 248.992C281.204 249.05 281.183 249.115 281.174 249.181C281.165 249.248 281.17 249.316 281.188 249.381C281.205 249.446 281.235 249.507 281.276 249.56L297.5 270.396C297.547 270.457 297.607 270.506 297.676 270.54C297.745 270.573 297.821 270.591 297.898 270.591C298.019 270.585 298.134 270.536 298.223 270.453H298.19ZM323.492 264.826C323.497 264.691 323.448 264.561 323.357 264.462C323.266 264.363 323.139 264.304 323.005 264.298L300.748 263.169C300.623 263.178 300.505 263.232 300.418 263.322C300.33 263.411 300.278 263.53 300.272 263.655C300.266 263.78 300.306 263.903 300.385 264.001C300.464 264.098 300.576 264.164 300.699 264.184L322.997 265.313C323.131 265.317 323.262 265.269 323.361 265.178C323.459 265.086 323.518 264.96 323.525 264.826H323.492ZM312.993 281.342C313.001 281.275 312.995 281.207 312.976 281.143C312.958 281.078 312.926 281.018 312.884 280.966C312.841 280.913 312.789 280.87 312.73 280.839C312.67 280.807 312.605 280.788 312.538 280.782L295.486 279.101C295.42 279.094 295.353 279.1 295.29 279.12C295.226 279.139 295.167 279.171 295.115 279.213C295.064 279.255 295.022 279.307 294.99 279.366C294.959 279.425 294.94 279.489 294.934 279.555C294.923 279.689 294.964 279.821 295.049 279.924C295.134 280.027 295.256 280.093 295.389 280.108L312.441 281.797H312.49C312.62 281.806 312.75 281.763 312.85 281.678C312.95 281.593 313.013 281.473 313.025 281.342H312.993ZM291.597 290.144C291.71 290.069 291.788 289.953 291.816 289.821C291.843 289.688 291.817 289.551 291.743 289.437L283.314 276.697C283.237 276.587 283.121 276.512 282.989 276.486C282.857 276.46 282.721 276.487 282.608 276.559C282.495 276.634 282.416 276.75 282.389 276.882C282.362 277.015 282.388 277.152 282.462 277.266L290.89 290.006C290.939 290.076 291.003 290.133 291.078 290.172C291.153 290.212 291.236 290.233 291.321 290.233C291.431 290.239 291.539 290.208 291.629 290.144H291.597ZM310.939 294.407C310.937 294.273 310.883 294.146 310.789 294.05C310.696 293.955 310.569 293.899 310.435 293.895L290.387 293.709C290.253 293.709 290.125 293.762 290.031 293.856C289.936 293.95 289.883 294.078 289.883 294.212C289.881 294.279 289.893 294.346 289.917 294.408C289.941 294.471 289.978 294.528 290.025 294.576C290.073 294.624 290.129 294.661 290.191 294.687C290.253 294.712 290.32 294.725 290.387 294.724L310.435 294.91C310.504 294.914 310.572 294.903 310.637 294.879C310.701 294.856 310.76 294.819 310.81 294.772C310.86 294.725 310.9 294.669 310.928 294.606C310.955 294.543 310.97 294.475 310.971 294.407H310.939ZM284.037 324.386C284.078 324.297 287.496 314.877 297.776 312.628C297.908 312.599 298.024 312.519 298.097 312.404C298.17 312.29 298.195 312.152 298.166 312.019C298.133 311.889 298.051 311.777 297.938 311.706C297.824 311.635 297.688 311.61 297.557 311.638C286.717 314.009 283.119 323.956 283.079 324.053C283.037 324.181 283.047 324.321 283.106 324.442C283.165 324.563 283.269 324.657 283.396 324.703H283.558C283.666 324.712 283.774 324.686 283.866 324.629C283.958 324.572 284.03 324.487 284.069 324.386H284.037Z" fill="black"/>
<path d="M299.579 317.516H276.591V322.275H278.597L282.746 348.234H293.424L297.573 322.275H299.579V317.516Z" fill="#407BFF"/>
<path opacity="0.3" d="M299.579 317.516H276.591V322.275H278.597L282.746 348.234H293.424L297.573 322.275H299.579V317.516Z" fill="white"/>
<path d="M92.6161 173.63L65.877 164.901L63.4978 158.616L58.0655 158.446L48.2079 156.578L49.3934 158.616L61.8007 167.621L64.862 169.148L92.8273 183.756L92.6161 173.63Z" fill="white" stroke="#263238" stroke-width="1.00396" stroke-miterlimit="10"/>
<path d="M63.4978 158.616L60.9481 157.09L55.8569 158.957L56.7014 159.972L63.4978 158.616Z" fill="white" stroke="#263238" stroke-width="1.00396" stroke-linejoin="round"/>
<path d="M92.6161 173.63L65.877 164.901L63.4978 158.616L58.0655 158.446L48.2079 156.578L49.3934 158.616L61.8007 167.621L64.862 169.148L92.8273 183.756L92.6161 173.63Z" fill="white"/>
<mask id="mask0_57_4298" style="mask-type:luminance" maskUnits="userSpaceOnUse" x="48" y="156" width="45" height="28">
<path d="M92.6161 173.63L65.877 164.901L63.4978 158.616L58.0655 158.446L48.2079 156.578L49.3934 158.616L61.8007 167.621L64.862 169.148L92.8273 183.756L92.6161 173.63Z" fill="white"/>
</mask>
<g mask="url(#mask0_57_4298)">
<path opacity="0.5" d="M92.6161 173.63L65.877 164.901L63.4978 158.616L58.0655 158.446L48.2079 156.578L49.3934 158.616L61.8007 167.621L64.862 169.148L92.8273 183.756L92.6161 173.63Z" fill="#407BFF" stroke="#263238" stroke-width="1.00396" stroke-miterlimit="10"/>
</g>
<path d="M92.6161 173.63L65.877 164.901L63.4978 158.616L58.0655 158.446L48.2079 156.578L49.3934 158.616L61.8007 167.621L64.862 169.148L92.8273 183.756L92.6161 173.63Z" stroke="#263238" stroke-width="1.00396" stroke-miterlimit="10"/>
<path d="M63.4978 158.616L60.9481 157.09L55.8569 158.957L56.7014 159.972L63.4978 158.616Z" fill="white"/>
<mask id="mask1_57_4298" style="mask-type:luminance" maskUnits="userSpaceOnUse" x="55" y="157" width="9" height="3">
<path d="M63.4978 158.616L60.9481 157.09L55.8569 158.957L56.7014 159.972L63.4978 158.616Z" fill="white"/>
</mask>
<g mask="url(#mask1_57_4298)">
<path opacity="0.5" d="M63.4978 158.616L60.9481 157.09L55.8569 158.957L56.7014 159.972L63.4978 158.616Z" fill="#407BFF" stroke="#263238" stroke-width="1.00396" stroke-linejoin="round"/>
</g>
<path d="M63.4978 158.616L60.9481 157.09L55.8569 158.957L56.7014 159.972L63.4978 158.616Z" stroke="#263238" stroke-width="1.00396" stroke-linejoin="round"/>
<path d="M98.292 116.977C98.292 116.977 97.8779 120.631 98.9091 122.977C99.9404 125.324 105.665 133.274 105.665 133.274L94.9791 141.84C94.9791 141.84 90.5455 132.908 89.7011 131.463C88.8566 130.017 87.8416 123.797 90.5943 119.34C93.3469 114.882 97.3095 113.68 98.292 116.977Z" fill="white"/>
<mask id="mask2_57_4298" style="mask-type:luminance" maskUnits="userSpaceOnUse" x="88" y="115" width="18" height="27">
<path d="M98.292 116.977C98.292 116.977 97.8779 120.631 98.9091 122.977C99.9404 125.324 105.665 133.274 105.665 133.274L94.9791 141.84C94.9791 141.84 90.5455 132.908 89.7011 131.463C88.8566 130.017 87.8416 123.797 90.5943 119.34C93.3469 114.882 97.3095 113.68 98.292 116.977Z" fill="white"/>
</mask>
<g mask="url(#mask2_57_4298)">
<g style="mix-blend-mode:multiply" opacity="0.5">
<path d="M92.8029 128.718L97.4394 138.332L94.9709 141.848L90.3101 133.525L92.8029 128.718Z" fill="#407BFF"/>
</g>
</g>
<path d="M98.292 116.977C98.292 116.977 97.8779 120.631 98.9091 122.977C99.9404 125.324 105.665 133.274 105.665 133.274L94.9791 141.84C94.9791 141.84 90.5455 132.908 89.7011 131.463C88.8566 130.017 87.8416 123.797 90.5943 119.34C93.3469 114.882 97.3095 113.68 98.292 116.977Z" stroke="#263238" stroke-width="1.00396" stroke-miterlimit="10"/>
<path d="M101.605 110.286C100.947 106.226 96.2945 97.9678 88.9134 98.2845C84.1226 98.4956 81.8815 99.4619 79.8028 100.639C78.1083 101.638 76.529 102.819 75.0932 104.163C71.4879 108.491 70.2212 109.677 70.9195 112.99C70.8622 114.311 71.0692 115.631 71.5285 116.871C72.6328 119.819 73.388 121.743 74.3461 123.148C74.0538 124.52 73.2905 128.142 73.2499 128.97C73.2093 129.798 75.6859 129.222 76.9364 128.905C79.2587 134.102 83.5136 137.707 84.8372 138.121C87.1432 138.844 90.7891 135.052 92.7217 132.112C94.6542 129.173 93.1927 125.868 93.2008 124.553C93.2089 123.237 97.545 120.347 99.1527 119.429C100.76 118.511 102.255 114.338 101.605 110.286Z" fill="white"/>
<mask id="mask3_57_4298" style="mask-type:luminance" maskUnits="userSpaceOnUse" x="70" y="98" width="32" height="41">
<path d="M101.605 110.286C100.947 106.226 96.2945 97.9678 88.9134 98.2845C84.1226 98.4956 81.8815 99.4619 79.8028 100.639C78.1083 101.638 76.529 102.819 75.0932 104.163C71.4879 108.491 70.2212 109.677 70.9195 112.99C70.8622 114.311 71.0692 115.631 71.5285 116.871C72.6328 119.819 73.388 121.743 74.3461 123.148C74.0538 124.52 73.2905 128.142 73.2499 128.97C73.2093 129.798 75.6859 129.222 76.9364 128.905C79.2587 134.102 83.5136 137.707 84.8372 138.121C87.1432 138.844 90.7891 135.052 92.7217 132.112C94.6542 129.173 93.1927 125.868 93.2008 124.553C93.2089 123.237 97.545 120.347 99.1527 119.429C100.76 118.511 102.255 114.338 101.605 110.286Z" fill="white"/>
</mask>
<g mask="url(#mask3_57_4298)">
<g style="mix-blend-mode:multiply" opacity="0.5">
<path d="M70.952 112.99C70.8947 114.311 71.1017 115.631 71.561 116.871C72.6653 119.819 73.4204 121.743 74.3786 123.148C74.0863 124.52 73.323 128.142 73.2824 128.97C73.2418 129.798 75.7184 129.222 76.9689 128.905C79.2912 134.102 83.5461 137.707 84.8696 138.121C87.1757 138.844 90.8216 135.052 92.7542 132.112C93.237 131.378 93.5504 130.546 93.6717 129.676C93.5662 129.295 93.4931 129.059 93.4931 129.059C93.4931 129.059 92.405 133.241 90.2451 132.697C88.0852 132.153 84.7803 127.825 82.9371 126.331C81.0938 124.837 81.849 122.872 81.4836 120.647C81.1182 118.422 75.6616 116.465 75.2962 115.19C74.9308 113.915 76.2056 108.637 76.2056 108.637C76.2056 108.637 78.2762 105.877 77.8296 107.013C77.514 107.999 77.3995 109.038 77.4929 110.069C77.5864 111.1 77.8859 112.101 78.3736 113.014C78.7159 113.734 79.2589 114.341 79.9374 114.76C80.6158 115.179 81.4008 115.393 82.1982 115.377L84.1794 105.56L79.9976 102.101L75.1256 104.131C71.4879 108.491 70.2455 109.677 70.952 112.99Z" fill="#407BFF"/>
</g>
</g>
<path d="M101.605 110.286C100.947 106.226 96.2945 97.9678 88.9134 98.2845C84.1226 98.4956 81.8815 99.4619 79.8028 100.639C78.1083 101.638 76.529 102.819 75.0932 104.163C71.4879 108.491 70.2212 109.677 70.9195 112.99C70.8622 114.311 71.0692 115.631 71.5285 116.871C72.6328 119.819 73.388 121.743 74.3461 123.148C74.0538 124.52 73.2905 128.142 73.2499 128.97C73.2093 129.798 75.6859 129.222 76.9364 128.905C79.2587 134.102 83.5136 137.707 84.8372 138.121C87.1433 138.844 90.7891 135.052 92.7217 132.112C94.6542 129.173 93.1927 125.868 93.2008 124.553C93.2089 123.237 97.545 120.347 99.1527 119.429C100.76 118.511 102.255 114.338 101.605 110.286Z" stroke="#263238" stroke-miterlimit="10"/>
<path d="M75.353 120.696L76.165 123.018C76.165 123.018 77.9108 123.595 80.0383 121.272" stroke="#263238" stroke-miterlimit="10" stroke-linecap="round"/>
<path d="M81.3537 131.544C81.3537 131.544 83.2863 131.349 84.0658 128.637" stroke="#263238" stroke-miterlimit="10" stroke-linecap="round"/>
<path d="M73.997 118.755C73.997 118.755 74.5735 117.009 78.057 117.009" stroke="#263238" stroke-miterlimit="10" stroke-linecap="round"/>
<path d="M91.8529 95.0527C89.3217 94.6887 86.7691 94.4934 84.212 94.4681C84.212 94.4681 76.5629 90.0589 69.2143 94.7604C61.8657 99.4619 65.3979 107.696 65.3979 109.75C65.3979 111.804 63.0431 111.812 64.5128 114.46C65.9826 117.107 70.952 115.645 70.952 115.645C71.0045 114.647 71.2684 113.671 71.7261 112.782C72.1838 111.893 72.825 111.111 73.6072 110.489C76.2544 108.434 78.3656 107.988 79.2425 108.581C79.2425 108.581 78.6579 112.99 79.5348 114.752C79.5348 114.752 82.4743 116.222 83.3594 116.222C84.2444 116.222 82.7828 117.464 85.7142 118.568C86.2482 118.76 86.8194 118.825 87.383 118.759C87.9466 118.693 88.4871 118.497 88.9622 118.187C89.3925 116.4 90.3344 113.712 92.0884 114.338C94.6624 115.255 97.0091 121.589 93.5256 123.749C97.7155 124.512 102.791 117.099 103.091 110.343C103.391 103.587 96.2052 95.816 91.8529 95.0527Z" fill="#263238"/>
<path d="M79.3724 105.682C79.3724 105.682 81.5324 104.521 84.1795 107.005C86.8266 109.49 91.9747 112.811 98.7955 110.984" stroke="white" stroke-width="0.5" stroke-linecap="round" stroke-linejoin="round"/>
<path d="M79.072 103.692C79.072 103.692 80.558 101.37 83.0427 101.37C85.5274 101.37 91.3332 104.854 95.9697 104.854" stroke="white" stroke-width="0.5" stroke-linecap="round" stroke-linejoin="round"/>
<path d="M77.383 108.166C77.383 108.166 74.5654 104.691 71.9183 107.509C69.2712 110.326 70.952 112.99 70.952 112.99" stroke="white" stroke-width="0.5" stroke-linecap="round" stroke-linejoin="round"/>
<path d="M66.1206 110.489C67.7352 109.033 68.739 107.019 68.9301 104.854C69.263 101.208 74.2406 98.0572 77.383 101.045" stroke="white" stroke-width="0.5" stroke-linecap="round" stroke-linejoin="round"/>
<path d="M71.2524 97.2289C71.2524 97.2289 76.23 92.4218 80.3712 98.5524" stroke="white" stroke-width="0.5" stroke-linecap="round" stroke-linejoin="round"/>
<path d="M111.763 333.578C111.763 333.578 114.824 338.336 114.483 341.397L114.15 344.459C114.15 344.459 102.92 347.536 100.541 347.536C98.1621 347.536 85.568 346.342 85.568 346.342L85.0239 344.182C84.9858 344.023 85.0038 343.855 85.0748 343.707C85.1457 343.559 85.2654 343.441 85.4137 343.37L96.6436 338.133L100.184 334.26L111.763 333.578Z" fill="white" stroke="#263238" stroke-width="1.00396" stroke-miterlimit="10"/>
<path d="M102.246 345.141C105.291 345.376 111.073 343.517 114.426 342.331L114.191 344.458C114.191 344.458 102.92 347.536 100.541 347.536C98.1621 347.536 85.568 346.342 85.568 346.342L85.1782 344.8C87.192 344.808 98.2189 344.832 102.246 345.141Z" fill="#407BFF" stroke="#263238" stroke-width="1.00396" stroke-miterlimit="10"/>
<path d="M96.6599 338.133L80.3143 345.246C80.3143 345.246 78.9177 348.746 80.3143 349.444C81.711 350.143 112.161 349.444 112.161 349.444C112.161 349.444 114.264 343.915 110.943 340.204C107.622 336.493 96.6599 338.133 96.6599 338.133Z" fill="white" stroke="#263238" stroke-width="1.00396" stroke-miterlimit="10"/>
<path d="M112.161 349.444C112.161 349.444 81.711 350.143 80.3143 349.444C79.6404 349.103 79.616 348.121 79.7703 347.187H112.697C112.589 347.954 112.41 348.71 112.161 349.444Z" fill="#407BFF" stroke="#263238" stroke-width="1.00396" stroke-miterlimit="10"/>
<path d="M88.9297 214.538C88.9297 214.538 84.6586 233.466 83.0427 245.305C81.4268 257.144 80.4768 280.863 80.8178 283.583C81.1588 286.303 98.1621 331.881 98.1621 331.881L99.8592 335.941L111.763 333.561C111.763 333.561 106.323 316.217 104.285 306.692C102.246 297.168 97.7886 281.52 97.7886 278.8C97.7886 276.08 108.345 224.128 109.1 220.718C109.855 217.307 113.282 212.07 113.282 212.07L90.4887 211.607L88.9297 214.538Z" fill="#407BFF" stroke="#263238" stroke-width="1.00396" stroke-miterlimit="10"/>
<path d="M88.9297 214.539C88.9297 214.539 86.4287 231.826 87.4599 243.844C88.4912 255.861 90.7079 281.447 90.7079 285.256C90.7079 289.064 96.8548 311.808 97.2039 318.954C97.748 329.274 96.9847 334.382 96.9847 334.382L96.6193 338.125C96.6193 338.125 103.789 339.148 105.356 339.595C107.166 340.061 109.034 340.263 110.902 340.196C110.902 340.196 113.509 328.722 113.509 318.946C113.509 309.169 111.341 289.048 110.261 280.895C109.181 272.743 112.583 241.294 114.516 235.423C116.448 229.552 120.671 217.121 117.829 210.771C114.987 204.421 88.9297 214.539 88.9297 214.539Z" fill="#407BFF" stroke="#263238" stroke-width="1.00396" stroke-miterlimit="10"/>
<path d="M120.987 207.588L120.728 215.318C120.728 215.318 116.099 216.236 109.863 217.316C104.715 218.209 91.7879 217.08 87.4356 216.658C87.039 216.623 86.6723 216.432 86.4153 216.128C86.1583 215.824 86.0318 215.431 86.0633 215.034L86.4855 208.051L120.987 207.588Z" fill="#263238"/>
<path d="M102.896 130.529C102.896 130.529 95.588 138.43 92.8354 143.342C90.0827 148.255 88.9946 155.782 87.9634 161.71C86.9321 167.637 89.7254 181.555 88.9378 187.946L86.4449 208.075C86.4449 208.075 85.909 209.439 87.7035 210.933C89.4981 212.427 98.2595 212.971 106.177 213.369C109.067 213.515 117.699 211.656 119.112 211.567C120.817 211.461 120.874 209.293 120.947 207.588C121.288 199.573 122.733 178.21 123.683 168.904C125.64 149.928 114.93 131.609 102.896 130.529Z" fill="white" stroke="#263238" stroke-width="1.00396" stroke-miterlimit="10"/>
<g style="mix-blend-mode:multiply">
<path d="M122.79 179.696C123.115 175.481 123.44 171.657 123.724 168.904C123.805 168.092 123.854 167.28 123.894 166.468L104.479 169.716L87.801 164.032C87.8028 167.483 87.998 170.931 88.3856 174.361L104.747 178.94L122.79 179.696Z" fill="#407BFF"/>
</g>
<g style="mix-blend-mode:multiply">
<path d="M102.173 131.325C101.069 132.551 98.8767 135.044 96.7898 137.691L109.116 150.22L113.176 148.596L102.173 131.325Z" fill="#407BFF"/>
</g>
<path d="M102.896 130.529C102.896 130.529 95.5881 138.43 92.8354 143.342C92.0191 144.835 91.358 146.408 90.8622 148.036L105.559 131.057C104.691 130.794 103.799 130.617 102.896 130.529Z" fill="#263238"/>
<g style="mix-blend-mode:multiply">
<path d="M88.5318 158.511L104.479 163.756L123.846 161.531C123.542 156.707 122.47 151.962 120.671 147.475L105.056 153.736L91.0977 147.411C89.9564 151.039 89.0985 154.75 88.5318 158.511Z" fill="#407BFF"/>
</g>
<g style="mix-blend-mode:multiply">
<path d="M115.986 199.573C107.897 200.931 99.5975 200.253 91.8366 197.6L87.9472 196.269L86.7373 206.013L91.1708 207.255C99.5991 209.611 108.408 210.29 117.098 209.252L120.679 208.822C120.865 208.428 120.97 207.999 120.987 207.563C121.085 205.395 121.255 202.245 121.475 198.631L115.986 199.573Z" fill="#407BFF"/>
</g>
<g style="mix-blend-mode:multiply">
<path d="M118.154 186.305C110.065 187.669 101.763 186.988 94.0047 184.324L89.0515 182.627C89.1743 184.396 89.1499 186.172 88.9784 187.937L88.4019 192.623L93.3388 194.003C101.764 196.362 110.57 197.043 119.258 196.009L121.694 195.716C121.897 192.468 122.132 189.009 122.384 185.591L118.154 186.305Z" fill="#407BFF"/>
</g>
<path d="M41.9727 151.967L57.673 164.591L58.3497 163.749L42.6494 151.126L41.9727 151.967Z" fill="#263238"/>
<path d="M110.456 139.291C110.456 139.291 116.213 143.212 116.343 152.477C116.4 156.537 115.977 160.329 115.044 166.98C114.11 173.63 108.312 195.286 103.797 197.917C99.2827 200.548 92.2751 195.578 92.2751 195.578L58.3822 173.078L50.1892 166.46L46.1292 158.795L47.404 156.359L57.3997 164.024L52.0161 159.046L53.0718 157.707L55.0205 159.063L60.7045 161.19L61.9469 169.31L63.7008 170.512L96.124 182.359C96.124 182.359 95.718 164.909 96.0184 161.572C96.3189 158.234 96.733 149.847 100.306 143.765" fill="white"/>
<mask id="mask4_57_4298" style="mask-type:luminance" maskUnits="userSpaceOnUse" x="46" y="139" width="71" height="60">
<path d="M110.456 139.291C110.456 139.291 116.213 143.212 116.343 152.477C116.4 156.537 115.977 160.329 115.044 166.98C114.11 173.63 108.312 195.286 103.797 197.917C99.2827 200.548 92.2751 195.578 92.2751 195.578L58.3822 173.078L50.1892 166.46L46.1292 158.795L47.404 156.359L57.3997 164.024L52.0161 159.046L53.0718 157.707L55.0205 159.063L60.7045 161.19L61.9469 169.31L63.7008 170.512L96.124 182.359C96.124 182.359 95.718 164.909 96.0184 161.572C96.3189 158.234 96.733 149.847 100.306 143.765" fill="white"/>
</mask>
<g mask="url(#mask4_57_4298)">
<g style="mix-blend-mode:multiply" opacity="0.5">
<path d="M95.8966 169.172C95.8966 175.197 96.0996 182.359 96.0996 182.359L63.709 170.561L61.955 169.359L60.7127 161.239L55.0287 159.111L53.088 157.731L52.0324 159.071L57.3997 164.024L47.404 156.359L46.1941 158.754L50.2541 166.419L58.4472 173.078L60.5097 174.45L105.291 188.879L95.8966 169.172Z" fill="#407BFF"/>
</g>
</g>
<path d="M110.456 139.291C110.456 139.291 116.213 143.212 116.343 152.477C116.4 156.537 115.977 160.329 115.044 166.98C114.11 173.63 108.312 195.286 103.797 197.917C99.2827 200.548 92.2751 195.578 92.2751 195.578L58.3822 173.078L50.1892 166.46L46.1292 158.795L47.404 156.359L57.3997 164.024L52.0162 159.046L53.0718 157.707L55.0205 159.063L60.7045 161.19L61.9469 169.31L63.7008 170.512L96.124 182.359C96.124 182.359 95.718 164.909 96.0184 161.572C96.3189 158.234 96.733 149.847 100.306 143.765" stroke="#263238" stroke-width="1.00396" stroke-miterlimit="10"/>
<path d="M96.124 182.359L108.499 191.291L111.706 185.607C111.706 185.607 113.923 183.861 114.248 182.546C114.573 181.23 114.159 179.095 114.491 177.779C114.824 176.464 116.481 175.23 116.635 172.047C116.789 168.864 116.635 166.208 116.635 166.208C116.635 166.208 119.315 155.189 119.022 150.399C118.73 145.608 114.11 137.139 110.407 136.952C106.704 136.765 101.889 137.325 98.154 142.977C94.4188 148.628 95.1821 165.128 94.5974 166.16C94.0128 167.191 94.8248 172.282 94.8248 172.282C94.5003 172.524 94.231 172.832 94.035 173.187C93.839 173.541 93.7207 173.933 93.688 174.336C93.623 175.66 95.0522 178.916 95.0522 178.916L96.124 182.359Z" fill="white" stroke="#263238" stroke-width="1.00396" stroke-miterlimit="10"/>
<g style="mix-blend-mode:multiply">
<path d="M94.9222 161.921C94.9477 163.338 94.8417 164.754 94.6056 166.151C94.0859 167.077 94.6786 171.259 94.8086 172.112C101.769 174.273 109.129 174.829 116.335 173.736C116.489 173.171 116.582 172.591 116.611 172.006C116.773 168.831 116.611 166.168 116.611 166.168C116.611 166.168 116.846 165.185 117.171 163.691C109.708 164.165 102.216 163.569 94.9222 161.921Z" fill="#407BFF"/>
</g>
<g style="mix-blend-mode:multiply">
<path d="M97.6506 143.878C96.4894 146.209 95.8398 149.708 95.4663 153.257C102.838 156.07 110.785 157.037 118.616 156.075C118.929 154.197 119.067 152.294 119.031 150.391C118.89 148.886 118.534 147.409 117.975 146.006C111.137 146.165 104.307 145.45 97.6506 143.878Z" fill="#407BFF"/>
</g>
<path d="M95.0522 179.005L96.0996 182.359L108.475 191.291L111.682 185.607C111.682 185.607 113.899 183.861 114.223 182.546C114.281 182.317 114.317 182.083 114.329 181.847C107.808 181.735 101.328 180.78 95.0522 179.005Z" fill="#263238"/>
<path d="M104.009 339.489C104.009 339.489 104.285 332.457 105.633 322.177C106.98 311.897 103.741 297.298 103.197 294.862C102.652 292.426 103.473 287.018 102.929 285.118C102.385 283.217 99.7536 275.114 101.305 265.711C102.855 256.308 104.114 231.452 104.114 231.452C104.114 231.452 100.208 228.278 99.0634 224.144C97.9185 220.011 98.7955 218.712 98.7955 218.712" stroke="#263238" stroke-width="1.00396" stroke-miterlimit="10"/>
<path d="M105.819 219.094L104.317 227.409" stroke="#263238" stroke-width="1.00396" stroke-miterlimit="10"/>
</svg>
