<svg width="370" height="370" viewBox="0 0 370 370" fill="none" xmlns="http://www.w3.org/2000/svg">
<path d="M50.0092 273.63C50.0092 273.63 43.3492 266.392 47.286 262.197C51.2228 258.001 54.242 264.217 54.242 264.217C54.242 264.217 49.1582 255.137 54.242 252.244C59.3258 249.35 60.7022 256.684 60.7022 256.684C60.7022 256.684 59.3924 247.16 66.2078 246.627C73.0232 246.094 71.6098 253.975 71.6098 253.975C71.6098 253.975 75.6502 246.353 80.9412 249.535C86.2322 252.717 81.77 259.488 81.77 259.488C81.77 259.488 86.4838 254.501 89.17 258.119C91.8562 261.738 87.5716 264.994 87.5716 264.994C87.5716 264.994 92.6702 263.366 93.4324 268.102C94.1946 272.838 89.4068 273.607 89.4068 273.607L50.0092 273.63Z" fill="#E0E0E0"/>
<path d="M249.876 273.63C249.876 273.63 239.679 262.589 245.724 256.188C251.77 249.787 256.343 259.266 256.343 259.266C256.343 259.266 248.581 245.406 256.343 240.988C264.106 236.57 266.193 247.796 266.193 247.796C266.193 247.796 264.195 233.218 274.592 232.419C284.989 231.62 282.835 243.637 282.835 243.637C282.835 243.637 289.007 232.005 297.08 236.889C305.154 241.773 298.353 252.088 298.353 252.088C298.353 252.088 305.539 244.474 309.631 249.994C313.723 255.514 307.181 260.48 307.181 260.48C307.181 260.48 314.966 258.001 316.135 265.223C317.305 272.446 309.986 273.622 309.986 273.622L249.876 273.63Z" fill="#F0F0F0"/>
<path d="M172.612 229.037H178.429L190.328 194.775H184.512L172.612 229.037Z" fill="#E6E6E6"/>
<path d="M95.053 229.037H100.869L112.769 194.775H106.952L95.053 229.037Z" fill="#E6E6E6"/>
<path d="M333.037 273.63H34.4322V282.68H333.037V273.63Z" fill="#F5F5F5"/>
<path d="M69.3306 273.63H34.4322V282.68H69.3306V273.63Z" fill="#E0E0E0"/>
<path d="M139.135 273.63H104.236V282.68H139.135V273.63Z" fill="#E0E0E0"/>
<path d="M208.939 273.63H174.041V282.68H208.939V273.63Z" fill="#E0E0E0"/>
<path d="M278.743 273.63H243.845V282.68H278.743V273.63Z" fill="#E0E0E0"/>
<path d="M333.037 273.63H313.649V282.68H333.037V273.63Z" fill="#E0E0E0"/>
<path d="M302.512 136.382H278.432C278.326 135.492 278.54 134.594 279.037 133.848C279.533 133.102 280.279 132.557 281.141 132.312C284.345 131.135 285.84 132.904 285.84 132.904C285.45 132.437 285.236 131.847 285.236 131.239C285.236 130.63 285.45 130.041 285.84 129.574C287.172 127.65 290.879 128.834 290.879 128.834C290.879 128.834 289.791 126.673 292.196 124.697C294.601 122.721 298.161 124.697 298.161 124.697C298.161 124.697 298.442 120.857 303.141 121.471C307.84 122.085 307.322 125.245 307.322 125.245C307.322 125.245 308.595 124.113 311.318 125.393C312.054 125.671 312.679 126.184 313.093 126.853C313.508 127.522 313.69 128.31 313.612 129.093C313.612 129.093 315.003 127.376 317.941 128.493C320.879 129.611 320.072 131.957 320.072 131.957C320.072 131.957 323.417 130.477 325.126 132.319C327.176 134.539 325.585 136.389 325.585 136.389L302.512 136.382Z" fill="#E6E6E6"/>
<path d="M176.86 127.28H152.795C152.687 126.391 152.899 125.493 153.395 124.746C153.89 124 154.635 123.455 155.496 123.21C158.7 122.033 160.195 123.802 160.195 123.802C159.807 123.332 159.595 122.742 159.595 122.133C159.595 121.524 159.807 120.934 160.195 120.464C161.535 118.548 165.242 119.724 165.242 119.724C165.242 119.724 164.147 117.564 166.552 115.588C168.957 113.612 172.524 115.588 172.524 115.588C172.524 115.588 172.805 111.755 177.504 112.369C182.203 112.983 181.685 116.143 181.685 116.143C181.685 116.143 182.95 115.011 185.673 116.291C186.411 116.569 187.035 117.082 187.451 117.751C187.868 118.42 188.051 119.207 187.975 119.991C187.975 119.991 189.359 118.267 192.296 119.384C195.234 120.501 194.435 122.855 194.435 122.855C194.435 122.855 197.772 121.375 199.482 123.217C201.539 125.437 199.941 127.287 199.941 127.287L176.86 127.28Z" fill="#E6E6E6"/>
<path d="M226.603 80.3787H215.836C215.042 80.3961 214.287 80.7247 213.733 81.2936C213.18 81.8625 212.872 82.6262 212.876 83.4201V91.2567C212.881 91.6319 212.963 92.0022 213.117 92.3445C213.271 92.6868 213.493 92.9937 213.771 93.2463C214.048 93.4989 214.375 93.6918 214.73 93.8129C215.085 93.934 215.462 93.9807 215.836 93.9503H217.464L216.642 97.0435L219.602 93.9503H226.595C228.216 93.9503 229.696 92.8773 229.696 91.2567V83.4201C229.662 82.6153 229.324 81.8534 228.75 81.2886C228.176 80.7239 227.408 80.3986 226.603 80.3787Z" fill="#E6E6E6"/>
<path d="M155.814 76.9969H113.805C113.605 75.4185 113.968 73.8201 114.83 72.4829C115.692 71.1458 116.998 70.1553 118.518 69.6857C124.113 67.6359 126.725 70.6181 126.725 70.6181C126.725 70.6181 124.394 68.1021 126.725 64.7499C129.056 61.3977 135.524 63.4031 135.524 63.4031C135.524 63.4031 133.622 59.6217 137.818 56.1733C142.013 52.7249 148.229 56.1733 148.229 56.1733C148.229 56.1733 148.718 49.4763 156.924 50.5419C165.131 51.6075 164.221 57.1353 164.221 57.1353C164.221 57.1353 166.441 55.1521 171.184 57.3943C175.928 59.6365 175.188 63.8619 175.188 63.8619C175.188 63.8619 177.6 60.8501 182.78 62.7963C187.96 64.7425 186.48 68.8199 186.48 68.8199C186.48 68.8199 192.319 66.4075 195.293 69.6561C198.882 73.5707 196.093 76.9673 196.093 76.9673L155.814 76.9969Z" fill="#E6E6E6"/>
<path d="M79.846 113.842H43.401C43.401 113.842 42.661 109.453 47.4932 107.677C52.3254 105.901 54.612 108.573 54.612 108.573C54.612 108.573 52.5918 106.434 54.612 103.526C56.6322 100.618 62.2488 102.379 62.2488 102.379C62.2488 102.379 60.5986 99.1082 64.232 96.1186C67.8654 93.129 73.2674 96.1186 73.2674 96.1186C73.2674 96.1186 73.6966 90.3096 80.808 91.242C87.9194 92.1744 87.1424 96.9548 87.1424 96.9548C87.1424 96.9548 89.059 95.238 93.1808 97.1768C97.3026 99.1156 96.6588 102.793 96.6588 102.793C96.6588 102.793 98.7604 100.181 103.208 101.876C107.655 103.57 106.442 107.122 106.442 107.122C106.442 107.122 111.503 104.858 114.086 107.677C117.194 111.074 114.774 113.842 114.774 113.842H79.846Z" fill="#E6E6E6"/>
<path d="M242.431 170.57H218.359C218.251 169.681 218.463 168.782 218.959 168.036C219.454 167.29 220.199 166.745 221.06 166.5C224.264 165.323 225.759 167.092 225.759 167.092C225.37 166.624 225.158 166.035 225.158 165.427C225.158 164.819 225.37 164.23 225.759 163.762C227.091 161.838 230.799 163.022 230.799 163.022C230.799 163.022 229.711 160.861 232.116 158.885C234.521 156.909 238.08 158.885 238.08 158.885C238.08 158.885 238.361 155.045 243.068 155.659C247.774 156.273 247.249 159.433 247.249 159.433C247.249 159.433 248.514 158.301 251.237 159.581C251.974 159.859 252.598 160.372 253.013 161.041C253.428 161.71 253.61 162.498 253.531 163.281C253.531 163.281 254.923 161.564 257.86 162.681C260.798 163.799 259.999 166.145 259.999 166.145C259.999 166.145 263.336 164.665 265.046 166.507C267.103 168.727 265.505 170.577 265.505 170.577L242.431 170.57Z" fill="#E6E6E6"/>
<path d="M183.735 229.037H57.6978V237.436H183.735V229.037Z" fill="#F0F0F0"/>
<path d="M192.777 217.397H80.3196V225.796H192.777V217.397Z" fill="#F0F0F0"/>
<path d="M202.479 200.599H90.021V208.998H202.479V200.599Z" fill="#F0F0F0"/>
<path d="M208.946 186.376H96.4812V194.775H208.946V186.376Z" fill="#F0F0F0"/>
<path d="M68.6868 237.437H62.8704V273.63H68.6868V237.437Z" fill="#F0F0F0"/>
<path d="M68.6868 237.437H62.8704V244.548H68.6868V237.437Z" fill="#E6E6E6"/>
<path d="M182.44 237.437H176.623V273.63H182.44V237.437Z" fill="#F0F0F0"/>
<path d="M182.44 237.437H176.623V244.548H182.44V237.437Z" fill="#E6E6E6"/>
<path d="M370 282.976H0V283.161H370V282.976Z" fill="#EBEBEB"/>
<path d="M332.926 294.882H308.417V295.067H332.926V294.882Z" fill="#EBEBEB"/>
<path d="M245.103 296.896H238.672V297.081H245.103V296.896Z" fill="#EBEBEB"/>
<path d="M307.677 288.015H293.477V288.2H307.677V288.015Z" fill="#EBEBEB"/>
<path d="M70.781 289.259H38.8204V289.444H70.781V289.259Z" fill="#EBEBEB"/>
<path d="M82.0586 289.259H77.3744V289.444H82.0586V289.259Z" fill="#EBEBEB"/>
<path d="M166.611 292.381H97.2878V292.566H166.611V292.381Z" fill="#EBEBEB"/>
<path d="M175.38 249.972H32.4934C31.374 249.97 30.3012 249.524 29.5104 248.732C28.7196 247.94 28.2754 246.866 28.2754 245.747V44.8884C28.2851 43.7754 28.7336 42.7113 29.5234 41.927C30.3131 41.1428 31.3804 40.7019 32.4934 40.7H175.38C176.501 40.7 177.575 41.1451 178.368 41.9375C179.16 42.73 179.605 43.8047 179.605 44.9254V245.747C179.605 246.867 179.16 247.942 178.368 248.734C177.575 249.527 176.501 249.972 175.38 249.972ZM32.4934 40.848C31.4231 40.8499 30.3973 41.2765 29.6412 42.034C28.8851 42.7915 28.4604 43.8181 28.4604 44.8884V245.747C28.4604 246.817 28.8851 247.843 29.6412 248.601C30.3973 249.358 31.4231 249.785 32.4934 249.787H175.38C176.451 249.785 177.478 249.359 178.235 248.601C178.992 247.844 179.418 246.818 179.42 245.747V44.8884C179.418 43.8174 178.992 42.7908 178.235 42.0335C177.478 41.2762 176.451 40.8499 175.38 40.848H32.4934Z" fill="#EBEBEB"/>
<path d="M335.449 249.972H192.555C191.435 249.97 190.362 249.524 189.57 248.732C188.778 247.94 188.332 246.867 188.33 245.747V44.8884C188.342 43.7747 188.792 42.7106 189.583 41.9266C190.374 41.1426 191.442 40.7018 192.555 40.7H335.449C336.561 40.7038 337.626 41.1456 338.415 41.9296C339.203 42.7136 339.65 43.7767 339.66 44.8884V245.747C339.66 246.865 339.217 247.937 338.428 248.729C337.638 249.521 336.567 249.968 335.449 249.972ZM192.555 40.848C191.484 40.8499 190.458 41.2762 189.701 42.0335C188.943 42.7908 188.517 43.8174 188.515 44.8884V245.747C188.517 246.818 188.943 247.844 189.701 248.601C190.458 249.359 191.484 249.785 192.555 249.787H335.449C336.52 249.785 337.547 249.359 338.304 248.601C339.062 247.844 339.488 246.818 339.49 245.747V44.8884C339.488 43.8174 339.062 42.7908 338.304 42.0335C337.547 41.2762 336.52 40.8499 335.449 40.848H192.555Z" fill="#EBEBEB"/>
<path d="M328.479 321.464C328.479 324.905 264.239 327.687 185 327.687C105.761 327.687 41.5214 324.905 41.5214 321.464C41.5214 318.023 105.761 315.24 185 315.24C264.239 315.24 328.479 318.03 328.479 321.464Z" fill="#F5F5F5"/>
<path d="M321.833 50.4385H333.74C333.74 50.4385 332.763 57.2761 323.595 59.2001L321.833 50.4385Z" fill="#263238"/>
<path d="M321.833 68.5684H333.74C333.74 68.5684 332.763 75.406 323.595 77.3522L321.833 68.5684Z" fill="#263238"/>
<path d="M321.833 86.6985H333.74C333.74 86.6985 332.763 93.5361 323.595 95.4823L321.833 86.6985Z" fill="#263238"/>
<path opacity="0.1" d="M321.833 50.4385H333.74C333.74 50.4385 332.763 57.2761 323.595 59.2001L321.833 50.4385Z" fill="white"/>
<path opacity="0.1" d="M321.833 68.5684H333.74C333.74 68.5684 332.763 75.406 323.595 77.3522L321.833 68.5684Z" fill="white"/>
<path opacity="0.1" d="M321.833 86.6985H333.74C333.74 86.6985 332.763 93.5361 323.595 95.4823L321.833 86.6985Z" fill="white"/>
<path d="M321.9 43.6602H299.7C297.657 43.6602 296 45.3167 296 47.3602V105.82C296 107.864 297.657 109.52 299.7 109.52H321.9C323.943 109.52 325.6 107.864 325.6 105.82V47.3602C325.6 45.3167 323.943 43.6602 321.9 43.6602Z" fill="#263238"/>
<path opacity="0.1" d="M309.32 43.6602H299.7C297.657 43.6602 296 45.3167 296 47.3602V105.82C296 107.864 297.657 109.52 299.7 109.52H309.32C311.363 109.52 313.02 107.864 313.02 105.82V47.3602C313.02 45.3167 311.363 43.6602 309.32 43.6602Z" fill="white"/>
<path d="M297.85 39.7231H300.677C301.595 39.7251 302.474 40.0906 303.123 40.7397C303.773 41.3887 304.138 42.2684 304.14 43.1863V114.027C304.138 114.944 303.773 115.824 303.123 116.473C302.474 117.122 301.595 117.488 300.677 117.49H297.85" stroke="#407BFF" stroke-width="5" stroke-miterlimit="10"/>
<path d="M308.624 296.104C308.433 295.842 308.183 295.628 307.893 295.482C307.604 295.335 307.284 295.259 306.959 295.26H288.741C288.416 295.259 288.096 295.335 287.806 295.482C287.517 295.628 287.267 295.842 287.076 296.104L280.63 304.88H315.07L308.624 296.104Z" fill="#407BFF"/>
<path d="M300.44 35.89C300.44 35.2031 300.167 34.5444 299.681 34.0586C299.196 33.5729 298.537 33.3 297.85 33.3C297.163 33.3 296.504 33.5729 296.019 34.0586C295.533 34.5444 295.26 35.2031 295.26 35.89C295.265 36.014 295.277 36.1376 295.297 36.26H295.26V295.26H300.44V36.26C300.448 36.1368 300.448 36.0133 300.44 35.89Z" fill="#407BFF"/>
<path d="M297.85 60.199H293.98C293.337 60.2029 292.721 60.4611 292.268 60.9173C291.814 61.3734 291.56 61.9904 291.56 62.6336V119.029C291.56 119.348 291.623 119.665 291.745 119.96C291.868 120.255 292.047 120.522 292.274 120.748C292.5 120.973 292.768 121.152 293.063 121.274C293.359 121.395 293.675 121.457 293.995 121.456H297.865" stroke="#407BFF" stroke-width="5" stroke-miterlimit="10"/>
<path d="M304.14 67.3401H281.2C279.157 67.3401 277.5 68.9966 277.5 71.0401V111.74C277.5 113.784 279.157 115.44 281.2 115.44H304.14C306.183 115.44 307.84 113.784 307.84 111.74V71.0401C307.84 68.9966 306.183 67.3401 304.14 67.3401Z" fill="#263238"/>
<path opacity="0.2" d="M304.14 67.3401H281.2C279.157 67.3401 277.5 68.9966 277.5 71.0401V111.74C277.5 113.784 279.157 115.44 281.2 115.44H304.14C306.183 115.44 307.84 113.784 307.84 111.74V71.0401C307.84 68.9966 306.183 67.3401 304.14 67.3401Z" fill="white"/>
<path opacity="0.1" d="M300.44 67.3401H281.2C279.157 67.3401 277.5 68.9966 277.5 71.0401V111.74C277.5 113.784 279.157 115.44 281.2 115.44H300.44C302.483 115.44 304.14 113.784 304.14 111.74V71.0401C304.14 68.9966 302.483 67.3401 300.44 67.3401Z" fill="white"/>
<path d="M291.323 91.3308C296.011 91.3308 299.811 87.5307 299.811 82.843C299.811 78.1553 296.011 74.3552 291.323 74.3552C286.636 74.3552 282.835 78.1553 282.835 82.843C282.835 87.5307 286.636 91.3308 291.323 91.3308Z" fill="#407BFF"/>
<path d="M282.835 102.431C282.828 104.111 283.32 105.756 284.248 107.156C285.176 108.557 286.499 109.651 288.049 110.299C289.6 110.947 291.307 111.12 292.956 110.797C294.605 110.474 296.121 109.668 297.312 108.483C298.503 107.297 299.315 105.785 299.645 104.137C299.976 102.49 299.81 100.781 299.168 99.2282C298.527 97.6751 297.439 96.3473 296.043 95.413C294.646 94.4787 293.003 93.98 291.323 93.98C289.078 93.98 286.925 94.8691 285.334 96.4529C283.744 98.0367 282.845 100.186 282.835 102.431Z" fill="#407BFF"/>
<path opacity="0.6" d="M282.835 102.431C282.828 104.111 283.32 105.756 284.248 107.156C285.176 108.557 286.499 109.651 288.049 110.299C289.6 110.947 291.307 111.12 292.956 110.797C294.605 110.474 296.121 109.668 297.312 108.483C298.503 107.297 299.315 105.785 299.645 104.137C299.976 102.49 299.81 100.781 299.168 99.2282C298.527 97.6751 297.439 96.3473 296.043 95.413C294.646 94.4787 293.003 93.98 291.323 93.98C289.078 93.98 286.925 94.8691 285.334 96.4529C283.744 98.0367 282.845 100.186 282.835 102.431Z" fill="white"/>
<path d="M290.45 97.6799C290.449 97.8986 290.512 98.1128 290.633 98.2953C290.753 98.4777 290.925 98.6202 291.127 98.7046C291.329 98.7889 291.551 98.8114 291.766 98.7691C291.98 98.7268 292.178 98.6216 292.332 98.467C292.487 98.3123 292.592 98.1152 292.634 97.9006C292.677 97.686 292.654 97.4637 292.57 97.262C292.485 97.0602 292.343 96.8881 292.161 96.7675C291.978 96.6469 291.764 96.5833 291.545 96.5847C291.255 96.5867 290.978 96.7027 290.773 96.9077C290.568 97.1126 290.452 97.3901 290.45 97.6799Z" fill="#407BFF"/>
<path d="M291.997 99.4265L292.544 100.166C292.878 100.711 293.368 101.141 293.95 101.402L295.23 101.979L295.023 102.446L293.41 102.053C292.905 101.92 292.441 101.666 292.056 101.313L291.76 104.007L291.264 104.902C290.721 105.887 290.021 106.777 289.192 107.537L288.741 107.951L288.881 108.98L287.712 107.663L287.971 107.418C289.045 106.422 289.89 105.205 290.45 103.852L291.131 99.0269L291.997 99.4265Z" fill="#407BFF"/>
<path d="M292.108 104.311L291.471 105.384L294.498 108.506L295.23 107.189L294.394 107.478L292.108 104.311Z" fill="#407BFF"/>
<path d="M290.82 99.2786L290.472 100.892C289.603 101.114 288.798 101.534 288.119 102.12L287.734 102.453L287.446 102.135L288.637 100.877C288.965 100.528 289.335 100.223 289.74 99.9668L290.82 99.2786Z" fill="#407BFF"/>
<g opacity="0.6">
<path d="M291.323 78.7509C291.928 78.7509 292.418 78.2606 292.418 77.6557C292.418 77.0509 291.928 76.5605 291.323 76.5605C290.718 76.5605 290.228 77.0509 290.228 77.6557C290.228 78.2606 290.718 78.7509 291.323 78.7509Z" fill="white"/>
<path d="M290.302 80.453C289.667 80.9932 289.172 81.6786 288.859 82.451L288.674 82.9024H288.289L288.519 81.8146C288.65 81.2253 288.881 80.6624 289.199 80.1496L289.621 79.4762C289.729 79.3052 289.879 79.1646 290.056 79.0675C290.234 78.9704 290.433 78.92 290.635 78.9212H292.011C292.214 78.92 292.413 78.9704 292.59 79.0675C292.767 79.1646 292.917 79.3052 293.025 79.4762L293.447 80.1496C293.772 80.6592 294.003 81.2232 294.128 81.8146L294.365 82.9024H293.972L293.787 82.451C293.474 81.6786 292.979 80.9932 292.344 80.453V82.3474L293.38 89.1628L294.12 89.5328H292.7L291.286 84.4416L289.91 89.5402H288.496L289.236 89.1702L290.28 82.3548V80.4604L290.302 80.453Z" fill="white"/>
</g>
<path d="M195.619 325.201L181.248 327.687H13.7048L16.095 327.236H16.1024L28.0904 325.201H195.619Z" fill="#407BFF"/>
<path d="M224.309 320.22L209.96 322.707H42.5278L56.9652 320.22H224.309Z" fill="#407BFF"/>
<path d="M253.013 315.24L238.665 317.734H71.4026L85.84 315.24H253.013Z" fill="#407BFF"/>
<path opacity="0.6" d="M195.619 325.201L181.248 327.687H13.7048L16.095 327.236H16.1024L28.0904 325.201H195.619Z" fill="white"/>
<path opacity="0.6" d="M224.309 320.22L209.96 322.707H42.5278L56.9652 320.22H224.309Z" fill="white"/>
<path opacity="0.6" d="M253.013 315.24L238.665 317.734H71.4026L85.84 315.24H253.013Z" fill="white"/>
<path d="M195.36 311.355L189.181 312.014L188.019 298.686L194.198 298.035L195.36 311.355Z" fill="#B97964"/>
<path opacity="0.2" d="M194.198 298.035L188.019 298.686L188.619 305.561L194.805 304.902L194.198 298.035Z" fill="black"/>
<path d="M227.942 286.232L223.45 290.191L213.912 280.105L218.411 276.146L227.942 286.232Z" fill="#B97964"/>
<path opacity="0.2" d="M218.411 276.153L213.919 280.112L218.84 285.307L223.339 281.348L218.411 276.153Z" fill="black"/>
<path d="M200.214 239.694C203.5 250.675 222.807 275.828 222.807 275.828L214.304 284.33C209.39 278.41 195.715 260.754 195.715 260.754C193.258 279.358 197.143 302.253 197.143 302.253L185.081 303.067C178.547 287.601 181.078 259.215 182.514 247.464C182.921 244.141 183.254 242.143 183.254 242.143C180.53 236.223 180.294 225.648 180.997 214.822C181.926 202.787 183.57 190.817 185.918 178.977L216.998 179.391C216.79 186.954 216.591 199.83 212.091 210.663C207.592 221.497 200.214 239.694 200.214 239.694Z" fill="#407BFF"/>
<path opacity="0.6" d="M200.214 239.694C203.5 250.675 222.807 275.828 222.807 275.828L214.304 284.33C209.39 278.41 195.715 260.754 195.715 260.754C193.258 279.358 197.143 302.253 197.143 302.253L185.081 303.067C178.547 287.601 181.078 259.215 182.514 247.464C182.921 244.141 183.254 242.143 183.254 242.143C180.53 236.223 180.294 225.648 180.997 214.822C181.926 202.787 183.57 190.817 185.918 178.977L216.998 179.391C216.79 186.954 216.591 199.83 212.091 210.663C207.592 221.497 200.214 239.694 200.214 239.694Z" fill="white"/>
<path d="M188.522 310.06H195.797C195.916 310.061 196.032 310.102 196.125 310.177C196.218 310.253 196.282 310.358 196.307 310.474L197.491 315.802C197.538 316.032 197.492 316.27 197.365 316.467C197.238 316.663 197.039 316.802 196.81 316.853C196.744 316.861 196.677 316.861 196.611 316.853C194.257 316.853 192.548 316.676 189.588 316.676C187.768 316.676 182.277 316.861 179.768 316.861C177.26 316.861 176.927 314.382 177.955 314.152C182.565 313.146 186.043 311.755 187.516 310.452C187.79 310.199 188.149 310.059 188.522 310.06Z" fill="#263238"/>
<path d="M186.547 311.074C186.138 311.109 185.731 311.001 185.392 310.771C185.286 310.681 185.204 310.567 185.152 310.438C185.101 310.309 185.081 310.169 185.096 310.031C185.093 309.949 185.115 309.867 185.159 309.797C185.202 309.728 185.265 309.672 185.34 309.639C186.006 309.291 187.938 310.482 188.152 310.615C188.177 310.629 188.196 310.65 188.208 310.675C188.22 310.7 188.224 310.728 188.219 310.756C188.216 310.784 188.204 310.81 188.185 310.831C188.167 310.852 188.143 310.867 188.115 310.874C187.602 310.999 187.075 311.066 186.547 311.074ZM185.651 309.831C185.587 309.831 185.524 309.847 185.466 309.875C185.466 309.875 185.385 309.927 185.377 310.038C185.365 310.133 185.376 310.229 185.409 310.318C185.443 310.407 185.498 310.486 185.57 310.549C186.24 310.854 187.002 310.894 187.701 310.66C187.078 310.252 186.382 309.971 185.651 309.831Z" fill="#407BFF"/>
<path d="M188.071 310.859H188.004C187.39 310.526 186.191 309.209 186.317 308.58C186.338 308.475 186.394 308.38 186.476 308.311C186.558 308.243 186.661 308.204 186.769 308.203C186.877 308.187 186.988 308.195 187.093 308.227C187.198 308.259 187.294 308.314 187.375 308.388C188.064 308.95 188.212 310.674 188.219 310.756C188.22 310.782 188.214 310.808 188.203 310.831C188.191 310.854 188.174 310.874 188.152 310.889C188.123 310.889 188.094 310.879 188.071 310.859ZM186.872 308.432H186.806C186.621 308.432 186.606 308.536 186.598 308.58C186.524 308.965 187.279 309.964 187.901 310.43C187.849 309.743 187.591 309.088 187.161 308.551C187.08 308.481 186.979 308.44 186.872 308.432Z" fill="#407BFF"/>
<path d="M222.37 290.221L227.831 285.411C227.923 285.335 228.038 285.293 228.157 285.293C228.276 285.293 228.391 285.335 228.482 285.411L232.922 288.63C233.11 288.77 233.234 288.978 233.269 289.21C233.304 289.441 233.246 289.677 233.107 289.866L232.974 290.006C231.183 291.538 229.8 292.559 227.58 294.513C226.218 295.719 222.222 299.493 220.335 301.173C218.448 302.853 216.561 301.173 217.183 300.337C219.98 296.533 221.667 293.188 221.896 291.22C221.919 290.838 222.089 290.48 222.37 290.221Z" fill="#263238"/>
<path d="M221.578 292.3C221.297 292.594 220.923 292.782 220.52 292.833C220.375 292.839 220.23 292.807 220.101 292.741C219.971 292.675 219.861 292.577 219.78 292.456C219.726 292.394 219.69 292.318 219.677 292.237C219.664 292.156 219.674 292.073 219.706 291.997C219.972 291.301 222.215 290.917 222.459 290.88C222.486 290.872 222.514 290.874 222.541 290.883C222.567 290.892 222.59 290.909 222.607 290.931C222.621 290.956 222.629 290.984 222.629 291.013C222.629 291.041 222.621 291.069 222.607 291.094C222.311 291.534 221.965 291.938 221.578 292.3ZM220.098 291.96C220.047 291.997 220.009 292.049 219.987 292.108C219.987 292.108 219.987 292.204 220.032 292.293C220.083 292.373 220.154 292.439 220.239 292.485C220.323 292.53 220.417 292.553 220.513 292.552C221.218 292.338 221.814 291.861 222.178 291.22C221.44 291.336 220.732 291.592 220.091 291.975L220.098 291.96Z" fill="#407BFF"/>
<path d="M222.585 291.146L222.533 291.19C221.852 291.345 220.083 291.146 219.758 290.591C219.703 290.499 219.682 290.39 219.7 290.284C219.717 290.179 219.772 290.083 219.854 290.013C219.924 289.93 220.011 289.863 220.109 289.817C220.208 289.771 220.315 289.747 220.424 289.747C221.319 289.747 222.562 290.909 222.644 290.968C222.655 290.99 222.661 291.014 222.661 291.038C222.661 291.063 222.655 291.087 222.644 291.109C222.628 291.127 222.608 291.14 222.585 291.146ZM220.076 290.117L220.032 290.161C219.891 290.28 219.95 290.369 219.972 290.406C220.172 290.746 221.401 290.99 222.192 290.931C221.713 290.446 221.095 290.121 220.424 289.999C220.297 289.991 220.172 290.033 220.076 290.117Z" fill="#407BFF"/>
<path opacity="0.2" d="M203.951 248.781C200.514 253.156 198.357 258.4 197.721 263.928C196.492 262.027 195.715 260.754 195.715 260.754C195.715 260.754 196.159 249.691 200.214 239.693C201.218 242.816 202.468 245.855 203.951 248.781Z" fill="black"/>
<path opacity="0.2" d="M182.558 247.116C182.943 244 183.239 242.143 183.239 242.143C183.009 244.43 182.78 245.414 182.558 247.116Z" fill="black"/>
<path opacity="0.2" d="M199.06 189.44C198.66 190.217 185.918 215.177 183.246 242.128C181.818 239.02 181.071 234.639 180.782 229.622C184.142 217.967 189.44 200.007 199.06 189.44Z" fill="black"/>
<path d="M215.421 286.306L225.3 277.974L222.807 275.021L212.402 283.472L215.421 286.306Z" fill="#407BFF"/>
<path opacity="0.6" d="M215.421 286.306L225.3 277.974L222.807 275.021L212.402 283.472L215.421 286.306Z" fill="#407BFF"/>
<g opacity="0.4">
<path d="M225.293 277.974L224.427 278.706L220.979 281.622L215.429 286.306L212.402 283.472L213.571 282.532L222.111 275.591L222.807 275.021L225.293 277.974Z" fill="white"/>
<path opacity="0.6" d="M225.293 277.974L224.427 278.706L220.979 281.622L215.429 286.306L212.402 283.472L213.571 282.532L222.111 275.591L222.807 275.021L225.293 277.974Z" fill="white"/>
</g>
<path d="M184.526 304.799L197.839 302.816L197.432 299.13L183.579 300.951L184.526 304.799Z" fill="#407BFF"/>
<path opacity="0.6" d="M184.526 304.799L197.839 302.816L197.432 299.13L183.579 300.951L184.526 304.799Z" fill="#407BFF"/>
<g opacity="0.4">
<path d="M184.526 304.799L197.839 302.816L197.432 299.13L183.579 300.951L184.526 304.799Z" fill="white"/>
<path opacity="0.6" d="M184.526 304.799L197.839 302.816L197.432 299.13L183.579 300.951L184.526 304.799Z" fill="white"/>
</g>
<path d="M261.96 77.7002H259V109.52H261.96V77.7002Z" fill="#407BFF"/>
<path d="M235.956 133.333L246.487 137.951C247.071 137.773 252.732 112.673 252.732 112.673L257.823 113.05C257.823 113.05 254.664 140.77 250.971 144.419C247.937 147.416 233.707 139.557 233.707 139.557L235.956 133.333Z" fill="#EBB376"/>
<path d="M211.758 136.9C212.15 136.861 212.544 136.861 212.935 136.9C215.789 137.223 218.621 137.717 221.415 138.38C225.829 139.402 230.143 140.813 234.306 142.598L237.843 132.46C237.843 132.46 218.174 121.53 214.045 121.59C214.045 121.59 208.488 137.396 211.758 136.9Z" fill="#407BFF"/>
<path opacity="0.2" d="M212.935 136.9C215.789 137.222 218.621 137.717 221.415 138.38C220.268 133.422 214.163 129.367 214.163 129.367L212.935 136.9Z" fill="black"/>
<path d="M254.153 108.973C254.153 108.973 255.204 106.42 256.373 106.013C257.542 105.606 264.942 105.125 265.616 105.931C266.289 106.738 265.956 112.665 264.528 113.331C263.1 113.997 256.617 113.427 256.018 113.124L254.153 108.973Z" fill="#B97964"/>
<path d="M179.776 124.357C179.776 124.357 180.715 129.078 181.862 135.938C182.38 139.039 182.935 142.598 183.476 146.298C183.476 146.298 183.476 146.335 183.476 146.35C184.134 150.945 184.756 155.837 185.222 160.595C185.726 165.512 185.973 170.452 185.962 175.395H217.094C217.094 175.395 217.545 167.662 217.479 157.494C217.479 152.84 217.316 147.682 216.983 142.517C216.502 135.043 215.606 127.561 214.023 121.604C214.045 121.59 195.73 117.475 179.776 124.357Z" fill="#407BFF"/>
<path d="M190.18 121.545C193.014 124.12 199.955 123.166 199.955 123.166C199.955 123.166 204.292 121.982 203.382 120.627C200.821 120.206 199.593 119.014 199.082 117.49C198.803 116.545 198.715 115.554 198.823 114.574C198.866 114.028 198.937 113.485 199.038 112.946L190.476 106.56C191.593 110.785 192.977 118.504 190.18 121.545Z" fill="#EBB376"/>
<path opacity="0.2" d="M192.459 110.63C192.8 115.81 197.032 117.201 199.119 117.49C198.84 116.545 198.752 115.554 198.86 114.574L192.459 110.63Z" fill="black"/>
<path d="M204.921 93.0181C204.921 93.0181 207.37 100.751 203.648 104.458C199.926 108.166 197.58 93.4251 197.58 93.4251L204.921 93.0181Z" fill="#263238"/>
<path d="M191.305 111.252C191.633 111.762 192.013 112.238 192.437 112.672C193.523 113.837 194.961 114.612 196.531 114.88C198.1 115.147 199.714 114.892 201.125 114.152C202.968 113.231 204.394 111.644 205.113 109.712C205.209 109.446 205.298 109.172 205.372 108.891C205.544 108.209 205.673 107.517 205.757 106.819C206.43 101.691 205.306 94.8607 200.385 92.7591C199.145 92.2345 197.791 92.0361 196.453 92.1826C195.115 92.3291 193.836 92.8157 192.739 93.596C191.642 94.3763 190.763 95.4245 190.185 96.6406C189.608 97.8568 189.351 99.2005 189.44 100.544C189.632 105.413 189.581 108.588 191.305 111.252Z" fill="#EBB376"/>
<path d="M198.135 102.268C198.098 102.727 198.372 103.119 198.683 103.119C198.993 103.119 199.238 102.742 199.245 102.276C199.252 101.809 199.008 101.424 198.705 101.417C198.401 101.41 198.142 101.787 198.135 102.268Z" fill="#263238"/>
<path d="M203.441 102.335C203.396 102.801 203.678 103.186 203.981 103.186C204.284 103.186 204.543 102.808 204.551 102.342C204.558 101.876 204.307 101.491 204.003 101.491C203.7 101.491 203.448 101.891 203.441 102.335Z" fill="#263238"/>
<path d="M201.754 102.542C202.293 103.985 203.027 105.347 203.937 106.59C203.616 106.809 203.252 106.958 202.869 107.024C202.485 107.09 202.093 107.074 201.717 106.975L201.754 102.542Z" fill="#D58745"/>
<path d="M196.514 100.529C196.564 100.534 196.614 100.528 196.66 100.51C196.707 100.492 196.748 100.463 196.781 100.425C196.986 100.147 197.253 99.9203 197.562 99.7636C197.87 99.6069 198.211 99.5243 198.557 99.5226C198.629 99.5285 198.701 99.5053 198.757 99.4581C198.812 99.4109 198.847 99.3436 198.853 99.271C198.859 99.1984 198.835 99.1264 198.788 99.0709C198.741 99.0154 198.674 98.9809 198.601 98.975C198.17 98.9703 197.743 99.0685 197.357 99.2616C196.971 99.4546 196.636 99.7369 196.381 100.085C196.335 100.141 196.313 100.213 196.32 100.285C196.327 100.357 196.362 100.424 196.418 100.47C196.447 100.494 196.48 100.514 196.514 100.529Z" fill="#263238"/>
<path d="M205.72 100.537C205.773 100.551 205.83 100.551 205.883 100.537C205.948 100.506 205.999 100.451 206.024 100.383C206.049 100.315 206.046 100.24 206.016 100.174C205.838 99.7743 205.567 99.4229 205.226 99.1487C204.885 98.8746 204.484 98.6858 204.055 98.5978C204.019 98.5926 203.982 98.5946 203.947 98.6037C203.912 98.6129 203.879 98.6289 203.85 98.651C203.821 98.673 203.797 98.7006 203.779 98.7321C203.76 98.7637 203.749 98.7985 203.744 98.8346C203.737 98.9056 203.757 98.9766 203.799 99.034C203.842 99.0914 203.904 99.1311 203.974 99.1454C204.312 99.2225 204.627 99.3779 204.894 99.5989C205.162 99.8199 205.373 100.101 205.513 100.418C205.564 100.483 205.638 100.525 205.72 100.537Z" fill="#263238"/>
<path d="M193.732 93.4104L194.132 95.9338C193.709 96.1545 193.385 96.5256 193.224 96.9737C193.062 97.4217 193.074 97.9142 193.258 98.3536C194.154 100.455 193.059 103.815 191.468 105.191C191.468 105.191 191.386 104.266 190.609 104.51C189.832 104.755 190.217 109.565 191.823 111.814C191.823 111.814 189.447 109.816 187.975 104.799C186.606 100.167 186.325 96.2742 187.235 94.439L193.732 93.4104Z" fill="#263238"/>
<path d="M187.338 95.1641C187.338 95.1641 184.771 91.1977 191.682 89.1109C198.594 87.0241 203.404 89.9915 203.404 89.9915C203.404 89.9915 207.896 95.3639 201.924 96.2445C196.056 97.0955 187.338 95.1641 187.338 95.1641Z" fill="#263238"/>
<path d="M201.569 108.714C201.251 109.546 200.991 110.399 200.792 111.267H200.325C198.202 111.111 197.262 110.334 196.877 109.528C196.693 109.127 196.609 108.688 196.633 108.247C196.634 107.997 196.672 107.747 196.744 107.507C197.824 108.247 199.793 108.558 200.851 108.677C201.28 108.706 201.569 108.714 201.569 108.714Z" fill="#263238"/>
<path d="M201.184 108.78L200.94 109.52C199.119 109.431 197.38 108.935 196.796 108.284C196.796 108.024 196.865 107.769 196.995 107.544C198.287 108.25 199.715 108.672 201.184 108.78Z" fill="white"/>
<path d="M200.325 111.237C198.202 111.081 197.262 110.304 196.877 109.498C197.683 109.573 198.469 109.789 199.201 110.134C199.682 110.375 200.075 110.761 200.325 111.237Z" fill="#DE5753"/>
<path d="M187.405 104.251C187.089 104.553 186.683 104.742 186.248 104.792C185.814 104.841 185.376 104.748 185 104.525C183.801 103.696 184.445 101.935 184.445 101.935C183.995 102.138 183.489 102.174 183.015 102.039C182.541 101.903 182.13 101.604 181.855 101.195C180.745 99.715 182.225 98.05 182.225 98.05C181.621 97.8023 181.104 97.3798 180.742 96.8366C180.379 96.2934 180.187 95.6543 180.19 95.0012C180.188 94.7131 180.244 94.4275 180.356 94.162C180.468 93.8965 180.633 93.6567 180.841 93.4571C181.049 93.2576 181.295 93.1026 181.565 93.0017C181.835 92.9007 182.122 92.8559 182.41 92.87C182.091 92.757 181.801 92.5745 181.561 92.3357C181.32 92.0968 181.136 91.8077 181.022 91.489C180.907 91.1704 180.864 90.8303 180.897 90.4932C180.93 90.1561 181.037 89.8306 181.211 89.54C182.41 87.135 184.63 88.615 184.63 88.615C184.63 88.615 183.061 85.285 185.466 84.2712C185.755 84.1135 186.074 84.017 186.402 83.9877C186.73 83.9585 187.06 83.9972 187.373 84.1013C187.685 84.2054 187.973 84.3728 188.218 84.593C188.463 84.8133 188.66 85.0816 188.796 85.3812C188.796 85.3812 188.515 82.0512 191.66 81.6812C194.805 81.3112 195.175 83.62 195.175 83.62C195.175 83.62 196.751 80.66 199.06 81.4C199.356 81.4643 199.636 81.5887 199.883 81.7653C200.129 81.942 200.337 82.1673 200.493 82.4273C200.649 82.6873 200.75 82.9766 200.79 83.2771C200.83 83.5777 200.808 83.8833 200.725 84.175C201.328 83.8922 202.001 83.794 202.659 83.8928C203.317 83.9915 203.932 84.2828 204.425 84.73C206.186 86.3062 204.706 87.69 204.706 87.69C204.706 87.69 206.83 87.505 207.2 90.0062C207.57 92.5074 206.09 92.5 206.09 92.5C206.586 92.7186 207.003 93.0841 207.285 93.5472C207.567 94.0104 207.7 94.5489 207.666 95.09C207.57 97.0362 206.275 96.755 206.275 96.755C206.665 97.0491 206.961 97.4512 207.125 97.9115C207.29 98.3718 207.316 98.8701 207.2 99.345C206.741 100.921 205.631 100.736 205.631 100.736C205.631 100.736 204.521 96.57 203.226 95.275C201.931 93.98 192.4 95.275 192.4 95.275L191.201 102.12L187.405 104.251Z" fill="#263238"/>
<path d="M186.31 105.317C186.933 106.629 188.05 107.64 189.418 108.129C191.231 108.758 192.267 107.167 191.867 105.384C191.497 103.807 190.121 101.528 188.249 101.684C186.376 101.839 185.57 103.696 186.31 105.317Z" fill="#EBB376"/>
<path d="M185.392 175.38H217.56V179.235L185.074 178.821L185.392 175.38Z" fill="#263238"/>
<path d="M208.206 173.812H207.067V180.568H208.206V173.812Z" fill="#407BFF"/>
<path d="M190.913 173.715H189.773V180.472H190.913V173.715Z" fill="#407BFF"/>
<path d="M202.198 174.766H196.278V179.029H202.198V174.766Z" fill="white"/>
<path opacity="0.6" d="M208.206 173.812H207.067V180.568H208.206V173.812Z" fill="white"/>
<path opacity="0.6" d="M190.913 173.715H189.773V180.472H190.913V173.715Z" fill="white"/>
<path d="M176.786 156.769C176.786 156.769 175.654 165.064 169.127 169.97C162.6 174.877 143.804 168.572 143.804 168.572L140.844 162.977C140.844 162.977 162.134 166.196 164.465 164.642C166.796 163.088 168.905 156.214 168.905 156.214L176.786 156.769Z" fill="#EBB376"/>
<path d="M184.016 145.04C184.016 145.04 181.544 149.48 176.179 162.63L166.5 158.582C166.5 158.582 177.785 126.525 179.776 124.357C179.776 124.357 183.246 125.711 184.016 145.04Z" fill="#407BFF"/>
<path d="M251.844 112.761C251.844 112.761 251.008 114.345 252.695 114.796C254.382 115.248 256.595 115.706 256.595 115.706C256.595 115.706 258.452 116.128 258.63 114.796L258.808 113.472C258.808 113.472 264.506 114.115 265.024 112.732C265.542 111.348 266.829 106.812 265.593 105.864C264.358 104.917 260.85 104.51 259.37 104.503C259.258 104.216 259.088 103.956 258.87 103.739C258.653 103.522 258.392 103.352 258.106 103.241C257.819 103.13 257.513 103.079 257.205 103.092C256.898 103.106 256.597 103.183 256.321 103.319C254.175 104.34 251.844 112.761 251.844 112.761Z" fill="#407BFF"/>
<path opacity="0.6" d="M251.844 112.761C251.844 112.761 251.008 114.345 252.695 114.796C254.382 115.248 256.595 115.706 256.595 115.706C256.595 115.706 258.452 116.128 258.63 114.796L258.808 113.472C258.808 113.472 264.506 114.115 265.024 112.732C265.542 111.348 266.829 106.812 265.593 105.864C264.358 104.917 260.85 104.51 259.37 104.503C259.258 104.216 259.088 103.956 258.87 103.739C258.653 103.522 258.392 103.352 258.106 103.241C257.819 103.13 257.513 103.079 257.205 103.092C256.898 103.106 256.597 103.183 256.321 103.319C254.175 104.34 251.844 112.761 251.844 112.761Z" fill="white"/>
<path d="M199.852 182.04H183.52C184.436 170.088 184.412 158.083 183.446 146.135C183.446 146.135 189.026 145.166 186.702 135.916C184.378 126.666 183.194 122.477 183.194 122.477L188.944 120.798C188.944 120.798 188.323 127.065 197.58 126.94C197.58 126.94 201.006 165.76 199.852 182.04Z" fill="#407BFF"/>
<path opacity="0.2" d="M199.852 182.04H183.52C184.436 170.088 184.412 158.083 183.446 146.135C183.446 146.135 189.026 145.166 186.702 135.916C184.378 126.666 183.194 122.477 183.194 122.477L188.944 120.798C188.944 120.798 188.323 127.065 197.58 126.94C197.58 126.94 201.006 165.76 199.852 182.04Z" fill="black"/>
<path d="M198.572 127.006C198.572 127.006 205.683 125.896 204.536 119.88C204.536 119.88 207.748 120.206 210.715 120.369C210.715 120.369 213.971 132.815 214.282 138.328C214.282 138.328 214.659 141.821 217.493 141.629C217.493 141.629 218.633 164.931 218.233 182.04H200.91C200.91 182.04 201.569 159.1 198.572 127.006Z" fill="#407BFF"/>
<path opacity="0.2" d="M198.572 127.006C198.572 127.006 205.683 125.896 204.536 119.88C204.536 119.88 207.748 120.206 210.715 120.369C210.715 120.369 213.971 132.815 214.282 138.328C214.282 138.328 214.659 141.821 217.493 141.629C217.493 141.629 218.633 164.931 218.233 182.04H200.91C200.91 182.04 201.569 159.1 198.572 127.006Z" fill="black"/>
<path d="M202.22 132.201C202.22 132.201 198.276 132.874 196.004 132.941C193.732 133.008 194.472 134.34 194.524 135.368C194.576 136.397 194.827 137.588 196.433 137.425C198.039 137.263 201.258 137.092 202.22 136.863C203.182 136.634 204.366 136.449 203.907 134.784C203.448 133.119 203.626 131.972 202.22 132.201Z" fill="#407BFF"/>
<path d="M204.011 162.208C204.011 162.208 200.007 162.371 197.75 162.208C195.493 162.045 196.048 163.4 195.996 164.428C195.945 165.457 195.996 166.648 197.632 166.715C199.267 166.781 202.457 166.996 203.433 166.9C204.41 166.804 205.653 166.759 205.38 165.05C205.106 163.34 205.431 162.164 204.011 162.208Z" fill="#407BFF"/>
<path opacity="0.6" d="M204.011 162.208C204.011 162.208 200.007 162.371 197.75 162.208C195.493 162.045 196.048 163.4 195.996 164.428C195.945 165.457 195.996 166.648 197.632 166.715C199.267 166.781 202.457 166.996 203.433 166.9C204.41 166.804 205.653 166.759 205.38 165.05C205.106 163.34 205.431 162.164 204.011 162.208Z" fill="white"/>
<path d="M203.285 147.882C203.285 147.882 199.297 148.267 197.032 148.185C194.768 148.104 195.397 149.465 195.397 150.494C195.397 151.523 195.538 152.714 197.158 152.714C198.779 152.714 201.99 152.714 202.967 152.588C203.944 152.462 205.143 152.329 204.802 150.635C204.462 148.94 204.706 147.763 203.285 147.882Z" fill="#407BFF"/>
<path opacity="0.6" d="M203.285 147.882C203.285 147.882 199.297 148.267 197.032 148.185C194.768 148.104 195.397 149.465 195.397 150.494C195.397 151.523 195.538 152.714 197.158 152.714C198.779 152.714 201.99 152.714 202.967 152.588C203.944 152.462 205.143 152.329 204.802 150.635C204.462 148.94 204.706 147.763 203.285 147.882Z" fill="white"/>
<path opacity="0.6" d="M202.22 132.201C202.22 132.201 198.276 132.874 196.004 132.941C193.732 133.008 194.472 134.34 194.524 135.368C194.576 136.397 194.827 137.588 196.433 137.425C198.039 137.263 201.258 137.092 202.22 136.863C203.182 136.634 204.366 136.449 203.907 134.784C203.448 133.119 203.626 131.972 202.22 132.201Z" fill="white"/>
<path opacity="0.2" d="M261.96 77.7002V84.5674L259 85.6182V77.7002H261.383H261.96Z" fill="black"/>
<path d="M245.68 63.4255C245.73 66.3959 246.656 69.2854 248.342 71.7312C250.029 74.1769 252.4 76.0697 255.159 77.1719C257.918 78.2741 260.941 78.5365 263.848 77.9262C266.756 77.3158 269.418 75.86 271.501 73.7415C273.584 71.6229 274.994 68.9362 275.555 66.0188C276.115 63.1014 275.801 60.0833 274.652 57.3437C273.503 54.6041 271.57 52.2651 269.096 50.6205C266.622 48.9759 263.717 48.0991 260.746 48.1001C256.716 48.1353 252.865 49.7695 250.04 52.6434C247.215 55.5172 245.646 59.3955 245.68 63.4255Z" fill="#407BFF"/>
<path opacity="0.6" d="M245.68 63.4255C245.73 66.3959 246.656 69.2854 248.342 71.7312C250.029 74.1769 252.4 76.0697 255.159 77.1719C257.918 78.2741 260.941 78.5365 263.848 77.9262C266.756 77.3158 269.418 75.86 271.501 73.7415C273.584 71.6229 274.994 68.9362 275.555 66.0188C276.115 63.1014 275.801 60.0833 274.652 57.3437C273.503 54.6041 271.57 52.2651 269.096 50.6205C266.622 48.9759 263.717 48.0991 260.746 48.1001C256.716 48.1353 252.865 49.7695 250.04 52.6434C247.215 55.5172 245.646 59.3955 245.68 63.4255Z" fill="white"/>
<path d="M271.58 60.6802H250.12V66.6002H271.58V60.6802Z" fill="white"/>
<path d="M111.355 310.822L105.354 311.451L104.229 298.508L110.23 297.872L111.355 310.822Z" fill="#B97964"/>
<path d="M141.31 310.386H135.494L135.013 296.91H140.837L141.31 310.386Z" fill="#B97964"/>
<path d="M134.68 309.712H141.747C141.863 309.711 141.976 309.751 142.066 309.824C142.156 309.896 142.219 309.998 142.243 310.112L143.39 315.292C143.414 315.417 143.41 315.547 143.378 315.671C143.346 315.795 143.288 315.91 143.207 316.009C143.125 316.108 143.024 316.187 142.908 316.243C142.793 316.298 142.667 316.327 142.539 316.328C140.252 316.291 138.587 316.15 135.716 316.15C133.947 316.15 128.612 316.335 126.17 316.335C123.728 316.335 123.41 313.923 124.409 313.701C128.893 312.724 132.268 311.37 133.703 310.082C133.969 309.837 134.319 309.705 134.68 309.712Z" fill="#263238"/>
<path d="M104.717 309.527H111.784C111.9 309.526 112.013 309.566 112.104 309.639C112.194 309.711 112.256 309.813 112.28 309.927L113.427 315.107C113.451 315.232 113.447 315.362 113.415 315.486C113.384 315.61 113.325 315.725 113.244 315.824C113.163 315.923 113.061 316.002 112.946 316.058C112.83 316.113 112.704 316.142 112.576 316.143C110.29 316.106 108.625 315.965 105.753 315.965C103.985 315.965 98.6494 316.15 96.2074 316.15C93.7654 316.15 93.4472 313.738 94.4462 313.516C98.9306 312.539 102.305 311.185 103.741 309.897C104.006 309.652 104.356 309.52 104.717 309.527Z" fill="#263238"/>
<path opacity="0.2" d="M110.23 297.872L104.229 298.508L104.814 305.183L110.815 304.554L110.23 297.872Z" fill="black"/>
<path opacity="0.2" d="M140.837 296.917H135.013L135.265 303.866H141.088L140.837 296.917Z" fill="black"/>
<path d="M143.234 302.66H132.593C132.593 302.66 126.843 267.613 124.157 251.6C123.062 245.088 121.804 232.848 120.738 221.341L120.672 221.497C118.452 226.751 116.816 234.158 115.632 242.35C111.932 267.85 112.487 300.973 112.487 300.973L102.039 302.164C95.46 258.356 104.621 209.42 107.559 195.36H138.432C138.476 199.06 138.95 236.319 140.052 253.42C141.059 269.19 143.234 302.66 143.234 302.66Z" fill="#263238"/>
<path opacity="0.2" d="M120.738 221.319L120.672 221.475C118.452 226.729 116.816 234.136 115.632 242.328C115.373 243.549 115.151 244.548 115.003 245.288C113.775 223.458 119.784 207.548 119.784 207.548L120.738 221.319Z" fill="black"/>
<path d="M100.832 304.451L113.768 302.527L113.375 298.945L99.9148 300.706L100.832 304.451Z" fill="#407BFF"/>
<path d="M100.832 304.451L113.768 302.527L113.375 298.945L99.9148 300.706L100.832 304.451Z" fill="#407BFF"/>
<path d="M131.313 302.749H143.863V298.997L130.839 298.753L131.313 302.749Z" fill="#407BFF"/>
<path d="M131.313 302.749H143.863V298.997L130.839 298.753L131.313 302.749Z" fill="#407BFF"/>
<path d="M107.3 194.62H138.38V198.749L106.908 197.958L107.3 194.62Z" fill="#263238"/>
<path d="M128.39 194.102H127.28V199.793H128.39V194.102Z" fill="#407BFF"/>
<path d="M112.665 194.102H111.555V199.793H112.665V194.102Z" fill="#407BFF"/>
<path d="M121.464 194.982H115.714V198.571H121.464V194.982Z" fill="white"/>
<path d="M79.3724 209.539V209.583L77.1006 219.625L60.791 291.56L54.1902 320.724C54.1014 320.953 53.9682 321.604 52.614 321.604H52.4142C52.1619 321.605 51.9123 321.553 51.6815 321.451C51.4507 321.349 51.244 321.199 51.0748 321.012C50.8915 320.724 50.8229 320.379 50.8824 320.043L57.6756 290.716L74.3034 219.447L76.96 208.014V207.94C76.96 207.726 77.1598 206.638 78.1958 206.638C78.4639 206.641 78.7302 206.681 78.9876 206.756C79.0941 206.781 79.1938 206.829 79.2795 206.897C79.3652 206.964 79.4349 207.05 79.4834 207.148C79.7008 207.937 79.662 208.774 79.3724 209.539Z" fill="#263238"/>
<path d="M60.791 291.56L54.1902 320.724C54.1014 320.953 53.9682 321.604 52.614 321.604H52.4142C52.1619 321.605 51.9123 321.553 51.6815 321.451C51.4507 321.349 51.244 321.199 51.0748 321.012C50.8915 320.725 50.8229 320.379 50.8824 320.043L57.72 290.68C58.6436 291.249 59.706 291.554 60.791 291.56Z" fill="#407BFF"/>
<path d="M79.3724 209.539V209.583L76.96 220.098C75.9536 220.098 75.2358 220.365 74.2886 219.41L76.96 208.014V207.94C76.96 207.726 77.1598 206.638 78.1958 206.638C78.4639 206.641 78.7302 206.681 78.9876 206.756C79.0941 206.781 79.1938 206.829 79.2795 206.897C79.3652 206.964 79.4349 207.05 79.4834 207.148C79.7008 207.937 79.662 208.774 79.3724 209.539Z" fill="#407BFF"/>
<path opacity="0.6" d="M79.3724 209.539V209.583L76.96 220.098C75.9536 220.098 75.2358 220.365 74.2886 219.41L76.96 208.014V207.94C76.96 207.726 77.1598 206.638 78.1958 206.638C78.4639 206.641 78.7302 206.681 78.9876 206.756C79.0941 206.781 79.1938 206.829 79.2795 206.897C79.3652 206.964 79.4349 207.05 79.4834 207.148C79.7008 207.937 79.662 208.774 79.3724 209.539Z" fill="white"/>
<path d="M154.305 215.999C152.91 214.72 151.066 214.047 149.176 214.124C147.286 214.202 145.504 215.025 144.219 216.413C142.539 217.952 140.437 220.698 138.994 225.419C136.249 234.395 136.678 253.361 153.054 251.089C164.961 249.447 164.169 222.977 154.305 215.999ZM153.787 218.751C154.772 219.954 155.282 221.475 155.222 223.029C155.304 229.393 145.921 230.429 144.048 226.055C142.694 222.866 143.523 220.675 144.885 219.218C145.025 219.07 145.166 218.936 145.306 218.803C147.016 217.286 152.04 216.753 153.787 218.751Z" fill="#407BFF"/>
<path opacity="0.2" d="M157.709 230.599C157.65 230.451 156.695 223.761 155.245 227.091C153.794 230.421 150.131 230.14 146.239 230.051C142.346 229.962 145.78 239.945 143.234 231.531C140.689 223.117 144.855 219.284 144.855 219.284L144.907 219.232C143.545 220.712 142.687 222.881 144.071 226.07C145.943 230.466 155.326 229.407 155.245 223.043C155.304 221.49 154.794 219.969 153.809 218.766C158.138 222.651 158.094 231.472 157.709 230.599Z" fill="black"/>
<path d="M79.661 200.333C79.661 200.333 76.22 202.102 75.3542 203.818C75.1085 204.352 74.9812 204.933 74.9812 205.52C74.9812 206.108 75.1085 206.689 75.3542 207.222C75.1638 207.509 75.09 207.858 75.1478 208.198C75.2055 208.537 75.3905 208.842 75.665 209.05C76.6492 209.99 74.6956 212.832 75.739 213.897C76.7824 214.963 75.9092 213.897 75.9092 213.897C75.9092 213.897 76.8416 214.748 78.1958 211.825C79.55 208.902 78.5362 213.187 78.5362 213.187C78.648 213.51 78.8784 213.778 79.1807 213.937C79.483 214.097 79.8346 214.135 80.1642 214.045C81.5258 213.86 79.55 212.321 80.7192 210.589C81.8884 208.858 84.471 208.806 85.5588 205.506L79.661 200.333Z" fill="#B97964"/>
<path d="M154.305 215.998C154.336 216.946 154.167 217.889 153.809 218.766C152.662 221.408 149.828 221.726 148.34 221.726C147.023 221.726 146.009 220.246 145.38 218.84V218.788C145.038 218.052 144.756 217.29 144.537 216.509C144.445 216.473 144.356 216.431 144.27 216.383C141.806 215.081 144.951 211.536 146.394 210.093C146.779 209.708 147.045 209.472 147.045 209.472L153.173 210.212C153.247 210.426 153.321 210.641 153.387 210.848C153.957 212.507 154.266 214.245 154.305 215.998Z" fill="#B97964"/>
<path d="M113.812 157.657L113.768 157.842C113.768 157.842 110.808 168.402 108.188 176.157C105.724 183.424 105.228 184.785 101.432 189.225C100.692 190.076 99.8704 191.038 98.8714 192.185C92.685 199.275 86.1878 206.068 86.1878 206.068L78.5362 199.356C78.5362 199.356 91.6268 186.31 94.0762 183.92C96.5256 181.529 99.9518 170.94 99.9518 170.94C99.9518 170.94 105.369 148.799 108.713 142.82C108.748 142.746 108.788 142.675 108.832 142.605C108.828 142.647 108.828 142.689 108.832 142.731C109.138 142.851 109.466 142.902 109.794 142.879C111.759 142.949 113.711 143.227 115.618 143.708C115.618 143.708 116.787 145.847 113.812 157.657Z" fill="#407BFF"/>
<path d="M113.812 157.657L113.768 157.842C113.768 157.842 110.808 168.402 108.188 176.157C105.724 183.424 105.228 184.785 101.432 189.225C103.719 184.093 104.976 178.562 105.132 172.945C105.258 163.851 106.678 148.044 108.706 142.761C108.741 142.687 108.781 142.615 108.824 142.546C109.144 142.519 109.466 142.519 109.786 142.546C110.956 144.3 112.532 150.538 113.812 157.657Z" fill="#407BFF"/>
<path opacity="0.2" d="M113.812 157.657L113.768 157.842C113.768 157.842 110.808 168.402 108.188 176.157C105.724 183.424 105.228 184.785 101.432 189.225C103.719 184.093 104.976 178.562 105.132 172.945C105.258 163.851 106.678 148.044 108.706 142.761C108.741 142.687 108.781 142.615 108.824 142.546C109.144 142.519 109.466 142.519 109.786 142.546C110.956 144.3 112.532 150.538 113.812 157.657Z" fill="black"/>
<path d="M143.56 142.961L143.331 144.3C143.264 144.707 143.183 145.203 143.094 145.78C142.931 146.787 142.731 148.037 142.509 149.48C142.309 150.805 142.087 152.3 141.851 153.92C141.851 154.142 141.784 154.364 141.754 154.586C141.725 154.808 141.666 155.245 141.614 155.585C141.458 156.71 141.303 157.879 141.14 159.1L140.948 160.58C140.792 161.779 140.637 163.015 140.482 164.28C140.482 164.517 140.43 164.754 140.4 165.02C140.4 165.02 140.4 165.057 140.4 165.072C140.252 166.278 140.112 167.507 139.978 168.772C139.845 170.037 139.697 171.369 139.571 172.679C139.571 172.857 139.534 173.034 139.52 173.212L139.386 174.692C139.275 175.928 139.172 177.164 139.076 178.392C139.076 178.718 139.024 179.036 139.002 179.354C138.935 180.331 138.913 181.515 138.928 182.832C138.942 184.149 138.994 185.718 139.061 187.272C139.061 187.76 139.113 188.256 139.142 188.752C139.209 189.988 139.29 191.238 139.364 192.452C139.468 194.028 139.571 195.538 139.66 196.892C139.756 198.372 139.838 199.637 139.875 200.592H104.991C104.991 200.592 105.184 199.164 105.435 196.892C105.576 195.641 105.731 194.124 105.887 192.452C105.998 191.283 106.101 190.04 106.197 188.752C106.234 188.264 106.264 187.768 106.301 187.272C106.397 185.792 106.479 184.312 106.538 182.832C106.597 181.352 106.627 179.835 106.627 178.392C106.627 177.926 106.627 177.467 106.627 177.016C106.627 176.276 106.627 175.476 106.627 174.692C106.627 174.204 106.627 173.708 106.627 173.212C106.627 171.732 106.627 170.252 106.627 168.772C106.627 167.292 106.671 165.812 106.723 164.332C106.723 163.592 106.767 162.808 106.797 162.045C106.797 161.564 106.834 161.098 106.856 160.632C106.878 160.166 106.9 159.64 106.923 159.152C107.004 157.354 107.1 155.63 107.226 153.972C107.344 152.448 107.485 150.975 107.663 149.532C107.818 148.281 108.003 147.053 108.218 145.832C108.314 145.336 108.403 144.84 108.506 144.352C108.61 143.864 108.765 143.168 108.906 142.576C108.854 142.524 128.804 139.623 143.56 142.961Z" fill="#407BFF"/>
<path opacity="0.2" d="M141.577 155.585C141.185 158.449 140.763 161.638 140.363 164.998C140.363 164.998 140.363 165.035 140.363 165.05C140.067 167.521 139.786 170.067 139.534 172.627L139.401 173.745C135.006 166.101 137.485 152.218 137.485 152.218L141.577 155.585Z" fill="black"/>
<g opacity="0.2">
<path d="M139.616 196.84H105.435C105.576 195.589 105.731 194.072 105.887 192.4H139.32C139.423 193.976 139.527 195.486 139.616 196.84Z" fill="black"/>
<path d="M139.12 188.7H106.197C106.234 188.212 106.264 187.716 106.301 187.22H139.016C139.046 187.709 139.068 188.204 139.12 188.7Z" fill="black"/>
<path d="M138.957 179.302C138.891 180.279 138.868 181.463 138.883 182.78H106.56C106.619 181.3 106.649 179.783 106.649 178.34H139.053C139.002 178.665 138.979 178.984 138.957 179.302Z" fill="black"/>
<path d="M139.475 173.16L139.342 174.64H106.56C106.56 174.152 106.56 173.656 106.56 173.16H139.475Z" fill="black"/>
<path d="M140.445 164.28C140.445 164.517 140.393 164.754 140.363 165.02C140.363 165.02 140.363 165.057 140.363 165.072C140.215 166.278 140.075 167.507 139.941 168.772H106.56C106.56 167.292 106.592 165.812 106.656 164.332L140.445 164.28Z" fill="black"/>
<path d="M141.103 159.1L140.911 160.58H106.804C106.804 160.077 106.849 159.588 106.871 159.1H141.103Z" fill="black"/>
<path d="M142.472 149.48C142.272 150.805 142.05 152.299 141.814 153.92H107.174C107.293 152.396 107.433 150.923 107.611 149.48H142.472Z" fill="black"/>
<path d="M143.294 144.3C143.227 144.707 143.146 145.203 143.057 145.78H108.166C108.262 145.284 108.351 144.788 108.454 144.3H143.294Z" fill="black"/>
</g>
<path d="M156.14 173.989C154.379 167.899 148.074 151.234 145.181 143.982C144.855 143.175 143.553 142.953 143.553 142.953C135.982 144.589 136.693 157.679 136.693 157.679C139.32 159.159 146.069 176.919 146.069 176.919C146.069 176.919 149.709 185.059 149.029 188.419C148.348 191.779 145.136 209.99 145.136 209.99L155.252 211.093C155.252 211.093 156.68 201.806 157.687 192.452C158.693 183.098 158.708 182.78 156.14 173.989Z" fill="#407BFF"/>
<path d="M131.572 141.466C129.5 146.757 123.343 146.498 123.343 146.498C123.343 146.498 117.519 146.653 118.341 141.651C120.761 141.081 121.915 139.89 122.366 138.417C122.387 138.356 122.404 138.295 122.418 138.232C122.639 137.26 122.659 136.253 122.477 135.272C122.403 134.739 122.285 134.199 122.159 133.666L123.639 132.386L124.542 131.646L130.27 126.77C129.856 128.903 129.609 131.065 129.53 133.237C129.53 133.459 129.53 133.674 129.53 133.888C129.5 135.126 129.582 136.365 129.774 137.588C129.931 139.043 130.563 140.406 131.572 141.466Z" fill="#B97964"/>
<path opacity="0.2" d="M130.292 126.77C129.879 128.903 129.631 131.065 129.552 133.237C129.552 133.459 129.552 133.674 129.552 133.888C128.175 137.056 124.757 137.995 122.411 138.417C122.431 138.356 122.449 138.295 122.463 138.232C122.683 137.26 122.704 136.253 122.522 135.272C122.448 134.739 122.329 134.199 122.204 133.666L123.684 132.386L124.586 131.646L130.292 126.77Z" fill="black"/>
<path d="M115.048 114.411C115.048 114.411 113.442 122.359 117.549 125.645C121.656 128.93 122.366 114.019 122.366 114.019L115.048 114.411Z" fill="#E0E0E0"/>
<path d="M130.551 131.069C130.28 131.611 129.956 132.124 129.581 132.601C128.627 133.876 127.28 134.802 125.748 135.238C124.216 135.674 122.584 135.595 121.101 135.013C119.168 134.3 117.58 132.876 116.661 131.032C116.535 130.78 116.417 130.514 116.313 130.247C116.066 129.588 115.864 128.913 115.706 128.227C114.485 123.203 114.863 116.291 119.532 113.701C120.706 113.042 122.028 112.694 123.374 112.69C124.72 112.686 126.044 113.027 127.221 113.68C128.399 114.332 129.389 115.275 130.099 116.419C130.808 117.562 131.214 118.869 131.276 120.213C131.587 125.06 131.979 128.235 130.551 131.069Z" fill="#B97964"/>
<path d="M122.796 122.84C122.884 123.299 122.655 123.713 122.344 123.75C122.033 123.787 121.745 123.432 121.686 122.973C121.626 122.514 121.834 122.1 122.137 122.063C122.44 122.026 122.729 122.396 122.796 122.84Z" fill="#263238"/>
<path d="M117.527 123.514C117.616 123.972 117.379 124.387 117.075 124.416C116.772 124.446 116.483 124.106 116.424 123.676C116.365 123.247 116.572 122.803 116.876 122.774C117.179 122.744 117.475 123.07 117.527 123.514Z" fill="#263238"/>
<path d="M119.229 123.536C118.845 125.026 118.26 126.458 117.49 127.791C117.837 127.98 118.222 128.091 118.617 128.117C119.012 128.142 119.407 128.082 119.776 127.939L119.229 123.536Z" fill="#A24E3F"/>
<path d="M123.639 119.732C123.596 119.756 123.548 119.769 123.499 119.769C123.449 119.769 123.401 119.756 123.358 119.732C123.058 119.558 122.722 119.457 122.377 119.437C122.031 119.416 121.685 119.477 121.367 119.614C121.303 119.646 121.229 119.652 121.16 119.632C121.092 119.611 121.033 119.565 120.997 119.503C120.979 119.471 120.968 119.437 120.964 119.401C120.96 119.365 120.963 119.328 120.973 119.294C120.984 119.259 121.001 119.227 121.024 119.199C121.048 119.172 121.076 119.149 121.108 119.133C121.506 118.95 121.941 118.866 122.377 118.886C122.814 118.907 123.239 119.032 123.617 119.251C123.681 119.286 123.728 119.343 123.75 119.412C123.772 119.481 123.767 119.556 123.735 119.621L123.639 119.732Z" fill="#263238"/>
<path d="M123.247 128.908C123.225 128.953 123.191 128.99 123.15 129.018C123.108 129.045 123.06 129.061 123.01 129.063C122.665 129.067 122.325 129.151 122.018 129.309C121.711 129.467 121.445 129.695 121.242 129.974C121.223 130.004 121.198 130.031 121.169 130.052C121.139 130.073 121.106 130.088 121.071 130.096C121.036 130.105 121 130.106 120.964 130.1C120.929 130.094 120.895 130.081 120.864 130.062C120.833 130.045 120.806 130.021 120.784 129.993C120.763 129.965 120.747 129.932 120.738 129.898C120.729 129.863 120.727 129.827 120.732 129.792C120.737 129.757 120.749 129.723 120.768 129.692C121.018 129.334 121.349 129.041 121.736 128.838C122.122 128.634 122.551 128.526 122.988 128.523C123.024 128.52 123.059 128.524 123.093 128.535C123.127 128.547 123.159 128.564 123.186 128.588C123.213 128.611 123.234 128.64 123.25 128.672C123.266 128.704 123.275 128.739 123.277 128.775C123.278 128.821 123.267 128.867 123.247 128.908Z" fill="#263238"/>
<path d="M115.122 119.932C115.066 119.924 115.014 119.898 114.974 119.858C114.935 119.797 114.921 119.723 114.937 119.652C114.952 119.582 114.995 119.52 115.055 119.48C115.42 119.239 115.838 119.089 116.273 119.041C116.708 118.993 117.148 119.05 117.556 119.207C117.622 119.237 117.673 119.292 117.699 119.36C117.726 119.427 117.725 119.502 117.697 119.569C117.666 119.635 117.611 119.686 117.544 119.712C117.476 119.738 117.401 119.738 117.334 119.71C117.008 119.593 116.658 119.554 116.314 119.596C115.969 119.639 115.64 119.761 115.351 119.954C115.314 119.967 115.274 119.972 115.234 119.968C115.194 119.964 115.156 119.952 115.122 119.932Z" fill="#263238"/>
<path d="M126.214 113.59L126.089 116.143C126.532 116.316 126.894 116.65 127.102 117.078C127.31 117.506 127.35 117.996 127.213 118.452C126.555 120.672 128.005 123.861 129.737 125.053C129.737 125.053 129.737 124.128 130.514 124.313C131.291 124.498 131.454 129.293 130.099 131.713C130.099 131.713 132.245 129.493 133.17 124.313C134.029 119.562 133.91 115.662 132.8 113.953L126.214 113.59Z" fill="#E0E0E0"/>
<path d="M124.919 122.729C124.922 123.425 124.651 124.094 124.165 124.592C123.679 125.09 123.018 125.378 122.322 125.393H122.248C122.167 125.401 122.085 125.401 122.004 125.393C121.781 125.377 121.562 125.33 121.353 125.253C121.118 125.174 120.898 125.056 120.701 124.905C120.359 124.645 120.083 124.309 119.893 123.924C119.702 123.538 119.604 123.114 119.606 122.685C119.602 121.969 119.877 121.28 120.373 120.765C120.87 120.249 121.548 119.948 122.263 119.925C122.517 119.953 122.767 120.018 123.003 120.117C123.22 120.189 123.427 120.292 123.617 120.42C123.707 120.476 123.791 120.541 123.869 120.613C124.193 120.863 124.456 121.183 124.638 121.55C124.82 121.917 124.916 122.32 124.919 122.729Z" fill="#263238"/>
<path d="M118.999 123.469C119.002 124.165 118.731 124.833 118.245 125.332C117.759 125.83 117.098 126.117 116.402 126.133H116.328C116.247 126.14 116.165 126.14 116.084 126.133C115.861 126.117 115.642 126.07 115.433 125.992C115.193 125.911 114.968 125.791 114.767 125.637C114.421 125.379 114.14 125.044 113.946 124.659C113.752 124.274 113.651 123.849 113.649 123.417C113.645 122.702 113.92 122.013 114.416 121.497C114.913 120.982 115.591 120.68 116.306 120.657H116.358C116.597 120.684 116.832 120.747 117.053 120.842C117.259 120.918 117.455 121.017 117.638 121.138C117.733 121.196 117.822 121.263 117.904 121.338C118.238 121.585 118.511 121.906 118.701 122.275C118.891 122.645 118.993 123.053 118.999 123.469Z" fill="#263238"/>
<path d="M118.674 123.114C118.814 123.114 131.365 121.848 131.365 121.848L131.069 122.366L118.637 123.536L118.674 123.114Z" fill="#263238"/>
<path d="M134.872 124.623C134.638 125.303 134.272 125.929 133.794 126.467C133.317 127.004 132.737 127.441 132.09 127.754C130.358 128.582 129.13 127.11 129.359 125.297C129.559 123.691 130.677 121.271 132.556 121.219C134.436 121.168 135.42 122.936 134.872 124.623Z" fill="#B97964"/>
<path opacity="0.2" d="M122.973 120.073L121.36 125.201V125.238C121.125 125.159 120.905 125.041 120.709 124.89V124.816L122.248 119.902C122.496 119.925 122.741 119.982 122.973 120.073Z" fill="white"/>
<path opacity="0.2" d="M123.861 120.62L122.322 125.43H122.248C122.167 125.437 122.085 125.437 122.004 125.43L123.602 120.428C123.692 120.483 123.776 120.548 123.854 120.62H123.861Z" fill="white"/>
<path opacity="0.2" d="M117.083 120.82L115.433 126C115.193 125.919 114.968 125.799 114.767 125.645L116.358 120.642C116.597 120.67 116.832 120.732 117.053 120.827L117.083 120.82Z" fill="white"/>
<path opacity="0.2" d="M117.934 121.36L116.402 126.155H116.328C116.247 126.163 116.165 126.163 116.084 126.155L117.667 121.19C117.761 121.238 117.851 121.295 117.934 121.36Z" fill="white"/>
<path d="M115.536 115.951L115.048 114.411C114.923 114.412 114.801 114.381 114.692 114.321C114.582 114.262 114.49 114.175 114.423 114.071C114.356 113.966 114.316 113.846 114.308 113.722C114.299 113.598 114.322 113.474 114.374 113.361C114.7 112.391 115.299 112.68 115.299 112.68C115.203 112.564 115.132 112.428 115.091 112.283C115.05 112.137 115.041 111.985 115.063 111.835C115.085 111.686 115.139 111.542 115.221 111.415C115.302 111.288 115.41 111.179 115.536 111.096C115.769 110.864 116.084 110.734 116.413 110.734C116.742 110.734 117.057 110.864 117.29 111.096C117.25 110.796 117.329 110.493 117.51 110.251C117.691 110.008 117.96 109.847 118.259 109.801C118.391 109.759 118.529 109.743 118.666 109.755C118.803 109.767 118.937 109.806 119.059 109.87C119.181 109.934 119.289 110.022 119.376 110.128C119.464 110.235 119.53 110.358 119.569 110.489C119.569 110.489 119.873 109.194 120.968 109.431C122.063 109.668 122.004 110.489 122.004 110.489C122.139 110.188 122.352 109.928 122.621 109.737C122.891 109.545 123.206 109.43 123.536 109.402C123.856 109.436 124.162 109.555 124.422 109.746C124.682 109.937 124.887 110.194 125.016 110.489C125.166 110.111 125.443 109.796 125.799 109.598C126.155 109.399 126.568 109.33 126.969 109.402C128.449 109.616 128.175 110.815 128.175 110.815C128.175 110.815 128.664 109.934 129.922 110.445C131.18 110.956 130.81 111.925 130.81 111.925C131.031 111.728 131.315 111.615 131.612 111.607C131.909 111.599 132.198 111.696 132.43 111.881C133.311 112.524 132.882 114.019 132.882 114.019L131.587 116.594L126.103 116.143C125.742 115.89 125.349 115.686 124.934 115.536C123.824 115.026 128.05 113.353 125.016 112.85C123.708 112.622 122.365 112.71 121.098 113.106C119.832 113.503 118.678 114.196 117.734 115.129C116.136 116.735 115.536 115.951 115.536 115.951Z" fill="#E0E0E0"/>
<path d="M146.431 159.448C146.431 159.448 145.758 156.799 144.951 156.806C143.715 156.806 138.121 158.16 137.714 159.13C137.307 160.099 139.372 165.664 140.926 165.879C142.48 166.093 147.667 164.584 147.378 163.496L146.431 159.448Z" fill="#407BFF"/>
<path opacity="0.7" d="M146.431 159.448C146.431 159.448 145.758 156.799 144.951 156.806C143.715 156.806 138.121 158.16 137.714 159.13C137.307 160.099 139.372 165.664 140.926 165.879C142.48 166.093 147.667 164.584 147.378 163.496L146.431 159.448Z" fill="white"/>
<path d="M118.341 141.651C118.341 141.651 117.919 146.498 123.343 146.498C128.767 146.498 131.572 141.466 131.572 141.466L133.133 141.555C132.382 143.422 131.074 145.012 129.388 146.11C127.701 147.207 125.717 147.759 123.706 147.689C116.365 147.689 117.046 141.703 117.046 141.703L118.341 141.651Z" fill="#407BFF"/>
<path opacity="0.6" d="M118.341 141.651C118.341 141.651 117.919 146.498 123.343 146.498C128.767 146.498 131.572 141.466 131.572 141.466L133.133 141.555C132.382 143.422 131.074 145.012 129.388 146.11C127.701 147.207 125.717 147.759 123.706 147.689C116.365 147.689 117.046 141.703 117.046 141.703L118.341 141.651Z" fill="white"/>
</svg>
