<svg xmlns="http://www.w3.org/2000/svg" viewBox="0 0 600 625.47"><defs><style>.cls-1,.cls-2{fill:#33363f;}.cls-2{stroke:#33363f;stroke-linecap:round;}</style></defs><title>bannerAsset 2</title><g id="Layer_2" data-name="Layer 2"><g id="Layer_1-2" data-name="Layer 1"><path class="cls-1" d="M544.2,92.59l-27.72,18.52h0Zm0,348.15-27.72-18.52h0Zm-36.79,36.79-18.52-27.72h0ZM366.67,500l-.15-33.33A33.34,33.34,0,0,0,333.33,500Zm0,.05,29.81,14.91A33.29,33.29,0,0,0,400,500Zm-133.34,0H200a33.42,33.42,0,0,0,3.52,14.91Zm0-.05h33.34a33.34,33.34,0,0,0-33.19-33.33ZM92.59,477.53l18.52-27.72h0ZM55.8,440.74l27.72-18.52h0Zm0-348.15,27.72,18.52ZM92.59,55.8l18.52,27.72Zm414.82,0L488.89,83.52h0ZM600,266.67c0-46.12,0-83.23-3-112.92-3.08-30.24-9.6-56.47-25.11-79.68l-55.43,37c7,10.42,11.67,24.42,14.22,49.39,2.59,25.53,2.63,58.66,2.63,106.17ZM571.91,459.26c15.51-23.2,22-49.43,25.11-79.68,3-29.69,3-66.79,3-112.91H533.33c0,47.51,0,80.63-2.63,106.16-2.55,25-7.25,39-14.22,49.39Zm-46,46a166.47,166.47,0,0,0,46-46l-55.43-37a100,100,0,0,1-27.59,27.59Zm-159.12,28c35.81-.16,65.73-.83,90.75-4.29,25.54-3.53,48.1-10.21,68.37-23.76l-37-55.43c-9.11,6.09-21,10.46-40.46,13.16-20,2.77-45.79,3.49-81.91,3.65ZM400,500V500H333.33V500Zm-40.37,88.61,36.85-73.7-59.63-29.82L300,558.8Zm-119.26,0c24.57,49.14,94.69,49.14,119.26,0L300,558.8h0Zm-36.85-73.7,36.85,73.7L300,558.8l-36.85-73.71ZM200,500V500h66.67V500ZM74.07,505.24c20.27,13.55,42.83,20.23,68.37,23.76,25,3.46,54.94,4.13,90.75,4.29l.29-66.67c-36.12-.16-61.87-.88-81.91-3.65-19.5-2.7-31.35-7.07-40.46-13.16Zm-46-46a166.47,166.47,0,0,0,46,46l37-55.43a100,100,0,0,1-27.59-27.59ZM0,266.67c0,46.12,0,83.22,3,112.91,3.08,30.25,9.6,56.48,25.11,79.68l55.43-37c-7-10.42-11.67-24.41-14.22-49.39-2.59-25.53-2.63-58.65-2.63-106.16ZM28.09,74.07C12.58,97.28,6.06,123.51,3,153.75c-3,29.69-3,66.8-3,112.92H66.67c0-47.51,0-80.64,2.63-106.17,2.55-25,7.25-39,14.22-49.39Zm46-46a166.61,166.61,0,0,0-46,46l55.43,37a100.09,100.09,0,0,1,27.59-27.59ZM266.67,0c-46.12,0-83.23,0-112.92,3-30.24,3.08-56.47,9.6-79.68,25.11l37,55.43c10.42-7,24.42-11.67,49.39-14.22,25.53-2.59,58.66-2.63,106.17-2.63Zm66.66,0H266.67V66.67h66.66Zm192.6,28.09C502.72,12.58,476.49,6.06,446.25,3c-29.69-3-66.8-3-112.92-3V66.67c47.51,0,80.64,0,106.17,2.63,25,2.55,39,7.25,49.39,14.22Zm46,46a166.61,166.61,0,0,0-46-46l-37,55.43a100.09,100.09,0,0,1,27.59,27.59Z"/><circle class="cls-2" cx="433.33" cy="266.67" r="33.33"/><circle class="cls-2" cx="300" cy="266.67" r="33.33"/><circle class="cls-2" cx="166.67" cy="266.67" r="33.33"/></g></g></svg>