<svg width="25" height="25" viewBox="0 0 25 25" fill="none" xmlns="http://www.w3.org/2000/svg">
<g clip-path="url(#clip0_160_845)">
<path d="M17.4364 13.7433C18.3365 12.5384 18.8773 10.9951 18.8773 9.3124C18.8773 5.46006 16.0439 2.33696 12.5488 2.33696C9.05361 2.33696 6.22026 5.46006 6.22026 9.3124C6.22026 10.9951 6.76108 12.5384 7.66123 13.7433C6.00845 14.3103 4.81392 15.8506 4.81392 17.6829V20.473C4.81392 22.7846 6.70283 24.6584 9.03291 24.6584H16.0646C18.3947 24.6584 20.2837 22.7846 20.2837 20.473V17.6829C20.2837 15.8506 19.0892 14.3102 17.4364 13.7433ZM7.62666 9.3124C7.62666 6.23042 9.83037 3.73203 12.5488 3.73203C15.2673 3.73203 17.471 6.23042 17.471 9.3124C17.471 12.3944 15.2673 14.8928 12.5488 14.8928C9.83037 14.8928 7.62666 12.3944 7.62666 9.3124ZM18.8773 20.1243C18.8773 21.8579 17.3319 23.2632 15.4255 23.2632H9.67222C7.76582 23.2632 6.22031 21.8579 6.22031 20.1243V18.0317C6.22031 16.5489 7.35483 15.3134 8.87529 14.9851C9.91172 15.802 11.1775 16.2879 12.5489 16.2879C13.9202 16.2879 15.186 15.802 16.2224 14.9851C17.7429 15.3134 18.8774 16.5489 18.8774 18.0317V20.1243H18.8773ZM4.40313 12.8924C4.63354 12.8338 5.26401 12.8001 5.26401 12.8001C5.26401 12.8001 5.32002 11.4487 5.26401 11.405C4.11514 11.405 3.17891 8.01655 3.15454 7.21977C3.0603 4.13921 5.47642 2.42588 8.07671 1.63945C8.68032 1.45693 8.91934 0.459277 8.07671 0.244434C4.58838 0.461865 1.74814 3.36738 1.74814 7.21977C1.74814 8.90249 2.28896 10.4458 3.18911 11.6507C1.53638 12.2176 0.341797 13.7579 0.341797 15.5903V18.3804C0.341797 20.6919 0.824365 22.5657 3.15449 22.5657C4.15586 22.5545 4.5707 21.8328 3.79375 21.1706C2.52666 21.2805 1.74819 19.7653 1.74819 18.0317V15.9392C1.74814 14.4562 2.88267 13.2208 4.40313 12.8924ZM22.0903 11.6507C22.933 10.4458 23.4393 8.90244 23.4393 7.21973C23.4393 3.36738 20.7803 0.461816 17.5147 0.244385C16.7259 0.459229 16.9496 1.45684 17.5147 1.6394C19.949 2.42583 22.2109 4.13921 22.1227 7.21973C22.0999 8.0165 21.2234 11.405 20.1479 11.405C20.0954 11.4486 20.1479 12.8001 20.1479 12.8001C20.1479 12.8001 20.7381 12.8338 20.9538 12.8924C22.3772 13.2207 23.4393 14.4561 23.4393 15.9391V18.0316C23.4393 19.7652 22.7105 21.2804 21.5243 21.1705C20.7969 21.8327 21.1853 22.5544 22.1228 22.5656C24.3041 22.5656 24.7559 20.6918 24.7559 18.3803V15.5902C24.7559 13.7579 23.6375 12.2176 22.0903 11.6507Z" fill="#9ABCF1"/>
</g>
<defs>
<clipPath id="clip0_160_845">
<rect width="25" height="25" fill="white"/>
</clipPath>
</defs>
</svg>
