<svg width="24" height="24" viewBox="0 0 24 24" fill="none" xmlns="http://www.w3.org/2000/svg">
<path d="M16.9231 24H12C11.4905 24 11.0769 23.5865 11.0769 23.0769C11.0769 22.5674 11.4905 22.1538 12 22.1538H16.9231C17.7711 22.1538 18.4615 21.4634 18.4615 20.6154V19.3846C18.4615 18.8751 18.8751 18.4615 19.3846 18.4615C19.8942 18.4615 20.3077 18.8751 20.3077 19.3846V20.6154C20.3077 22.4825 18.7902 24 16.9231 24Z" fill="#B4B1B1"/>
<path d="M20.6154 9.84615H20.3077V8.30769C20.3077 3.72677 16.5809 0 12 0C7.41908 0 3.69231 3.72677 3.69231 8.30769V9.84615H3.38462C1.51754 9.84615 0 11.3637 0 13.2308V16.9231C0 18.7902 1.51754 20.3077 3.38462 20.3077H5.84615C7.03385 20.3077 8 19.3415 8 18.1538V12C8 10.8123 7.03385 9.84615 5.84615 9.84615H5.53846V8.30769C5.53846 4.74462 8.43692 1.84615 12 1.84615C15.5631 1.84615 18.4615 4.74462 18.4615 8.30769V9.84615H18.1538C16.9662 9.84615 16 10.8123 16 12V18.1538C16 19.3415 16.9662 20.3077 18.1538 20.3077H20.6154C22.4825 20.3077 24 18.7902 24 16.9231V13.2308C24 11.3637 22.4825 9.84615 20.6154 9.84615ZM6.15385 12V18.1538C6.15385 18.3237 6.016 18.4615 5.84615 18.4615H3.38462C2.53662 18.4615 1.84615 17.7711 1.84615 16.9231V13.2308C1.84615 12.3828 2.53662 11.6923 3.38462 11.6923H5.84615C6.016 11.6923 6.15385 11.8302 6.15385 12ZM22.1538 16.9231C22.1538 17.7711 21.4634 18.4615 20.6154 18.4615H18.1538C17.984 18.4615 17.8462 18.3237 17.8462 18.1538V12C17.8462 11.8302 17.984 11.6923 18.1538 11.6923H20.6154C21.4634 11.6923 22.1538 12.3828 22.1538 13.2308V16.9231Z" fill="#B4B1B1"/>
</svg>
