<svg width="36" height="37" viewBox="0 0 36 37" fill="none" xmlns="http://www.w3.org/2000/svg">
<g clip-path="url(#clip0_3_96)">
<path d="M18.3673 15.1364V22.301H28.2523C27.8183 24.6051 26.5157 26.5561 24.5621 27.8679L30.5231 32.5266C33.9963 29.2976 36 24.5548 36 18.9207C36 17.6089 35.8831 16.3474 35.666 15.1366L18.3673 15.1364Z" fill="#4285F4"/>
<path d="M8.07373 22.0213L6.72929 23.0579L1.97037 26.7915C4.99264 32.8292 11.187 37.0002 18.367 37.0002C23.3261 37.0002 27.4837 35.352 30.5228 32.5266L24.5617 27.8679C22.9253 28.9779 20.8381 29.6507 18.367 29.6507C13.5915 29.6507 9.53404 26.4048 8.08124 22.032L8.07373 22.0213Z" fill="#34A853"/>
<path d="M1.9704 10.2087C0.718139 12.6977 0.000213623 15.5064 0.000213623 18.5C0.000213623 21.4936 0.718139 24.3023 1.9704 26.7913C1.9704 26.808 8.08185 22.0149 8.08185 22.0149C7.71451 20.9049 7.49737 19.7277 7.49737 18.4998C7.49737 17.2719 7.71451 16.0947 8.08185 14.9847L1.9704 10.2087Z" fill="#FBBC05"/>
<path d="M18.3673 7.3664C21.0724 7.3664 23.4768 8.3082 25.3971 10.1246L30.6568 4.82691C27.4675 1.83331 23.3266 0 18.3673 0C11.1874 0 4.99264 4.15411 1.97037 10.2087L8.08164 14.9851C9.53425 10.6123 13.5918 7.3664 18.3673 7.3664Z" fill="#EA4335"/>
</g>
<defs>
<clipPath id="clip0_3_96">
<rect width="36" height="37" fill="white"/>
</clipPath>
</defs>
</svg>
