<svg width="26" height="26" viewBox="0 0 26 26" fill="none" xmlns="http://www.w3.org/2000/svg">
<path d="M7.79998 15.6H18.2V13H7.79998V15.6ZM18.2 7.80005H7.79998V10.4H18.2V7.80005ZM23.4 18.2V3.90005C23.4 3.55861 23.3327 3.22052 23.2021 2.90507C23.0714 2.58963 22.8799 2.303 22.6385 2.06157C22.397 1.82014 22.1104 1.62862 21.795 1.49796C21.4795 1.3673 21.1414 1.30005 20.8 1.30005H5.19998C4.51041 1.30005 3.84909 1.57398 3.3615 2.06157C2.8739 2.54917 2.59998 3.21049 2.59998 3.90005V22.1C2.59998 22.7896 2.8739 23.4509 3.3615 23.9385C3.84909 24.4261 4.51041 24.7 5.19998 24.7H16.9V22.1H5.19998V3.90005H20.8V18.2H18.85C18.3328 18.2 17.8368 18.4055 17.4711 18.7712C17.1054 19.1369 16.9 19.6329 16.9 20.15V24.7L23.4 18.2Z" fill="#9ABCF1"/>
</svg>
