<svg width="24" height="24" viewBox="0 0 24 24" fill="none" xmlns="http://www.w3.org/2000/svg">
<path fill-rule="evenodd" clip-rule="evenodd" d="M12.2796 3.71591C12.097 3.66273 11.903 3.66273 11.7203 3.71591C11.6678 3.73122 11.5754 3.76952 11.3789 3.91829C11.1723 4.07475 10.9193 4.29867 10.5251 4.64908L5.28544 9.30652C4.64309 9.87751 4.46099 10.0497 4.33439 10.2401C4.21261 10.4233 4.12189 10.6253 4.06588 10.838C4.00765 11.0592 3.99995 11.3096 3.99995 12.1691V17.1701C3.99995 18.0411 4.00076 18.6332 4.03874 19.0906C4.07573 19.5361 4.14275 19.7635 4.22513 19.922C4.41488 20.2873 4.71272 20.5852 5.07801 20.7749C5.23658 20.8573 5.46397 20.9243 5.90941 20.9613C6.36681 20.9993 6.95893 21.0001 7.82995 21.0001H7.99995V18.0001C7.99995 15.791 9.79081 14.0001 12 14.0001C14.2091 14.0001 16 15.791 16 18.0001V21.0001H16.17C17.041 21.0001 17.6331 20.9993 18.0905 20.9613C18.5359 20.9243 18.7633 20.8573 18.9219 20.7749C19.2872 20.5852 19.585 20.2873 19.7748 19.922C19.8572 19.7635 19.9242 19.5361 19.9612 19.0906C19.9991 18.6332 20 18.0411 20 17.1701V12.1691C20 11.3096 19.9923 11.0592 19.934 10.838C19.878 10.6253 19.7873 10.4233 19.6655 10.2401C19.5389 10.0497 19.3568 9.87751 18.7145 9.30652L13.4748 4.64908C13.0806 4.29867 12.8276 4.07475 12.621 3.91829C12.4245 3.76952 12.3321 3.73122 12.2796 3.71591ZM11.1611 1.79568C11.709 1.63614 12.2909 1.63614 12.8388 1.79568C13.2189 1.90639 13.5341 2.10107 13.8282 2.32375C14.1052 2.53347 14.4172 2.81076 14.7764 3.13007L20.0432 7.81171C20.0716 7.83691 20.0995 7.86177 20.1272 7.88631C20.6489 8.34953 21.0429 8.69947 21.3311 9.13289C21.5746 9.49928 21.7561 9.90333 21.8681 10.3288C22.0006 10.8321 22.0004 11.3591 22 12.0567C22 12.0937 22 12.1311 22 12.1691V17.2121C22 18.0306 22 18.7062 21.9543 19.2562C21.9069 19.8275 21.805 20.3524 21.5496 20.844C21.1701 21.5746 20.5744 22.1702 19.8439 22.5497C19.3522 22.8051 18.8274 22.907 18.256 22.9544C17.706 23.0001 17.0305 23.0001 16.2119 23.0001H15.805C15.7972 23.0001 15.7894 23.0001 15.7814 23.0001C15.6603 23.0001 15.5157 23.0002 15.3883 22.9896C15.2406 22.9774 15.0292 22.9459 14.8085 22.8312C14.5345 22.6889 14.3111 22.4655 14.1688 22.1916C14.0542 21.9708 14.0227 21.7594 14.0104 21.6117C13.9998 21.4844 13.9999 21.3397 13.9999 21.2186L14 18.0001C14 16.8955 13.1045 16.0001 12 16.0001C10.8954 16.0001 9.99995 16.8955 9.99995 18.0001L9.99996 21.2186C10 21.3397 10.0001 21.4844 9.98948 21.6117C9.97721 21.7594 9.94571 21.9708 9.83107 22.1916C9.68876 22.4655 9.46537 22.6889 9.19141 22.8312C8.9707 22.9459 8.75929 22.9774 8.6116 22.9896C8.48423 23.0002 8.33958 23.0001 8.21846 23.0001C8.21053 23.0001 8.20268 23.0001 8.19495 23.0001H7.78798C6.96944 23.0001 6.29389 23.0001 5.74388 22.9544C5.17253 22.907 4.64769 22.8051 4.15605 22.5497C3.42548 22.1702 2.8298 21.5746 2.4503 20.844C2.19492 20.3524 2.09305 19.8275 2.0456 19.2562C1.99993 18.7062 1.99994 18.0306 1.99995 17.2121V12.1691C1.99995 12.1311 1.99993 12.0937 1.99992 12.0567C1.99955 11.3591 1.99928 10.8321 2.1318 10.3288C2.24383 9.90333 2.42528 9.49928 2.66884 9.13289C2.95696 8.69947 3.35105 8.34953 3.87272 7.88632C3.90036 7.86177 3.92835 7.83691 3.95671 7.81171L9.22354 3.13008C9.58274 2.81076 9.89466 2.53347 10.1717 2.32375C10.4658 2.10107 10.781 1.90639 11.1611 1.79568Z" fill="white"/>
</svg>
