<svg width="26" height="26" viewBox="0 0 26 26" fill="none" xmlns="http://www.w3.org/2000/svg">
<g clip-path="url(#clip0_160_840)">
<path d="M17.4549 14.7462L17.4546 14.747C17.317 15.1154 17.4952 15.5464 17.8815 15.6471C18.2481 15.7818 18.6738 15.6021 18.7734 15.2169C19.0194 14.556 19.1005 13.8569 19.1006 13.1632C19.1819 9.66474 16.3933 6.86582 12.9494 6.86582C9.50521 6.86582 6.71763 9.66485 6.71763 13.1216C6.71763 16.5783 9.50521 19.3773 12.9494 19.3773C13.687 19.3773 14.3848 19.2539 15.0421 19.0064C15.4119 18.8672 15.6066 18.4469 15.4628 18.1063C15.3234 17.7368 14.9053 17.5415 14.5657 17.6863C14.0558 17.8829 13.5044 17.9624 12.9494 17.9624C10.3022 17.9624 8.16819 15.8206 8.16819 13.1621C8.16819 10.5035 10.3022 8.36177 12.9494 8.36177C15.5967 8.36177 17.7307 10.5035 17.7307 13.1621C17.7307 13.719 17.6515 14.233 17.4549 14.7462Z" fill="#9ABCF1" stroke="#9ABCF1" stroke-width="0.2"/>
<mask id="path-2-outside-1_160_840" maskUnits="userSpaceOnUse" x="-0.919312" y="-0.797607" width="28" height="27" fill="black">
<rect fill="white" x="-0.919312" y="-0.797607" width="28" height="27"/>
<path d="M23.9625 9.92202H22.8329C22.6716 9.39554 22.4295 8.86906 22.1875 8.34258L22.954 7.57311C23.317 7.20862 23.5187 6.72264 23.5187 6.23666C23.5187 5.75068 23.317 5.2647 22.954 4.90021L21.1386 3.07778C20.4125 2.34881 19.1619 2.34881 18.4358 3.07778L17.6693 3.84725C17.1852 3.60426 16.6608 3.36127 16.096 3.19928V2.06532C16.096 1.05286 15.2892 0.202393 14.2403 0.202393H11.5375C10.529 0.202393 9.68181 1.01236 9.68181 2.06532V3.19928C9.15738 3.36127 8.63295 3.60426 8.10852 3.84725L7.34204 3.07778C6.61591 2.34881 5.36534 2.34881 4.63921 3.07778L2.82387 4.90021C2.4608 5.2647 2.25909 5.75068 2.25909 6.23666C2.25909 6.72264 2.4608 7.20862 2.82387 7.57311L3.59034 8.34258C3.3483 8.82856 3.10625 9.35504 2.94489 9.92202H1.93637C0.927846 9.92202 0.0806885 10.732 0.0806885 11.7849V14.4983C0.0806885 15.5108 0.887505 16.3613 1.93637 16.3613H3.06591C3.22728 16.8878 3.46932 17.4142 3.71137 17.9407L2.94489 18.6292C2.58182 18.9937 2.38012 19.4797 2.38012 19.9656C2.38012 20.4516 2.58182 20.9376 2.94489 21.3021L4.76023 23.1245C5.48636 23.8535 6.73693 23.8535 7.46307 23.1245L8.22954 22.355C8.71363 22.598 9.23806 22.841 9.80283 23.003V24.137C9.80283 25.1494 10.6097 25.9999 11.6585 25.9999H14.3614C15.3699 25.9999 16.217 25.1899 16.217 24.137V23.003C16.7415 22.841 17.2659 22.598 17.7903 22.355L18.5568 23.1245C19.2829 23.8535 20.5335 23.8535 21.2596 23.1245L23.075 21.3021C23.438 20.9376 23.6397 20.4516 23.6397 19.9656C23.6397 19.4797 23.438 18.9937 23.075 18.6292L22.3085 17.8597C22.5505 17.3737 22.7926 16.8473 22.954 16.2803H24.0835C25.092 16.2803 25.9392 15.4703 25.9392 14.4173V11.7444C25.8182 10.732 25.0113 9.92202 23.9625 9.92202ZM24.6079 14.4983C24.6079 14.8223 24.3255 15.1058 24.0028 15.1058H21.9454L21.8244 15.5513C21.6227 16.3208 21.3403 17.0092 20.9369 17.6977L20.6949 18.1027L22.1068 19.5201C22.2278 19.6416 22.3085 19.8036 22.3085 20.0061C22.3085 20.1681 22.2278 20.3706 22.1068 20.4921L20.2915 22.3145C20.0091 22.598 19.6057 22.598 19.3233 22.3145L17.9113 20.8971L17.5079 21.1401C16.8625 21.5046 16.1364 21.8286 15.3699 22.0311L14.9261 22.1525V24.218C14.9261 24.542 14.6437 24.8254 14.321 24.8254H11.6182C11.2954 24.8254 11.0131 24.542 11.0131 24.218V22.1525L10.5693 22.0311C9.80283 21.8286 9.11704 21.5451 8.43125 21.1401L8.02784 20.8971L6.61591 22.3145C6.33352 22.598 5.93011 22.598 5.64773 22.3145L3.83239 20.4921C3.67102 20.3301 3.63068 20.1681 3.63068 19.9656C3.63068 19.8036 3.71137 19.6011 3.83239 19.4797L5.24432 18.0622L5.00227 17.6572C4.63921 17.0092 4.31648 16.2803 4.11477 15.5108L3.99375 15.0653H1.93637C1.61364 15.0653 1.33125 14.7818 1.33125 14.4578V11.7444C1.33125 11.4205 1.61364 11.137 1.93637 11.137H3.99375L4.11477 10.6915C4.31648 9.92202 4.59886 9.23355 5.00227 8.54507L5.24432 8.14009L3.83239 6.72264C3.67102 6.60115 3.63068 6.43915 3.63068 6.23666C3.63068 6.07467 3.71137 5.87217 3.83239 5.75068L5.64773 3.92825C5.93011 3.64476 6.33352 3.64476 6.61591 3.92825L8.02784 5.3457L8.43125 5.1027C9.0767 4.73822 9.80283 4.41423 10.5693 4.21174L11.0131 4.09024V2.06532C11.0131 1.74133 11.2954 1.45784 11.6182 1.45784H14.321C14.6437 1.45784 14.9261 1.74133 14.9261 2.06532V4.13074L15.3699 4.25224C16.1364 4.45473 16.8221 4.73822 17.5079 5.1432L17.9113 5.38619L19.3233 3.96875C19.6057 3.68526 20.0091 3.68526 20.2915 3.96875L22.1068 5.79118C22.2278 5.91267 22.3085 6.07467 22.3085 6.27716C22.3085 6.43915 22.2278 6.64165 22.1068 6.76314L20.6949 8.18059L20.9369 8.58557C21.3 9.23355 21.6227 9.96252 21.8244 10.732L21.9454 11.1775H24.0028C24.3255 11.1775 24.6079 11.461 24.6079 11.7849V14.4983Z"/>
</mask>
<path d="M23.9625 9.92202H22.8329C22.6716 9.39554 22.4295 8.86906 22.1875 8.34258L22.954 7.57311C23.317 7.20862 23.5187 6.72264 23.5187 6.23666C23.5187 5.75068 23.317 5.2647 22.954 4.90021L21.1386 3.07778C20.4125 2.34881 19.1619 2.34881 18.4358 3.07778L17.6693 3.84725C17.1852 3.60426 16.6608 3.36127 16.096 3.19928V2.06532C16.096 1.05286 15.2892 0.202393 14.2403 0.202393H11.5375C10.529 0.202393 9.68181 1.01236 9.68181 2.06532V3.19928C9.15738 3.36127 8.63295 3.60426 8.10852 3.84725L7.34204 3.07778C6.61591 2.34881 5.36534 2.34881 4.63921 3.07778L2.82387 4.90021C2.4608 5.2647 2.25909 5.75068 2.25909 6.23666C2.25909 6.72264 2.4608 7.20862 2.82387 7.57311L3.59034 8.34258C3.3483 8.82856 3.10625 9.35504 2.94489 9.92202H1.93637C0.927846 9.92202 0.0806885 10.732 0.0806885 11.7849V14.4983C0.0806885 15.5108 0.887505 16.3613 1.93637 16.3613H3.06591C3.22728 16.8878 3.46932 17.4142 3.71137 17.9407L2.94489 18.6292C2.58182 18.9937 2.38012 19.4797 2.38012 19.9656C2.38012 20.4516 2.58182 20.9376 2.94489 21.3021L4.76023 23.1245C5.48636 23.8535 6.73693 23.8535 7.46307 23.1245L8.22954 22.355C8.71363 22.598 9.23806 22.841 9.80283 23.003V24.137C9.80283 25.1494 10.6097 25.9999 11.6585 25.9999H14.3614C15.3699 25.9999 16.217 25.1899 16.217 24.137V23.003C16.7415 22.841 17.2659 22.598 17.7903 22.355L18.5568 23.1245C19.2829 23.8535 20.5335 23.8535 21.2596 23.1245L23.075 21.3021C23.438 20.9376 23.6397 20.4516 23.6397 19.9656C23.6397 19.4797 23.438 18.9937 23.075 18.6292L22.3085 17.8597C22.5505 17.3737 22.7926 16.8473 22.954 16.2803H24.0835C25.092 16.2803 25.9392 15.4703 25.9392 14.4173V11.7444C25.8182 10.732 25.0113 9.92202 23.9625 9.92202ZM24.6079 14.4983C24.6079 14.8223 24.3255 15.1058 24.0028 15.1058H21.9454L21.8244 15.5513C21.6227 16.3208 21.3403 17.0092 20.9369 17.6977L20.6949 18.1027L22.1068 19.5201C22.2278 19.6416 22.3085 19.8036 22.3085 20.0061C22.3085 20.1681 22.2278 20.3706 22.1068 20.4921L20.2915 22.3145C20.0091 22.598 19.6057 22.598 19.3233 22.3145L17.9113 20.8971L17.5079 21.1401C16.8625 21.5046 16.1364 21.8286 15.3699 22.0311L14.9261 22.1525V24.218C14.9261 24.542 14.6437 24.8254 14.321 24.8254H11.6182C11.2954 24.8254 11.0131 24.542 11.0131 24.218V22.1525L10.5693 22.0311C9.80283 21.8286 9.11704 21.5451 8.43125 21.1401L8.02784 20.8971L6.61591 22.3145C6.33352 22.598 5.93011 22.598 5.64773 22.3145L3.83239 20.4921C3.67102 20.3301 3.63068 20.1681 3.63068 19.9656C3.63068 19.8036 3.71137 19.6011 3.83239 19.4797L5.24432 18.0622L5.00227 17.6572C4.63921 17.0092 4.31648 16.2803 4.11477 15.5108L3.99375 15.0653H1.93637C1.61364 15.0653 1.33125 14.7818 1.33125 14.4578V11.7444C1.33125 11.4205 1.61364 11.137 1.93637 11.137H3.99375L4.11477 10.6915C4.31648 9.92202 4.59886 9.23355 5.00227 8.54507L5.24432 8.14009L3.83239 6.72264C3.67102 6.60115 3.63068 6.43915 3.63068 6.23666C3.63068 6.07467 3.71137 5.87217 3.83239 5.75068L5.64773 3.92825C5.93011 3.64476 6.33352 3.64476 6.61591 3.92825L8.02784 5.3457L8.43125 5.1027C9.0767 4.73822 9.80283 4.41423 10.5693 4.21174L11.0131 4.09024V2.06532C11.0131 1.74133 11.2954 1.45784 11.6182 1.45784H14.321C14.6437 1.45784 14.9261 1.74133 14.9261 2.06532V4.13074L15.3699 4.25224C16.1364 4.45473 16.8221 4.73822 17.5079 5.1432L17.9113 5.38619L19.3233 3.96875C19.6057 3.68526 20.0091 3.68526 20.2915 3.96875L22.1068 5.79118C22.2278 5.91267 22.3085 6.07467 22.3085 6.27716C22.3085 6.43915 22.2278 6.64165 22.1068 6.76314L20.6949 8.18059L20.9369 8.58557C21.3 9.23355 21.6227 9.96252 21.8244 10.732L21.9454 11.1775H24.0028C24.3255 11.1775 24.6079 11.461 24.6079 11.7849V14.4983Z" fill="#9ABCF1"/>
<path d="M23.9625 9.92202H22.8329C22.6716 9.39554 22.4295 8.86906 22.1875 8.34258L22.954 7.57311C23.317 7.20862 23.5187 6.72264 23.5187 6.23666C23.5187 5.75068 23.317 5.2647 22.954 4.90021L21.1386 3.07778C20.4125 2.34881 19.1619 2.34881 18.4358 3.07778L17.6693 3.84725C17.1852 3.60426 16.6608 3.36127 16.096 3.19928V2.06532C16.096 1.05286 15.2892 0.202393 14.2403 0.202393H11.5375C10.529 0.202393 9.68181 1.01236 9.68181 2.06532V3.19928C9.15738 3.36127 8.63295 3.60426 8.10852 3.84725L7.34204 3.07778C6.61591 2.34881 5.36534 2.34881 4.63921 3.07778L2.82387 4.90021C2.4608 5.2647 2.25909 5.75068 2.25909 6.23666C2.25909 6.72264 2.4608 7.20862 2.82387 7.57311L3.59034 8.34258C3.3483 8.82856 3.10625 9.35504 2.94489 9.92202H1.93637C0.927846 9.92202 0.0806885 10.732 0.0806885 11.7849V14.4983C0.0806885 15.5108 0.887505 16.3613 1.93637 16.3613H3.06591C3.22728 16.8878 3.46932 17.4142 3.71137 17.9407L2.94489 18.6292C2.58182 18.9937 2.38012 19.4797 2.38012 19.9656C2.38012 20.4516 2.58182 20.9376 2.94489 21.3021L4.76023 23.1245C5.48636 23.8535 6.73693 23.8535 7.46307 23.1245L8.22954 22.355C8.71363 22.598 9.23806 22.841 9.80283 23.003V24.137C9.80283 25.1494 10.6097 25.9999 11.6585 25.9999H14.3614C15.3699 25.9999 16.217 25.1899 16.217 24.137V23.003C16.7415 22.841 17.2659 22.598 17.7903 22.355L18.5568 23.1245C19.2829 23.8535 20.5335 23.8535 21.2596 23.1245L23.075 21.3021C23.438 20.9376 23.6397 20.4516 23.6397 19.9656C23.6397 19.4797 23.438 18.9937 23.075 18.6292L22.3085 17.8597C22.5505 17.3737 22.7926 16.8473 22.954 16.2803H24.0835C25.092 16.2803 25.9392 15.4703 25.9392 14.4173V11.7444C25.8182 10.732 25.0113 9.92202 23.9625 9.92202ZM24.6079 14.4983C24.6079 14.8223 24.3255 15.1058 24.0028 15.1058H21.9454L21.8244 15.5513C21.6227 16.3208 21.3403 17.0092 20.9369 17.6977L20.6949 18.1027L22.1068 19.5201C22.2278 19.6416 22.3085 19.8036 22.3085 20.0061C22.3085 20.1681 22.2278 20.3706 22.1068 20.4921L20.2915 22.3145C20.0091 22.598 19.6057 22.598 19.3233 22.3145L17.9113 20.8971L17.5079 21.1401C16.8625 21.5046 16.1364 21.8286 15.3699 22.0311L14.9261 22.1525V24.218C14.9261 24.542 14.6437 24.8254 14.321 24.8254H11.6182C11.2954 24.8254 11.0131 24.542 11.0131 24.218V22.1525L10.5693 22.0311C9.80283 21.8286 9.11704 21.5451 8.43125 21.1401L8.02784 20.8971L6.61591 22.3145C6.33352 22.598 5.93011 22.598 5.64773 22.3145L3.83239 20.4921C3.67102 20.3301 3.63068 20.1681 3.63068 19.9656C3.63068 19.8036 3.71137 19.6011 3.83239 19.4797L5.24432 18.0622L5.00227 17.6572C4.63921 17.0092 4.31648 16.2803 4.11477 15.5108L3.99375 15.0653H1.93637C1.61364 15.0653 1.33125 14.7818 1.33125 14.4578V11.7444C1.33125 11.4205 1.61364 11.137 1.93637 11.137H3.99375L4.11477 10.6915C4.31648 9.92202 4.59886 9.23355 5.00227 8.54507L5.24432 8.14009L3.83239 6.72264C3.67102 6.60115 3.63068 6.43915 3.63068 6.23666C3.63068 6.07467 3.71137 5.87217 3.83239 5.75068L5.64773 3.92825C5.93011 3.64476 6.33352 3.64476 6.61591 3.92825L8.02784 5.3457L8.43125 5.1027C9.0767 4.73822 9.80283 4.41423 10.5693 4.21174L11.0131 4.09024V2.06532C11.0131 1.74133 11.2954 1.45784 11.6182 1.45784H14.321C14.6437 1.45784 14.9261 1.74133 14.9261 2.06532V4.13074L15.3699 4.25224C16.1364 4.45473 16.8221 4.73822 17.5079 5.1432L17.9113 5.38619L19.3233 3.96875C19.6057 3.68526 20.0091 3.68526 20.2915 3.96875L22.1068 5.79118C22.2278 5.91267 22.3085 6.07467 22.3085 6.27716C22.3085 6.43915 22.2278 6.64165 22.1068 6.76314L20.6949 8.18059L20.9369 8.58557C21.3 9.23355 21.6227 9.96252 21.8244 10.732L21.9454 11.1775H24.0028C24.3255 11.1775 24.6079 11.461 24.6079 11.7849V14.4983Z" stroke="#9ABCF1" stroke-width="0.4" mask="url(#path-2-outside-1_160_840)"/>
</g>
<defs>
<clipPath id="clip0_160_840">
<rect width="26" height="26" fill="white"/>
</clipPath>
</defs>
</svg>
