<svg xmlns="http://www.w3.org/2000/svg" viewBox="0 0 1204.4 740.28"><title>Asset 1</title><g id="a08c3e86-9095-4a80-b5e3-f3417f95d183" data-name="Layer 2"><g id="e1ed532b-b57c-4f40-ad1d-950f6ff81bbd" data-name="Logo"><path d="M1195.85,337.25a29.12,29.12,0,0,0-41.21,0L965,526.86C865,626.89,731.78,682,589.91,682c-132.08,0-256.69-47.78-354.1-135.24l41.35-41.36A470.68,470.68,0,0,0,589.91,623.73c120.91,0,241.85-46.05,333.91-138.1L1113.43,296a29.14,29.14,0,1,0-41.21-41.22L882.59,444.42c-154.49,154.5-401.69,161-564.11,19.65l41.35-41.31A355.93,355.93,0,0,0,841.37,403.2L1031,213.58a29.31,29.31,0,0,0-.16-41.38C919.79,61.15,771.93,0,614.5,0S309.18,61.17,198.15,172.2L8.55,361.82A29.14,29.14,0,0,0,49.76,403L239.37,213.42c100-100,233.25-155.12,375.13-155.12,132.09,0,256.69,47.76,354.11,135.22l-41.36,41.36C841,158.41,731,116.55,614.5,116.55c-126.28,0-244.86,49-333.89,138.09L91,444.26a29.15,29.15,0,0,0,41.22,41.22L321.82,295.86c78-78,182-121,292.68-121,101,0,196.22,35.85,271.43,101.35L844.6,317.52A355.44,355.44,0,0,0,363,337.09L173.42,526.7a29.36,29.36,0,0,0,.16,41.38c111,111,258.9,172.2,416.33,172.2s305.29-61.15,416.32-172.2l189.62-189.62A29.1,29.1,0,0,0,1195.85,337.25Zm-581.35-46a295.08,295.08,0,0,1,188.79,67.62L800.16,362c-109,109-282.35,115.47-399,19.45l3.11-3.11A295.37,295.37,0,0,1,614.5,291.22Z" fill="#fff"/></g></g></svg>